<?xml version="1.0" encoding="utf-8"?>
<!-- Svg Vector Icons : http://www.onlinewebfonts.com/icon -->
<!DOCTYPE svg PUBLIC "-//W3C//DTD SVG 1.1//EN" "http://www.w3.org/Graphics/SVG/1.1/DTD/svg11.dtd">
<svg version="1.1" xmlns="http://www.w3.org/2000/svg" xmlns:xlink="http://www.w3.org/1999/xlink" x="0px" y="0px" viewBox="0 0 1000 1000" enable-background="new 0 0 1000 1000" xml:space="preserve">
<metadata> Svg Vector Icons : http://www.onlinewebfonts.com/icon </metadata>
<g><g transform="translate(0.000000,511.000000) scale(0.100000,-0.100000)"><path d="M2908.6,3588.5c-298.7-25.7-589.6-73.2-882.4-148.4c-1044.6-263.1-1754.8-821-1873.6-1470c-9.9-61.3-27.7-144.4-37.6-182c-11.9-41.6-17.8-726.1-13.8-1770.7c7.9-1893.3,0-1786.5,144.4-2073.4c298.7-591.5,1042.6-1038.7,2041.7-1230.6c514.4-98.9,437.2-97,3616.5-91c1632.2,3.9,3185.2,11.9,3450.4,19.8l482.7,11.9l35.6,49.5c33.6,47.5,35.6,118.7,9.9,1835.9l-25.7,1788.5l-51.4,49.5l-49.5,51.4l-453.1-23.7C8913,385.5,6671.5,284.6,6616.1,284.6c-11.9,0-19.8,282.9-19.8,807.2c-2,894.2-5.9,925.9-138.5,1191c-324.5,643-1224.6,1125.7-2374.1,1276.1C3791,3596.4,3185.6,3612.3,2908.6,3588.5z M4091.7,3244.3c823-124.6,1543.2-441.2,1903.2-840.8c476.8-530.2,346.2-1133.6-346.2-1594.6C5223.3,527.9,4623.9,328.1,3945.3,243c-251.3-31.7-931.8-31.7-1177.2,0C1234.8,438.9,231.8,1196.6,471.2,1980.1c130.6,437.2,645,840.8,1373,1082.2c239.4,79.1,702.3,178.1,973.4,207.7C3070.8,3297.7,3842.4,3281.9,4091.7,3244.3z M908.4,537.8c538.1-350.2,1129.7-532.2,2016-621.2c288.8-27.7,433.3-29.7,1335.4-9.9c1386.9,31.6,3660.1,114.7,4849.1,180c195.9,11.9,373.9,19.8,397.7,19.8c41.6,0,41.6-2,55.4-864.6c5.9-476.8,17.8-1189,23.7-1582.7l13.9-718.2h-350.2h-348.2v385.8c0,409.5-9.9,464.9-93,502.5c-73.2,33.6-102.9,27.7-166.2-35.6l-57.4-57.4v-397.6v-397.7h-415.5h-415.5v397.7v397.6l-57.4,57.4c-63.3,63.3-93,69.3-166.2,35.6c-83.1-37.6-93-93-93-502.5v-385.8h-415.5h-413.5l-5.9,694.4l-5.9,694.4l-57.4,49.5c-45.5,37.6-71.2,45.5-118.7,37.6c-122.6-25.7-120.7-5.9-130.6-779.5l-9.9-706.3h-415.5h-415.5l-9.9,419.4c-11.9,470.9-15.8,488.7-148.4,488.7s-136.5-17.8-148.4-488.7l-9.9-419.4l-419.4-5.9l-421.4-4v413.5c0,364-4,417.4-35.6,455c-51.4,63.3-142.5,73.2-205.8,21.8l-55.4-41.5l-4-419.4l-5.9-419.4l-419.4-5.9l-421.4-4v700.4c0,637.1-4,704.3-33.6,741.9c-57.4,67.3-146.4,73.2-215.6,15.8l-57.4-49.5l-5.9-692.4l-5.9-692.4l-83.1,9.9c-108.8,11.9-601.4,98.9-676.6,120.7l-59.4,15.8l-9.9,332.4l-9.9,332.4l-55.4,47.5c-61.3,53.4-89,57.4-158.3,25.7c-77.2-35.6-93-98.9-93-375.9v-257.2l-45.5,11.9c-108.8,33.6-463,213.7-597.5,308.6c-197.8,136.5-427.3,381.8-504.5,538.1c-120.7,245.3-118.7,219.6-118.7,1624.3v1286L578,804.9C667,717.9,815.4,597.2,908.4,537.8z M6285.7,274.7c-4-2-233.4-9.9-510.4-17.8L5270.8,245l178.1,87c245.3,118.7,514.4,300.7,686.5,464.9l144.4,136.5l5.9-326.4C6287.7,427,6287.7,276.7,6285.7,274.7z"/><path d="M3124.2,2638.9c-421.4-57.4-769.6-209.7-963.5-419.4c-120.7-134.5-168.2-239.4-180-403.6c-11.9-193.9,53.4-340.3,221.6-498.6C2857.1,706,4420.1,824.7,4796,1513.2c41.5,79.1,57.4,138.5,65.3,249.3c7.9,132.5,4,156.3-53.4,271c-134.5,275-474.8,488.7-921.9,577.7C3707.9,2646.8,3290.4,2660.7,3124.2,2638.9z M3921.5,2284.8c318.5-85.1,554-239.4,619.2-407.5c31.7-83.1,31.7-95,0-178.1c-63.3-166.2-261.2-300.7-579.7-399.6c-162.2-49.5-197.8-53.4-540.1-53.4s-377.9,4-544.1,55.4c-413.5,126.6-650.9,352.2-583.6,555.9c65.3,197.8,330.4,364,712.2,447.1C3237,2356,3698,2346.1,3921.5,2284.8z"/></g></g>
</svg>