<svg id="Layer_1" data-name="Layer 1" xmlns="http://www.w3.org/2000/svg" viewBox="0 0 461.99 135.7"><defs><style>.cls-1,.cls-2{isolation:isolate;}.cls-2{font-size:69.67px;fill:#231f20;font-family:BodoniSvtyTwoSCITCTT-Book, "Bodoni 72 Smallcaps";}.cls-3{fill:#242424;}.cls-4{fill:#fff;}.cls-5{fill:#ba946a;}</style></defs><g class="cls-1"><text class="cls-2" transform="translate(0 88.04) scale(0.98 1)">Sas</text><text class="cls-2" transform="translate(88.59 88.04) scale(0.98 1)"><tspan xml:space="preserve">  </tspan></text><text class="cls-2" transform="translate(113.97 88.04) scale(0.98 1)">rería</text><text class="cls-2" transform="translate(248.43 88.04) scale(0.98 1)"> </text><text class="cls-2" transform="translate(261.17 88.04) scale(0.98 1)">Sant</text><text class="cls-2" transform="translate(386.41 88.04) scale(0.98 1)"><tspan xml:space="preserve">    </tspan></text><text class="cls-2" transform="translate(437.28 88.04) scale(0.98 1)">s</text></g><path class="cls-3" d="M101,2.9c-2.6,3.6-2.6,9.4-2.6,16.2v4.8c0,3.2,0,6.3.2,9h0c-.1,1.4.7,14.6,4.8,20.1l-2.8,2.2c1.2,1.4,3.3,2.2,6.8,3.6V49.6a5,5,0,0,1-2.9-3.4,1.86,1.86,0,0,1,1.3-2.2c.2,0,.3-.1.5-.1h0c7.7,0,13.1-10.8,13.1-22.2S114.1,0,106.4,0A6.34,6.34,0,0,0,101,2.9Zm15.1,19c0,10.2-2.9,17.6-9.6,17.6a4.87,4.87,0,0,1-2.5-1.2c-1.7-2.1-.7-7-.7-12.4V19.2c0-5.9-1.2-11,.5-13.3a4.56,4.56,0,0,1,2.7-1.5c6.6-.1,9.6,7.4,9.6,17.5Z" transform="translate(0 0)"/><path class="cls-3" d="M100.5,55.4l-4,3.2,1.6,37.8c.2,5.7.5,12.2,1.1,18.6a80,80,0,0,0,4.5,20.5c3.3-19.5,4.1-41.4,3.7-65.5l.1-11.7C107.4,58.4,104.5,58.6,100.5,55.4Z" transform="translate(0 0)"/><path class="cls-4" d="M103.7,53.5l-2.6,2.1c1,1,3.8,2.1,5.8,2.7V56.2A26.92,26.92,0,0,1,103.7,53.5Z" transform="translate(0 0)"/><path class="cls-3" d="M79.8,15.7A10.13,10.13,0,0,0,73,22.1a17.48,17.48,0,0,0-.6,10.6A22.84,22.84,0,0,0,79,43.6,10.58,10.58,0,0,0,86.8,46c.7-.1,1.9.3,2.1,1,.7,2.6,2.3,8.4,8.3,12.2V70.4c.6,24.1,2.4,46,6.5,65.3a81,81,0,0,0,3.6-20.7c.3-6.4.3-13,.3-18.7V58.4S94.5,54.9,94.1,45.1c-.1-4.2,1.6-7.8,3.8-12.3,1-2,.3-4.6-1.3-6.4s-3.6-3.9-4.5-5.1C88.8,17,84.3,14.5,79.8,15.7ZM92.1,29.6c1.5,5.9-.8,11.6-5,12.7A7.14,7.14,0,0,1,81,40.8a12.53,12.53,0,0,1-4.3-7.1,14.87,14.87,0,0,1-.5-3.6,12.67,12.67,0,0,1,.9-4.7A7,7,0,0,1,81.7,21c4.3-1.2,8.9,2.7,10.4,8.6Z" transform="translate(0 0)"/><path class="cls-4" d="M97.6,58.3V70.4c0,1.1.1,2.3.1,3.4h5.8l-5.8.4c.8,24.2.9,47.4,5.9,59.3a83,83,0,0,0,3-18.6c.2-5.6.3-11.2.3-16.9V58.8a26.74,26.74,0,0,1-6.2-2.8Z" transform="translate(0 0)"/><path class="cls-4" d="M103.4,39.2a5.18,5.18,0,0,0,3.3,1.6c6.8,0,10.7-6.8,10.7-18.7,0-7.8-1.7-13.4-4.8-16.3,2.8,3,4.2,8.5,4.2,15.8,0,11.9-3.9,18.7-10.7,18.7a5.94,5.94,0,0,1-2.7-1.1Z" transform="translate(0 0)"/><path class="cls-4" d="M101.5,3.3c-2.2,2.9-2.3,7.8-2.3,13v9.3c0,2.3,0,4.8.2,7l.1,3.2c.4,4.4,1.6,12.4,4.4,16.3l.6.8.5.5-.6-.8c-2.9-3.9-4-11.9-4.4-16.3l-.1-3.2c-.2-2.2-.2-4.6-.2-7V16.8c0-5.2.2-10.1,2.4-13a5.32,5.32,0,0,1,4.6-2.5A8.55,8.55,0,0,1,112.6,4,8.86,8.86,0,0,0,106.2.8,5.49,5.49,0,0,0,101.5,3.3Z" transform="translate(0 0)"/><path class="cls-4" d="M87.9,43.6c3.7-1,6.2-5.1,6.2-10.1a17.37,17.37,0,0,0-.5-3.9c-1.2-4.8-4.4-8.3-7.9-9.3,3.2,1.3,6,4.6,7.1,9a17.37,17.37,0,0,1,.5,3.9c0,5.1-2.5,9.1-6.2,10.1a7,7,0,0,1-3.8-.1A6.69,6.69,0,0,0,87.9,43.6Z" transform="translate(0 0)"/><path class="cls-4" d="M80.1,43c-3-2.4-5.4-7-6.2-10.3a20.07,20.07,0,0,1-.5-4.2,16,16,0,0,1,1.1-5.7A9.51,9.51,0,0,1,80.6,17a7.86,7.86,0,0,1,4.3.1,7.45,7.45,0,0,0-5.1-.3,9.51,9.51,0,0,0-6.1,5.8,15.62,15.62,0,0,0-1.1,5.7,19.31,19.31,0,0,0,.5,4.2,21.38,21.38,0,0,0,6.2,10.3,10.41,10.41,0,0,0,3.6,1.9A26.06,26.06,0,0,1,80.1,43Z" transform="translate(0 0)"/><path class="cls-4" d="M89.3,46.4c.6,2.4,2.1,8,7.8,11.5a20.4,20.4,0,0,1-7-11.3A2.62,2.62,0,0,0,88,44.9,2.43,2.43,0,0,1,89.3,46.4Z" transform="translate(0 0)"/><circle class="cls-3" cx="102.4" cy="67.5" r="2.2"/><ellipse class="cls-4" cx="102.4" cy="67.5" rx="1.6" ry="1.7"/><polygon class="cls-3" points="103 65.9 103.4 66.1 101.7 69.2 101.4 68.9 103 65.9"/><path class="cls-3" d="M422.8,72.4l-1.7-2H421c0,.1-.1.1-.2.1h-.1l.9,1c.3.4.5.8.8,1.2a.35.35,0,0,1-.1.2.31.31,0,0,1-.2.1,4.74,4.74,0,0,1-1-1c-.5-.5-2.3-2.6-2.3-2.6l-.9-1.2c-.1-.2-.2-.3-.3-.5l-.1-.2.2.1c.2.1.3.2.5.3a4.74,4.74,0,0,1,1,1l.2.2.1-.1h.3c-.7-.8-1.5-1.6-2.3-2.4s-1.5-1.6-2.3-2.5l-9.9-11.9c-8.9-10.4-12.6-13.9-12.7-13.8s2.8,4.3,11.7,14.7l10.1,11.7c.7.9,1.5,1.7,2.1,2.6a27.82,27.82,0,0,0,2.1,2.7l2.9,3.4c.6.8,1.1.3,1.3.1a.93.93,0,0,0,.2-1.2C422.9,72.5,422.9,72.4,422.8,72.4ZM417,67.7c-.7-.9-1.4-1.8-2.1-2.6L404.8,53.4c-4.6-5.3-7.4-8.8-9-10.9l-1.2-1.7h0c1.8,2.2,4.7,5.8,9.2,11l10.7,12.5c.8.9,1.5,1.9,2.3,2.8.5.8.9,1.5.9,1.5A5.5,5.5,0,0,1,417,67.7Zm5.6,6a.76.76,0,0,1-.4.2.85.85,0,0,1-.5-.3h0L420.4,72l1.3,1.4a1,1,0,0,0,.5.4c.2,0,.3-.1.5-.2l.1-.1-.2.2Z" transform="translate(0 0)"/><path class="cls-5" d="M417.9,92a4.33,4.33,0,0,0-.1-.5.1.1,0,0,0-.1-.1h-.1c-.1.1-.2.2-.1.3s.1.4.1.6.1.4.1.6.1.1.2.1h.1c.1-.1.2-.2.2-.3A3.63,3.63,0,0,1,417.9,92Z" transform="translate(0 0)"/><path class="cls-5" d="M417.4,91.8c0-.1-.1-.1-.2-.1h-.1c-.1.1-.2.2-.2.3a1.27,1.27,0,0,0,.1.6l.1.6c0,.1.1.2.2.1s.2-.2.2-.3C417.5,92.5,417.4,92.2,417.4,91.8Z" transform="translate(0 0)"/><path class="cls-5" d="M418.3,91.2c0-.1-.1-.1-.2-.1H418c-.1.1-.2.2-.1.3.1.3.1.5.2.8l.1.3c0,.1.1.1.2.1h.1c.1-.1.2-.2.2-.3A3.58,3.58,0,0,1,418.3,91.2Z" transform="translate(0 0)"/><path class="cls-5" d="M419.3,91.1c0-.2-.1-.3-.2-.5s-.1-.1-.2-.1h-.1a.37.37,0,0,0-.1.3c.1.4.2.7.3,1.1,0,.1.1.1.2.1s.2-.2.1-.4Z" transform="translate(0 0)"/><path class="cls-5" d="M418.7,90.9c0-.1-.1-.1-.2-.1h-.1a.37.37,0,0,0-.1.3c.1.4.2.8.3,1.1,0,.1.1.1.2.1s.2-.2.1-.4A5.76,5.76,0,0,0,418.7,90.9Z" transform="translate(0 0)"/><path class="cls-5" d="M419.6,90.2c0-.1-.1-.1-.2,0h0a.37.37,0,0,0-.1.3,2.35,2.35,0,0,1,.2.8l.1.3c0,.1.1.1.2.1h.1c.1,0,.1-.1.1-.2v-.2A3.58,3.58,0,0,1,419.6,90.2Z" transform="translate(0 0)"/><path class="cls-5" d="M420.6,90c-.1-.2-.1-.3-.2-.5s-.1-.1-.2-.1l-.1.1h0c-.1.1-.1.2-.1.4.1.4.3.7.4,1.1,0,.1.1.1.2,0s.1-.2.1-.4Z" transform="translate(0 0)"/><path class="cls-5" d="M420,89.9c0-.1-.1-.1-.2,0h0c-.1.1-.1.2-.1.4s.3.7.4,1.1c0,.1.1.1.2.1a.35.35,0,0,0,.1-.2v-.2C420.2,90.6,420.1,90.2,420,89.9Z" transform="translate(0 0)"/><path class="cls-5" d="M420.7,89.1c0-.1-.1-.1-.2,0h0c-.1.1-.1.2-.1.4l.3.8.1.3c0,.1.1.1.2.1h.1c.1-.1.1-.2.1-.4A4.33,4.33,0,0,0,420.7,89.1Z" transform="translate(0 0)"/><path class="cls-5" d="M421.7,88.8l-.3-.4c0-.1-.1-.1-.2-.1l-.1.1c0,.1-.1.1-.1.2v.2l.5,1c0,.1.2.1.2,0s.1-.2.1-.4Z" transform="translate(0 0)"/><path class="cls-5" d="M421.1,88.8c0-.1-.1-.1-.2-.1l-.1.1c-.1.1-.1.2,0,.4s.3.7.5,1c0,.1.2.1.3,0s.1-.2.1-.4A4.37,4.37,0,0,0,421.1,88.8Z" transform="translate(0 0)"/><path class="cls-5" d="M421.8,87.8c0-.1-.1-.1-.2-.1l-.1.1c0,.1-.1.1-.1.2v.2l.4.7.1.3c.1.1.1.1.2,0h0v-.1c.1-.1.1-.2,0-.4Z" transform="translate(0 0)"/><path class="cls-5" d="M422.7,87.4c-.1-.1-.2-.3-.3-.4s-.1-.1-.2,0h0c-.1.1-.1.2,0,.4a8.79,8.79,0,0,1,.6,1,.19.19,0,0,0,.3,0,.3.3,0,0,0,0-.4A6.13,6.13,0,0,1,422.7,87.4Z" transform="translate(0 0)"/><path class="cls-5" d="M422.1,87.4c0-.1-.1-.1-.2-.1l-.1.1c0,.1-.1.1-.1.2v.2a8.79,8.79,0,0,1,.6,1c.1.1.2.1.2,0a.3.3,0,0,0,0-.4Z" transform="translate(0 0)"/><path class="cls-5" d="M422.7,86.5c-.1-.1-.2-.1-.2,0s-.1.2,0,.4l.5.7.2.3c0,.1.1.1.2,0h0v-.1a.3.3,0,0,0,0-.4A5.5,5.5,0,0,1,422.7,86.5Z" transform="translate(0 0)"/><path class="cls-5" d="M423.6,85.9l-.4-.4c0-.1-.1-.1-.2,0l-.1.1h0c-.1.1-.1.2,0,.4s.5.6.7.9c.1.1.2.1.2,0a.3.3,0,0,0,0-.4Z" transform="translate(0 0)"/><path class="cls-5" d="M423,86c0-.1-.1-.1-.2-.1l-.1.1c-.1.1-.1.2,0,.4s.5.6.7.9a.19.19,0,0,0,.3,0,.3.3,0,0,0,0-.4A5.5,5.5,0,0,1,423,86Z" transform="translate(0 0)"/><path class="cls-5" d="M423.5,85c-.1-.1-.1-.1-.2,0v.1c-.1.1-.1.2,0,.4a2.65,2.65,0,0,1,.5.6l.2.2c0,.1.1.1.2,0h0v-.1a.3.3,0,0,0,0-.4Z" transform="translate(0 0)"/><path class="cls-5" d="M424.3,84.4l-.4-.4c-.1-.1-.2,0-.2.1h0a.6.6,0,0,0,.1.4l.8.8c.1.1.2,0,.2-.1a.3.3,0,0,0,0-.4Z" transform="translate(0 0)"/><path class="cls-5" d="M423.7,84.5c-.1-.1-.1-.1-.2,0v.1c-.1.1,0,.3,0,.4a6,6,0,0,0,.8.8c.1.1.2.1.2-.1a.3.3,0,0,0,0-.4A6,6,0,0,1,423.7,84.5Z" transform="translate(0 0)"/><path class="cls-5" d="M424.1,83.5c-.1-.1-.2,0-.2.1a.6.6,0,0,0,.1.4l.6.6.2.2c0,.1.1.1.2,0h0v-.1c.1-.1,0-.3-.1-.4A6,6,0,0,0,424.1,83.5Z" transform="translate(0 0)"/><path class="cls-5" d="M425.4,83.2l-.5-.4-.4-.3c-.1-.1-.1,0-.2,0v.1h0a.6.6,0,0,0,.1.4c.3.2.6.5.9.7.1.1.2,0,.2-.1S425.5,83.3,425.4,83.2Z" transform="translate(0 0)"/><path class="cls-5" d="M424.3,83c-.1-.1-.2,0-.2.1a.6.6,0,0,0,.1.4,3,3,0,0,1,.8.8c.1.1.2,0,.2-.1a.6.6,0,0,0-.1-.4Z" transform="translate(0 0)"/><path class="cls-5" d="M425.6,82.6l-.9-.7c-.1-.1-.2,0-.2.1a.6.6,0,0,0,.1.4l.6.5.2.2c0,.1.1.1.2,0h0V83A.3.3,0,0,0,425.6,82.6Z" transform="translate(0 0)"/><path class="cls-5" d="M425.9,81.5l-.5-.4-.4-.3c-.1-.1-.2,0-.2.1h0c0,.1,0,.3.1.3l.9.6c.1.1.2,0,.2-.1A.31.31,0,0,0,425.9,81.5Z" transform="translate(0 0)"/><path class="cls-5" d="M425.7,82l-.9-.6c-.1-.1-.2,0-.2.1s0,.3.1.3l.9.7c.1.1.2,0,.2-.1S425.8,82.1,425.7,82Z" transform="translate(0 0)"/><path class="cls-5" d="M426,80.9l-.9-.6c-.1-.1-.2,0-.2.1s0,.3.1.3l.7.4.3.2h.2v-.1C426.1,81.1,426.1,81,426,80.9Z" transform="translate(0 0)"/><path class="cls-5" d="M426.2,79.8l-.5-.3-.5-.2c-.1-.1-.2,0-.2.1h0v.2a.1.1,0,0,0,.1.1,8.79,8.79,0,0,0,1,.6c.1.1.2,0,.2-.1S426.4,79.8,426.2,79.8Z" transform="translate(0 0)"/><path class="cls-5" d="M426.1,80.3a8.79,8.79,0,0,0-1-.6c-.1-.1-.2,0-.2.1s0,.3.1.3a8.79,8.79,0,0,0,1,.6c.1.1.2,0,.2-.1S426.2,80.4,426.1,80.3Z" transform="translate(0 0)"/><path class="cls-5" d="M426.3,79.2l-1-.5c-.1,0-.2,0-.2.1v.1c0,.1,0,.3.1.3l.7.4.3.2c.1,0,.2,0,.2-.1h0v-.1C426.5,79.4,426.4,79.2,426.3,79.2Z" transform="translate(0 0)"/><path class="cls-5" d="M426.5,78l-.5-.2-.5-.2c-.1,0-.2,0-.2.1h0c0,.1.1.3.2.3a4.67,4.67,0,0,1,1,.5c.1,0,.2,0,.2-.2v-.2A.31.31,0,0,0,426.5,78Z" transform="translate(0 0)"/><path class="cls-5" d="M426.4,78.6c-.3-.2-.7-.3-1-.5-.1,0-.2,0-.2.1v.1c0,.1.1.3.2.3l1,.5c.1.1.2,0,.2-.1S426.5,78.6,426.4,78.6Z" transform="translate(0 0)"/><path class="cls-5" d="M426.5,77.4l-1-.4c-.1,0-.2,0-.2.1s.1.3.2.3l.7.3.3.1c.1,0,.2,0,.2-.1v-.1S426.6,77.4,426.5,77.4Z" transform="translate(0 0)"/><path class="cls-5" d="M426.5,76.2,426,76l-.5-.2c-.1,0-.2,0-.2.2h0c0,.1.1.2.2.3l.5.2.5.2c.1,0,.2,0,.2-.2S426.6,76.3,426.5,76.2Z" transform="translate(0 0)"/><path class="cls-5" d="M426.5,76.8l-1-.4c-.1,0-.2,0-.2.2s.1.2.2.3l1,.4c.1,0,.2,0,.2-.2S426.6,76.8,426.5,76.8Z" transform="translate(0 0)"/><path class="cls-5" d="M426.5,75.6l-1.1-.3a.22.22,0,0,0-.2.2c0,.1.1.2.2.3l.8.2.3.1c.1,0,.2,0,.2-.1v-.1C426.7,75.8,426.6,75.7,426.5,75.6Z" transform="translate(0 0)"/><path class="cls-5" d="M426.5,74.5a.35.35,0,0,0-.2-.1l-.6-.1-.5-.1c-.1,0-.2,0-.2.1v.1h0c0,.1.1.2.2.3l1.1.2a.22.22,0,0,0,.2-.2C426.6,74.6,426.6,74.6,426.5,74.5Z" transform="translate(0 0)"/><path class="cls-5" d="M426.5,75l-1.1-.2a.22.22,0,0,0-.2.2c0,.1,0,.1.1.2a.1.1,0,0,0,.1.1l1.1.3a.22.22,0,0,0,.2-.2A.52.52,0,0,0,426.5,75Z" transform="translate(0 0)"/><path class="cls-5" d="M426.3,73.8l-.5-.1-.5-.1c-.1,0-.2,0-.2.1v.1a.22.22,0,0,0,.2.2l.4.1.4.1.3.1c.1,0,.2,0,.2-.1h0v-.1Z" transform="translate(0 0)"/><path class="cls-5" d="M425.1,73.1l1.1.1c.1,0,.2-.1.1-.2s-.1-.1-.1-.2a.35.35,0,0,0-.2-.1h-1.1c-.1,0-.1.1-.1.2V73h0A.77.77,0,0,1,425.1,73.1Z" transform="translate(0 0)"/><path class="cls-5" d="M425.2,73.6c.4,0,.7.1,1.1.1a.22.22,0,0,0,.2-.2q0-.15-.3-.3c-.4,0-.7-.1-1.1-.1a.22.22,0,0,0-.2.2h0Q425.05,73.6,425.2,73.6Z" transform="translate(0 0)"/><path class="cls-5" d="M424.7,72.5H426a.1.1,0,0,0,.1-.1h0v-.1c0-.1-.2-.2-.3-.2a4.1,4.1,0,0,0-1.1.1c-.1,0-.1.1-.1.2v.1C424.6,72.4,424.7,72.4,424.7,72.5Z" transform="translate(0 0)"/><path class="cls-5" d="M424.5,71.6l.5-.1a4.33,4.33,0,0,0,.5-.1c.1,0,.1-.1.1-.3s-.2-.2-.3-.2-.4.1-.6.1l-.5.1c-.1,0-.1.1-.1.2v.1h0A.4.4,0,0,0,424.5,71.6Z" transform="translate(0 0)"/><path class="cls-5" d="M424.7,72c.4,0,.7-.1,1.1-.1.1,0,.1,0,.1-.1v-.2c0-.1-.2-.2-.3-.2l-.5.1a4.33,4.33,0,0,0-.5.1c-.1,0-.1.1-.1.2S424.6,72.1,424.7,72Z" transform="translate(0 0)"/><path class="cls-5" d="M424.2,71.2a1.88,1.88,0,0,1,.8-.2l.3-.1c.1,0,.1-.1.1-.2v-.1c0-.1-.1-.1-.2-.1H425l-.5.2-.5.2c-.1,0-.1.1-.1.2h0A.37.37,0,0,0,424.2,71.2Z" transform="translate(0 0)"/><path class="cls-5" d="M423.9,70.8c.2-.1.3-.2.5-.2l.3-.1.3-.1.1-.1c0-.1,0-.1-.1-.2s-.2-.2-.4-.1l-.5.3-.2.1-.2.2-.1.1v.1Z" transform="translate(0 0)"/><path class="cls-5" d="M422.9,70.3a.37.37,0,0,0,.3-.1l.3-.3.3-.3.2-.2c.1,0,.1-.1,0-.2h0l-.1-.1c-.1,0-.1-.1-.2-.1s-.1,0-.2.1l-.4.4a1.38,1.38,0,0,1-.3.4C422.8,70.1,422.8,70.2,422.9,70.3Z" transform="translate(0 0)"/><path class="cls-5" d="M423.2,70.5h.2c.1,0,.1,0,.1-.1a2.19,2.19,0,0,1,.5-.3c.2-.1.3-.2.5-.3s.1-.2,0-.3a.6.6,0,0,0-.4-.1,1.76,1.76,0,0,0-.5.4c-.1.1-.3.2-.4.4,0,0-.1.1,0,.1Z" transform="translate(0 0)"/><path class="cls-5" d="M422.5,70.2h.1a.1.1,0,0,0,.1-.1l.2-.2c0-.1.1-.1.2-.2a.78.78,0,0,1,.4-.4c.1-.1,0-.2-.1-.3h-.2c-.1,0-.1,0-.2.1a8.79,8.79,0,0,0-.6,1Z" transform="translate(0 0)"/><path class="cls-5" d="M422,70.1h0a.22.22,0,0,0,.2-.2c.1-.2.1-.4.2-.5s.2-.3.3-.5v-.1a.35.35,0,0,0-.2-.1h-.2a.1.1,0,0,0-.1.1,1.42,1.42,0,0,0-.2.6c-.1.2-.1.3-.2.5S421.9,70.1,422,70.1Z" transform="translate(0 0)"/><path class="cls-5" d="M421.6,70.1c.1,0,.1,0,.1-.1l.1-.1c.1-.3.1-.5.2-.8,0-.1.1-.2.1-.3s0-.2-.1-.2h0c-.1,0-.3.1-.3.2a5.16,5.16,0,0,0-.2,1.1c-.1.1,0,.2.1.2Z" transform="translate(0 0)"/><path class="cls-5" d="M420.9,70.1v-.2a2.77,2.77,0,0,1,.1-.9c0-.1,0-.1-.1-.1h-.2q-.15,0-.3.3v1.1c0,.1.1.1.2.1h0Q420.9,70.25,420.9,70.1Z" transform="translate(0 0)"/><path class="cls-5" d="M420.4,69.1c0-.1,0-.1-.1-.2H420V69c0,.1-.1.1-.1.2v1.2c0,.1.1.1.2.1h0a.37.37,0,0,0,.1-.3v-.8l.2-.3Z" transform="translate(0 0)"/><path class="cls-5" d="M421.6,68.8a.22.22,0,0,0-.2-.2c-.1,0-.1,0-.2.1a.35.35,0,0,0-.1.2c0,.3-.1.7-.1,1V70a.22.22,0,0,0,.2.2h0a.1.1,0,0,0,.1-.1.35.35,0,0,0,.1-.2,1.27,1.27,0,0,1,.1-.6C421.6,69.1,421.5,69,421.6,68.8Z" transform="translate(0 0)"/><path class="cls-5" d="M419,69.5l.3.3v-.3C419.3,69.4,419.1,69.5,419,69.5Z" transform="translate(0 0)"/><path class="cls-5" d="M419.8,69.3c0-.1-.1-.2-.2-.1s-.2.1-.2.2v.1a.9.9,0,0,0,.1.5l.5.6v-.1a.6.6,0,0,0-.1-.4A1.72,1.72,0,0,1,419.8,69.3Z" transform="translate(0 0)"/><path class="cls-5" d="M418.4,70.1h0v.2c0,.1.1.2.1.3a.35.35,0,0,0,.1.2,1.38,1.38,0,0,0,.3.4l.1.1a.1.1,0,0,0,.1-.1V71l-.7-.8Z" transform="translate(0 0)"/><path class="cls-5" d="M417.8,71a.1.1,0,0,0-.1.1v.3c0,.1,0,.1.1.2s.3.2.5.3a.76.76,0,0,0,.5.2c.1,0,.2,0,.2-.1h0a.37.37,0,0,0-.1-.3l-.2-.2-.2-.2-.4-.4c-.2.1-.2.1-.3.1Z" transform="translate(0 0)"/><path class="cls-5" d="M417.6,71.7l-.1.1v.1a.6.6,0,0,0,.1.4l.3.1.3.1c.2.1.4.1.5.2s.2,0,.2-.1v-.1c0-.1,0-.1-.1-.2l-.1-.1-.4-.2-.4-.2-.3-.2C417.7,71.7,417.6,71.7,417.6,71.7Z" transform="translate(0 0)"/><path class="cls-5" d="M418,70.5a.35.35,0,0,1-.1.2v.2a.78.78,0,0,0,.4.4c.1.1.3.2.4.4a.14.14,0,0,0,.2,0v-.1c0-.1,0-.1-.1-.1s-.2-.3-.4-.4-.2-.3-.3-.5C418.2,70.4,418.1,70.4,418,70.5Z" transform="translate(0 0)"/><path class="cls-5" d="M418.7,73.3c-.4-.1-.7-.1-1.1-.2a.22.22,0,0,0-.2.2c0,.1,0,.1.1.2a.35.35,0,0,0,.2.1l.6.1.5.1a.35.35,0,0,0,.2-.1v-.1h0A.27.27,0,0,0,418.7,73.3Z" transform="translate(0 0)"/><path class="cls-5" d="M417.5,72.8a.1.1,0,0,0,.1.1,4.25,4.25,0,0,0,1.1.2.2.2,0,0,0,0-.4,4.33,4.33,0,0,1-.5-.1l-.5-.2c-.1,0-.2,0-.2.2A.14.14,0,0,0,417.5,72.8Z" transform="translate(0 0)"/><path class="cls-5" d="M417.9,74.2l1.1.1c.1,0,.2-.1.1-.2s-.1-.2-.3-.2a2.2,2.2,0,0,1-.8-.1h-.3c-.1,0-.1,0-.2.1h0V74C417.6,74.1,417.7,74.1,417.9,74.2Z" transform="translate(0 0)"/><path class="cls-5" d="M419.1,74.8H418c-.1,0-.2.1-.1.2s.1.2.3.2h1.1c.1,0,.2-.1.1-.2h0A1.24,1.24,0,0,0,419.1,74.8Z" transform="translate(0 0)"/><path class="cls-5" d="M418,74.8h1.1c.1,0,.2-.1.1-.2s-.1-.2-.3-.2a4.1,4.1,0,0,1-1.1-.1c-.1,0-.2.1-.1.2Z" transform="translate(0 0)"/><path class="cls-5" d="M419.5,75.8c.1,0,.2-.1.1-.2s-.1-.2-.3-.2h-1.1c-.1,0-.1.1-.2.1h0v.1c0,.1.1.2.3.2Z" transform="translate(0 0)"/><path class="cls-5" d="M418.7,76.9h1.1c.1,0,.2-.1.1-.2h0c0-.1-.1-.2-.3-.2h-1.1c-.1,0-.2.1-.1.2S418.6,76.9,418.7,76.9Z" transform="translate(0 0)"/><path class="cls-5" d="M418.5,76.4h1.1c.1,0,.2-.1.1-.2s-.2-.2-.3-.2h-1.1c-.1,0-.2.1-.1.2S418.4,76.4,418.5,76.4Z" transform="translate(0 0)"/><path class="cls-5" d="M418.9,77.5H420c.1,0,.2-.1.1-.2s-.1-.2-.3-.2h-1.1a.1.1,0,0,0-.1.1h0v.1C418.6,77.4,418.8,77.5,418.9,77.5Z" transform="translate(0 0)"/><path class="cls-5" d="M420.2,78.2a4.1,4.1,0,0,1-1.1-.1c-.1,0-.2.1-.1.2s.1.2.3.2l.6.1h.5c.1,0,.2-.1.1-.2h0C420.4,78.3,420.3,78.2,420.2,78.2Z" transform="translate(0 0)"/><path class="cls-5" d="M419,78a4.1,4.1,0,0,1,1.1.1c.1,0,.2-.1.1-.2s-.1-.2-.3-.2h-1.1c-.1,0-.2.1-.1.2S418.9,78,419,78Z" transform="translate(0 0)"/><path class="cls-5" d="M420.3,78.8l-.8-.1h-.3a.1.1,0,0,0-.1.1h0v.1a.22.22,0,0,0,.2.2c.4,0,.7.1,1.1.1a.22.22,0,0,0,.2-.2C420.6,78.9,420.5,78.8,420.3,78.8Z" transform="translate(0 0)"/><path class="cls-5" d="M420.5,79.9l-.5-.1-.5-.1c-.1,0-.2,0-.2.1v.1c0,.1.1.2.2.3l.6.1.5.1a.22.22,0,0,0,.2-.2h0Z" transform="translate(0 0)"/><path class="cls-5" d="M420.4,79.3c-.4-.1-.7-.1-1.1-.2a.2.2,0,1,0,0,.4c.4.1.7.1,1.1.2a.22.22,0,0,0,.2-.2C420.7,79.5,420.6,79.4,420.4,79.3Z" transform="translate(0 0)"/><path class="cls-5" d="M420.6,80.5c-.3-.1-.5-.1-.8-.2l-.3-.1c-.1,0-.2,0-.2.1h0v.1c0,.1.1.2.2.3l.5.2.5.2a.22.22,0,0,0,.2-.2C420.8,80.7,420.7,80.6,420.6,80.5Z" transform="translate(0 0)"/><path class="cls-5" d="M420.6,81.1a4.87,4.87,0,0,1-1.1-.4.22.22,0,0,0-.2.2c0,.1,0,.1.1.2l.1.1a10.37,10.37,0,0,1,1,.4c.1.1.2,0,.2-.2S420.7,81.2,420.6,81.1Z" transform="translate(0 0)"/><path class="cls-5" d="M420.7,82.1h0a.4.4,0,0,0-.2-.4c-.3-.1-.7-.3-1-.4-.1,0-.2,0-.2.1s.1.2.2.3l.5.2c.2.1.3.2.5.2C420.6,82.3,420.7,82.3,420.7,82.1Z" transform="translate(0 0)"/><path class="cls-5" d="M420.6,82.8a.6.6,0,0,0-.1-.4c-.2-.1-.5-.3-.7-.4l-.3-.1h-.2V82a.37.37,0,0,0,.1.3,8.79,8.79,0,0,0,1,.6C420.5,82.9,420.6,82.9,420.6,82.8Z" transform="translate(0 0)"/><path class="cls-5" d="M420.5,83.3v-.2c0-.1,0-.1-.1-.2-.3-.2-.7-.4-1-.6-.1-.1-.2,0-.2.1a.37.37,0,0,0,.1.3l.2.1.2.2a2.19,2.19,0,0,0,.5.3C420.4,83.4,420.5,83.5,420.5,83.3Z" transform="translate(0 0)"/><path class="cls-5" d="M420,84.6a.3.3,0,0,0,0-.4l-.6-.6-.2-.2c0-.1-.1-.1-.2,0h0v.3c0,.1,0,.1.1.1l.8.8C419.9,84.8,420,84.7,420,84.6Z" transform="translate(0 0)"/><path class="cls-5" d="M420.3,84h0v-.2c0-.1,0-.1-.1-.2-.3-.2-.6-.5-.9-.7h-.1l-.1.1a.37.37,0,0,0,.1.3l.5.4.4.4C420.1,84.2,420.2,84.1,420.3,84Z" transform="translate(0 0)"/><path class="cls-5" d="M419.7,85.1a.3.3,0,0,0,0-.4c-.1-.1-.2-.3-.4-.4s-.2-.3-.4-.4c0-.1-.1-.1-.2,0h0a.19.19,0,0,0,0,.3c.1.1.2.3.4.4s.2.3.3.5S419.7,85.3,419.7,85.1Z" transform="translate(0 0)"/><path class="cls-5" d="M419,86.1a.6.6,0,0,0,.1-.4c-.1-.2-.3-.5-.4-.7l-.2-.3c-.1-.1-.1-.1-.2,0h0a.19.19,0,0,0,0,.3c.1.2.2.3.3.5s.2.3.2.5S418.9,86.2,419,86.1Z" transform="translate(0 0)"/><path class="cls-5" d="M419.4,85.7h0a.3.3,0,0,0,0-.4c-.1-.2-.2-.3-.3-.5l-.4-.4c0-.1-.1-.1-.2,0h0a.19.19,0,0,0,0,.3l.3.5a2.19,2.19,0,0,1,.3.5C419.2,85.9,419.3,85.8,419.4,85.7Z" transform="translate(0 0)"/><path class="cls-5" d="M418.5,86.6c.1,0,.1-.1.1-.2v-.2c-.2-.3-.3-.7-.5-1,0-.1-.1-.1-.2,0h0a.19.19,0,0,0,0,.3l.1.3.1.3.2.5C418.3,86.7,418.4,86.7,418.5,86.6Z" transform="translate(0 0)"/><path class="cls-5" d="M418.1,87h0c.1,0,.1-.1.1-.2v-.2c-.1-.4-.3-.7-.4-1.1,0-.1-.1-.1-.2,0h0a.37.37,0,0,0-.1.3c.1.2.1.4.2.6s.1.3.2.5S418,87.1,418.1,87Z" transform="translate(0 0)"/><path class="cls-5" d="M417.6,87.3c.1,0,.1-.1.1-.2v-.2a2.35,2.35,0,0,1-.2-.8l-.1-.3c0-.1-.1-.1-.2-.1h0a.37.37,0,0,0-.1.3c.1.4.2.7.3,1.1S417.5,87.4,417.6,87.3Z" transform="translate(0 0)"/><path class="cls-5" d="M416.7,86.1a.37.37,0,0,0-.1.3,5.16,5.16,0,0,1,.2,1.1c0,.1.1.1.2.1s.2-.2.2-.3c-.1-.4-.2-.8-.3-1.1.1-.1,0-.1-.2-.1Z" transform="translate(0 0)"/><path class="cls-5" d="M416.6,88c.1-.1.2-.2.2-.3-.1-.4-.1-.8-.2-1.1,0-.1-.1-.1-.2-.1h-.1c-.1.1-.2.2-.1.3s.1.4.1.6l.1.5c-.1.1,0,.1.2.1Z" transform="translate(0 0)"/><path class="cls-5" d="M416.2,87.9c0-.3-.1-.6-.1-.8v-.3a.1.1,0,0,0-.1-.1h0c-.1.1-.2.2-.2.3,0,.4.1.8.1,1.1,0,.1.1.2.2.1S416.2,88.1,416.2,87.9Z" transform="translate(0 0)"/><path class="cls-5" d="M414.9,87.1c-.1,0-.2.2-.2.3v1.1c0,.1.1.2.2.1h0c.1,0,.1-.1.2-.1s.1-.1.1-.2V87.1c0-.1,0-.2-.1-.2S415,87.1,414.9,87.1Z" transform="translate(0 0)"/><path class="cls-5" d="M414.5,87.3h0a.32.32,0,0,0-.3.3,3.75,3.75,0,0,1-.1,1.1c0,.1.1.2.2.1s.2-.2.2-.3V87.4c.1-.1.1-.1,0-.1Z" transform="translate(0 0)"/><path class="cls-5" d="M415.4,86.9c-.1.1-.2.2-.2.3v1.1c0,.1.1.2.2.1s.2-.2.2-.3a3.75,3.75,0,0,0-.1-1.1c.1-.1,0-.1-.1-.1Z" transform="translate(0 0)"/><path class="cls-5" d="M413.1,87.8c0-.1,0-.2-.1-.2h-.1a.22.22,0,0,0-.2.2c-.1.4-.1.8-.2,1.1a.22.22,0,0,0,.2.2c.1,0,.2-.1.3-.2,0-.3.1-.6.1-.8Z" transform="translate(0 0)"/><path class="cls-5" d="M413.5,87.6c-.1,0-.2.1-.2.3a1.27,1.27,0,0,1-.1.6c-.1.2,0,.4-.1.5s.1.2.2.2h0q.15,0,.3-.3c0-.4.1-.8.1-1.1s-.1-.2-.2-.2Z" transform="translate(0 0)"/><path class="cls-5" d="M414,87.4c-.1,0-.2.1-.2.3v.6a1.27,1.27,0,0,1-.1.6c0,.1,0,.2.1.2h.1q.15,0,.3-.3a3.75,3.75,0,0,1,.1-1.1c0-.1,0-.2-.1-.2A.31.31,0,0,0,414,87.4Z" transform="translate(0 0)"/><path class="cls-5" d="M411.6,88.1c0-.1,0-.2-.1-.2h-.1c-.1,0-.1,0-.2.1a.1.1,0,0,0-.1.1c-.1.4-.2.7-.3,1.1,0,.1,0,.2.2.2s.3-.1.3-.2c.1-.3.1-.5.2-.8Z" transform="translate(0 0)"/><path class="cls-5" d="M411.9,87.8c-.1,0-.2.1-.3.2l-.1.6c0,.2-.1.3-.1.5s0,.2.2.2h0c.1,0,.2-.1.3-.2a5.16,5.16,0,0,0,.2-1.1c0-.1,0-.2-.2-.2Z" transform="translate(0 0)"/><path class="cls-5" d="M412.4,87.8c-.1,0-.2.1-.3.2-.1.4-.1.8-.2,1.1a.22.22,0,0,0,.2.2c.1,0,.2-.1.3-.2.1-.4.1-.8.2-1.1,0-.1,0-.2-.2-.2Z" transform="translate(0 0)"/><path class="cls-5" d="M410,88.1c0-.1,0-.2-.1-.2h-.1c-.1,0-.2.1-.3.2-.1.4-.3.7-.4,1.1,0,.1,0,.2.1.2s.3-.1.3-.2c.1-.3.2-.5.3-.8Z" transform="translate(0 0)"/><path class="cls-5" d="M410.3,87.9c-.1,0-.2.1-.3.2l-.2.6c-.1.2-.1.3-.2.5s0,.2.1.2h.1c.1,0,.3-.1.3-.2a4.87,4.87,0,0,1,.4-1.1.22.22,0,0,0-.2-.2Z" transform="translate(0 0)"/><path class="cls-5" d="M410.9,87.9c-.1,0-.2.1-.3.2a4.87,4.87,0,0,1-.4,1.1c0,.1,0,.2.2.2s.1,0,.2-.1a.1.1,0,0,0,.1-.1c.1-.4.2-.7.3-1.1.1-.1,0-.2-.1-.2Z" transform="translate(0 0)"/><path class="cls-5" d="M408.8,87.8h-.2a.1.1,0,0,0-.1.1l-.3.6-.2.5c0,.1,0,.2.1.2h.1c.1,0,.3,0,.3-.2.2-.4.3-.7.5-1.1A.35.35,0,0,0,408.8,87.8Z" transform="translate(0 0)"/><path class="cls-5" d="M408.4,88c0-.1,0-.2-.1-.2h-.1c-.1,0-.3,0-.3.2-.2.3-.3.7-.5,1,0,.1,0,.2.1.2s.3,0,.3-.1l.4-.7Z" transform="translate(0 0)"/><path class="cls-5" d="M409.4,88.1c0-.1,0-.2-.1-.2h-.1c-.1,0-.2.1-.3.2a3.13,3.13,0,0,1-.5,1c0,.1,0,.2.1.2s.3-.1.3-.2.1-.4.2-.5Z" transform="translate(0 0)"/><path class="cls-5" d="M407.3,87.8v-.2h-.1c-.1,0-.3,0-.3.1l-.3.5a2.19,2.19,0,0,0-.3.5c-.1.2,0,.2.1.2h0c.1,0,.3,0,.3-.1l.3-.5A2.19,2.19,0,0,1,407.3,87.8Z" transform="translate(0 0)"/><path class="cls-5" d="M406.8,87.7v-.2h-.3a.1.1,0,0,0-.1.1,8.79,8.79,0,0,0-.6,1c0,.1,0,.2.1.2h.1a.6.6,0,0,0,.4-.1l.4-.7Z" transform="translate(0 0)"/><path class="cls-5" d="M407.7,87.6a.37.37,0,0,0-.3.1c-.2.3-.4.7-.6,1,0,.1,0,.2.1.2h.1c.1,0,.3,0,.3-.1a4.67,4.67,0,0,0,.5-1c.1,0,.1-.1-.1-.2C407.8,87.7,407.8,87.6,407.7,87.6Z" transform="translate(0 0)"/><path class="cls-5" d="M405.3,87.2c.1-.1.1-.2,0-.2h-.1a.37.37,0,0,0-.3.1l-.7.9c-.1.1-.1.2,0,.2h.1a.6.6,0,0,0,.4-.1l.5-.7Z" transform="translate(0 0)"/><path class="cls-5" d="M405.7,87.1c-.1,0-.3,0-.3.1l-.4.5c-.1.1-.2.3-.3.4a.14.14,0,0,0,0,.2h.1a.6.6,0,0,0,.4-.1l.6-.9a.31.31,0,0,0-.1-.2Z" transform="translate(0 0)"/><path class="cls-5" d="M406.2,87.3c-.1,0-.3,0-.3.1l-.6.9a.14.14,0,0,0,0,.2h.1a.6.6,0,0,0,.4-.1,8.79,8.79,0,0,0,.6-1c-.1,0-.1-.1-.2-.1Z" transform="translate(0 0)"/><path class="cls-5" d="M403.8,86.6c.1,0,.1-.1,0-.2h0a.19.19,0,0,0-.3.1,3,3,0,0,1-.8.8c-.1.1,0,.2.1.3s.3,0,.4-.1l.5-.6Z" transform="translate(0 0)"/><path class="cls-5" d="M404.2,86.6a.37.37,0,0,0-.3.1l-.4.5-.4.4c-.1.1-.1.2,0,.2h.1a.6.6,0,0,0,.4-.1c.2-.3.5-.6.7-.9,0-.1,0-.2-.1-.2Z" transform="translate(0 0)"/><path class="cls-5" d="M404.7,86.8c-.1,0-.3,0-.3.1-.2.3-.5.6-.7.9-.1.1-.1.2,0,.2h.3c.1,0,.1,0,.2-.1l.7-.9c-.1-.1-.1-.2-.2-.2Z" transform="translate(0 0)"/><path class="cls-5" d="M402.8,85.9a.19.19,0,0,0-.3,0l-.4.4-.4.4a.19.19,0,0,0,0,.3h0a.3.3,0,0,0,.4,0l.8-.8a.37.37,0,0,1-.1-.3Z" transform="translate(0 0)"/><path class="cls-5" d="M402.3,85.9c.1-.1.1-.2,0-.2h0a.19.19,0,0,0-.3,0l-.8.8a.19.19,0,0,0,0,.3.3.3,0,0,0,.4,0l.6-.6Z" transform="translate(0 0)"/><path class="cls-5" d="M403.2,86.1c-.1-.1-.3,0-.4.1a6,6,0,0,1-.8.8c-.1.1,0,.2.1.3h.2c.1,0,.1,0,.2-.1a6,6,0,0,1,.8-.8.37.37,0,0,0-.1-.3Z" transform="translate(0 0)"/><path class="cls-5" d="M401.4,85c-.1-.1-.2-.1-.4,0l-.5.4-.4.3a.19.19,0,0,0,0,.3.3.3,0,0,0,.4,0c.3-.2.6-.5.9-.7a.19.19,0,0,0,0-.3Z" transform="translate(0 0)"/><path class="cls-5" d="M401,85c.1-.1.1-.2,0-.2v-.1a.19.19,0,0,0-.3,0,5.5,5.5,0,0,0-.9.7.19.19,0,0,0,0,.3.3.3,0,0,0,.4,0l.6-.5Z" transform="translate(0 0)"/><path class="cls-5" d="M401.8,85.3a.19.19,0,0,0-.3,0,5.5,5.5,0,0,1-.9.7.19.19,0,0,0,0,.3.3.3,0,0,0,.4,0,5.72,5.72,0,0,0,.8-.7.19.19,0,0,0,0-.3Z" transform="translate(0 0)"/><path class="cls-5" d="M400.1,84.3c.1-.1.1-.2,0-.2h0a.19.19,0,0,0-.3,0l-.5.3-.5.3a.19.19,0,0,0,0,.3h0c.1.1.2.1.4.1l.5-.3Z" transform="translate(0 0)"/><path class="cls-5" d="M400.5,84.4a.19.19,0,0,0-.3,0l-.9.6a.19.19,0,0,0,0,.3c.1.1.2.1.4,0l.9-.6a.37.37,0,0,0-.1-.3Z" transform="translate(0 0)"/><path class="cls-5" d="M399.5,84.1l.3-.2c.1-.1.1-.2,0-.2v-.1a.19.19,0,0,0-.3,0,8.79,8.79,0,0,1-1,.6.19.19,0,0,0,0,.3c.1.1.2.1.4.1Z" transform="translate(0 0)"/><path class="cls-5" d="M398.9,83.2c.1-.1.1-.2,0-.2h0a.37.37,0,0,0-.3-.1l-.5.3-.5.2c-.1,0-.1.2,0,.3h0c.1.1.2.1.4.1Z" transform="translate(0 0)"/><path class="cls-5" d="M399.3,83.6a.19.19,0,0,0,0-.3.37.37,0,0,0-.3-.1l-1,.5c-.1,0-.1.2,0,.3s.2.1.4.1A4.05,4.05,0,0,0,399.3,83.6Z" transform="translate(0 0)"/><path class="cls-5" d="M398.3,83l.3-.1c.1,0,.1-.1.1-.2v-.1a.35.35,0,0,0-.2-.1h-.2c-.3.1-.7.3-1,.4-.1,0-.1.2,0,.3s.2.1.4.1Z" transform="translate(0 0)"/><path class="cls-5" d="M397.8,82c.1,0,.1-.1.1-.2h0a.37.37,0,0,0-.3-.1l-.6.2-.5.2q-.15,0,0,.3c.1.1.2.2.3.1Z" transform="translate(0 0)"/><path class="cls-5" d="M398.2,82.4c.1-.1.1-.2,0-.2h0a.37.37,0,0,0-.3-.1c-.3.1-.7.3-1,.4-.1,0-.1.2,0,.3a.37.37,0,0,0,.3.1Z" transform="translate(0 0)"/><path class="cls-5" d="M397.2,81.7l.3-.1c.1,0,.1-.1.1-.2h0v-.1a.37.37,0,0,0-.3-.1l-1,.4c-.1,0-.1.1-.1.2v.1c0,.1.1.1.2.1h.2Z" transform="translate(0 0)"/><path class="cls-5" d="M395.8,81l1.1-.3c.1,0,.1-.1.1-.2s-.2-.2-.3-.1l-.6.2-.5.1c-.1,0-.1.1-.1.3h.3Z" transform="translate(0 0)"/><path class="cls-5" d="M396.1,81.5l1.1-.4c.1,0,.1-.1.1-.2h0c-.1-.1-.2-.2-.3-.1l-1.1.3c-.1,0-.1.1-.1.3C395.9,81.4,396,81.5,396.1,81.5Z" transform="translate(0 0)"/><path class="cls-5" d="M395.5,80.5l.8-.2.3-.1c.1,0,.1-.1.1-.2h0v-.1c-.1-.1-.2-.2-.3-.1l-1.1.3c-.1,0-.1.1-.1.2S395.4,80.5,395.5,80.5Z" transform="translate(0 0)"/><path class="cls-5" d="M394.9,79.5l1.1-.2c.1,0,.1-.1.1-.2V79c-.1-.1-.2-.2-.3-.2l-.6.1-.5.1c-.1,0-.2.1-.1.2h0Q394.75,79.5,394.9,79.5Z" transform="translate(0 0)"/><path class="cls-5" d="M395.2,80l1.1-.2c.1,0,.1-.1.1-.2v-.1c-.1-.1-.2-.2-.3-.1l-1.1.2c-.1,0-.1.1-.1.2S395.1,80,395.2,80Z" transform="translate(0 0)"/><path class="cls-5" d="M394.6,79l.8-.1.3-.1c.1,0,.1-.1.1-.2h0v-.1c-.1-.1-.2-.2-.3-.2l-1.1.2c-.1,0-.2.1-.1.2S394.5,79,394.6,79Z" transform="translate(0 0)"/><path class="cls-5" d="M395.2,77.8c.1,0,.2-.1.1-.2s-.2-.2-.3-.2l-.6.1H394c-.1,0-.2.1-.1.2h0c.1.1.2.2.3.2Z" transform="translate(0 0)"/><path class="cls-5" d="M394.4,78.4c.4,0,.7-.1,1.1-.1.1,0,.1-.1.1-.2V78c-.1-.1-.2-.2-.3-.2l-1.1.1c-.1,0-.2.1-.1.2C394.1,78.4,394.3,78.4,394.4,78.4Z" transform="translate(0 0)"/><path class="cls-5" d="M394.7,77.3h.3c.1,0,.1-.1.1-.2V77c0-.1-.2-.2-.3-.2l-1.1.1c-.1,0-.2.1-.1.2s.2.2.3.2Z" transform="translate(0 0)"/><path class="cls-5" d="M394.6,76.2c.1,0,.2-.1.1-.2s-.2-.2-.3-.2h-1.1c-.1,0-.2.1-.1.2h0c0,.1.1.2.3.2Z" transform="translate(0 0)"/><path class="cls-5" d="M394.8,76.8c.1,0,.1-.1.1-.2v-.1c0-.1-.2-.2-.3-.2h-1.1c-.1,0-.2.1-.1.2s.2.2.3.2Z" transform="translate(0 0)"/><path class="cls-5" d="M394.1,75.7h.3a.35.35,0,0,0,.2-.1h0v-.1c0-.1-.2-.2-.3-.2h-1.1c-.1,0-.2.1-.1.2s.1.2.3.2Z" transform="translate(0 0)"/><path class="cls-5" d="M394.1,74.6c.1,0,.2-.1.1-.2s-.1-.2-.3-.2h-1.1c-.1,0-.2.1-.1.2h0q0,.15.3.3A4.48,4.48,0,0,1,394.1,74.6Z" transform="translate(0 0)"/><path class="cls-5" d="M394.3,75.2c.1,0,.2-.1.1-.2s-.1-.2-.3-.2a4.1,4.1,0,0,1-1.1-.1c-.1,0-.2.1-.1.2s.1.2.3.2Z" transform="translate(0 0)"/><path class="cls-5" d="M393.7,74.1h.3a.1.1,0,0,0,.1-.1h0v-.1a.22.22,0,0,0-.2-.2l-1.1-.1c-.1,0-.2.1-.1.2s.1.2.3.3Z" transform="translate(0 0)"/><path class="cls-5" d="M393.7,73a.2.2,0,0,0,0-.4l-.6-.1-.5-.1a.22.22,0,0,0-.2.2h0c0,.1.1.2.2.3Z" transform="translate(0 0)"/><path class="cls-5" d="M393.9,73.5c.1,0,.2-.1.1-.2a.22.22,0,0,0-.2-.2l-1.1-.1c-.1,0-.2.1-.1.2s.1.2.2.3Z" transform="translate(0 0)"/><path class="cls-5" d="M393.3,72.4h.3c.1,0,.2,0,.2-.1h0v-.1c0-.1-.1-.2-.2-.3l-1.1-.2a.22.22,0,0,0-.2.2c0,.1.1.2.2.3Z" transform="translate(0 0)"/><path class="cls-5" d="M392.4,71.1l1.1.2a.22.22,0,0,0,.2-.2c0-.1-.1-.2-.2-.3l-.6-.1-.5-.1a.22.22,0,0,0-.2.2h0C392.2,70.9,392.3,71,392.4,71.1Z" transform="translate(0 0)"/><path class="cls-5" d="M392.5,71.7c.4.1.7.1,1.1.2a.22.22,0,0,0,.2-.2c0-.1-.1-.2-.2-.3-.4-.1-.7-.1-1.1-.2a.22.22,0,0,0-.2.2C392.2,71.5,392.3,71.6,392.5,71.7Z" transform="translate(0 0)"/><path class="cls-5" d="M392.3,70.5l.8.2.3.1c.1,0,.2,0,.2-.1h0v-.1c0-.1-.1-.2-.2-.3l-1.1-.3a.22.22,0,0,0-.2.2C392.1,70.3,392.2,70.5,392.3,70.5Z" transform="translate(0 0)"/><path class="cls-5" d="M392.3,69.3l1.1.3a.22.22,0,0,0,.2-.2c0-.1-.1-.2-.2-.3l-.6-.2-.5-.2c-.1,0-.2,0-.2.2h0C392.1,69.2,392.2,69.3,392.3,69.3Z" transform="translate(0 0)"/><path class="cls-5" d="M392.3,69.9l1.1.3a.22.22,0,0,0,.2-.2c0-.1-.1-.2-.2-.3l-1.1-.3c-.1,0-.2,0-.2.2S392.2,69.9,392.3,69.9Z" transform="translate(0 0)"/><path class="cls-5" d="M392.3,68.8l.8.3.3.1c.1,0,.1,0,.2-.1h0V69c0-.1-.1-.2-.2-.3l-1-.4c-.1,0-.2,0-.2.2S392.2,68.7,392.3,68.8Z" transform="translate(0 0)"/><path class="cls-5" d="M392.3,67.6l1,.4c.1,0,.2,0,.2-.2s-.1-.2-.2-.3l-.5-.2-.5-.2c-.1-.1-.2,0-.2.2h0C392.1,67.4,392.2,67.5,392.3,67.6Z" transform="translate(0 0)"/><path class="cls-5" d="M392.3,68.2l1,.4c.1,0,.2,0,.2-.2s-.1-.2-.2-.3l-1-.4c-.1-.1-.2,0-.2.2S392.2,68.1,392.3,68.2Z" transform="translate(0 0)"/><path class="cls-5" d="M392.3,67l.7.3.3.1c.1,0,.2,0,.2-.1h0v-.1c0-.1-.1-.2-.2-.3l-1-.5c-.1-.1-.2,0-.2.2A.52.52,0,0,0,392.3,67Z" transform="translate(0 0)"/><path class="cls-5" d="M392.5,65.8l1,.5c.1,0,.2,0,.2-.1v-.1c0-.1,0-.3-.1-.3l-.5-.3-.5-.2c-.1-.1-.2,0-.2.1h0A.25.25,0,0,0,392.5,65.8Z" transform="translate(0 0)"/><path class="cls-5" d="M392.4,66.4c.3.2.7.3,1,.5.1,0,.2,0,.2-.1v-.1c0-.1-.1-.3-.2-.3l-1-.5c-.1-.1-.2,0-.2.1A.52.52,0,0,0,392.4,66.4Z" transform="translate(0 0)"/><path class="cls-5" d="M392.5,65.2c.2.1.5.3.7.4l.3.1c.1,0,.2,0,.2-.1h0v-.1c0-.1,0-.3-.1-.3l-1-.6c-.1-.1-.2,0-.2.1A.4.4,0,0,0,392.5,65.2Z" transform="translate(0 0)"/><path class="cls-5" d="M392.7,64a8.79,8.79,0,0,0,1,.6c.1.1.2,0,.2-.1s0-.3-.1-.3l-.5-.3-.4-.3c-.1-.1-.2,0-.2.1h0C392.6,63.8,392.6,64,392.7,64Z" transform="translate(0 0)"/><path class="cls-5" d="M392.6,64.6a8.79,8.79,0,0,0,1,.6c.1,0,.2,0,.2-.1V65c0-.1,0-.3-.1-.3l-1-.6c-.1-.1-.2,0-.2.1S392.5,64.6,392.6,64.6Z" transform="translate(0 0)"/><path class="cls-5" d="M392.9,63.5l.7.4.3.2h.2V64c0-.1,0-.3-.1-.3l-1-.7c-.1-.1-.2,0-.2.1S392.7,63.4,392.9,63.5Z" transform="translate(0 0)"/><path class="cls-5" d="M393.1,62.3a5.5,5.5,0,0,1,.9.7c.1.1.2,0,.2-.1a.6.6,0,0,0-.1-.4l-.5-.4-.4-.3c-.1-.1-.2,0-.2.1h0C393,62.1,393.1,62.2,393.1,62.3Z" transform="translate(0 0)"/><path class="cls-5" d="M393,62.9l.9.6c.1.1.2,0,.2-.1v-.2a.1.1,0,0,0-.1-.1,5.5,5.5,0,0,1-.9-.7c-.1-.1-.2,0-.2.1S392.9,62.8,393,62.9Z" transform="translate(0 0)"/><path class="cls-5" d="M393.3,61.8l.6.5.2.2c.1.1.1.1.2,0h0v-.1a.6.6,0,0,0-.1-.4c-.3-.2-.6-.5-.9-.7-.1-.1-.2,0-.2.1S393.2,61.7,393.3,61.8Z" transform="translate(0 0)"/><path class="cls-5" d="M394.6,61.4c.1.1.2,0,.2-.1a.6.6,0,0,0-.1-.4l-.5-.4-.4-.4c-.1-.1-.2,0-.2.1h0a.6.6,0,0,0,.1.4Z" transform="translate(0 0)"/><path class="cls-5" d="M394.4,61.9c.1.1.2,0,.2-.1a.6.6,0,0,0-.1-.4l-.4-.4-.4-.4c-.1-.1-.2,0-.2.1a.6.6,0,0,0,.1.4Z" transform="translate(0 0)"/><path class="cls-5" d="M394.5,60.7l.2.2c.1.1.1.1.2,0h0a.6.6,0,0,0-.1-.4,6,6,0,0,1-.8-.8c-.1-.1-.2,0-.2.1a.6.6,0,0,0,.1.4A2.65,2.65,0,0,1,394.5,60.7Z" transform="translate(0 0)"/><path class="cls-5" d="M395.2,59.9c.1.1.2.1.2-.1v-.4L395,59l-.4-.4c-.2-.2-.2-.1-.2.1h0a.3.3,0,0,0,0,.4Z" transform="translate(0 0)"/><path class="cls-5" d="M395,60.4c.1.1.2,0,.2-.1s0-.3-.1-.4l-.8-.8c-.1-.1-.2-.1-.2.1a.3.3,0,0,0,0,.4A6.47,6.47,0,0,1,395,60.4Z" transform="translate(0 0)"/><path class="cls-5" d="M395.2,59.1l.2.2c0,.1.1.1.2,0h0v-.1a.3.3,0,0,0,0-.4l-.8-.9c-.1-.1-.2-.1-.2,0a.3.3,0,0,0,0,.4A1.83,1.83,0,0,0,395.2,59.1Z" transform="translate(0 0)"/><path class="cls-5" d="M395.9,58.4c0,.1.1.1.2.1l.1-.1a.3.3,0,0,0,0-.4l-.4-.5-.3-.4c0-.1-.1-.1-.2-.1l-.1.1h0a.3.3,0,0,0,0,.4Z" transform="translate(0 0)"/><path class="cls-5" d="M395.7,58.9c0,.1.1.1.2,0h0a.3.3,0,0,0,0-.4l-.4-.4-.4-.4c-.1-.1-.2-.1-.2,0a.3.3,0,0,0,0,.4A6,6,0,0,1,395.7,58.9Z" transform="translate(0 0)"/><path class="cls-5" d="M395.8,57.3l.2.3.2.2c.1.1.1.1.2,0h0c.1-.1.1-.2,0-.4s-.5-.6-.7-.9a.19.19,0,0,0-.3,0,.3.3,0,0,0,0,.4Z" transform="translate(0 0)"/><path class="cls-5" d="M396.8,57c0,.1.1.1.2,0h0c.1-.1.1-.2,0-.4l-.3-.5-.3-.4c-.1-.1-.2-.1-.2,0h0a.3.3,0,0,0,0,.4Z" transform="translate(0 0)"/><path class="cls-5" d="M396.5,57.4c0,.1.1.1.2.1a.1.1,0,0,0,.1-.1c0-.1.1-.1,0-.2V57l-.6-.9a.19.19,0,0,0-.3,0,.3.3,0,0,0,0,.4A4.7,4.7,0,0,0,396.5,57.4Z" transform="translate(0 0)"/><path class="cls-5" d="M396.9,56.2l.2.3c.1.1.1.1.2,0h0v-.1c.1-.1.1-.2,0-.4l-.3-.5-.3-.5a.19.19,0,0,0-.3,0,.3.3,0,0,0,0,.4Z" transform="translate(0 0)"/><path class="cls-5" d="M397.8,55.6c0,.1.1.1.2.1l.1-.1c.1-.1.1-.2,0-.4l-.3-.5c-.1-.2-.2-.3-.3-.5s-.2-.1-.2,0h0c-.1.1-.1.2,0,.4A3.13,3.13,0,0,0,397.8,55.6Z" transform="translate(0 0)"/><path class="cls-5" d="M397.4,56c.1.1.2.1.2,0s.1-.2,0-.4a8.79,8.79,0,0,1-.6-1c0-.1-.2-.1-.2,0a.3.3,0,0,0,0,.4A4.37,4.37,0,0,0,397.4,56Z" transform="translate(0 0)"/><path class="cls-5" d="M397.9,54.9l.2.3c0,.1.1.1.2.1h0c.1-.1.1-.2,0-.4a4.67,4.67,0,0,1-.5-1c0-.1-.2-.1-.2,0s-.1.2-.1.4Z" transform="translate(0 0)"/><path class="cls-5" d="M398.8,54.3c0,.1.2.1.2,0s.1-.2.1-.4l-.3-.6-.2-.5c0-.1-.2-.1-.2,0h0c-.1.1-.1.2-.1.4A5.82,5.82,0,0,0,398.8,54.3Z" transform="translate(0 0)"/><path class="cls-5" d="M398.5,54.8c0,.1.1.1.2,0h0c.1-.1.1-.2.1-.4-.2-.3-.3-.7-.5-1,0-.1-.2-.1-.2,0s-.1.2-.1.4A9.25,9.25,0,0,0,398.5,54.8Z" transform="translate(0 0)"/><path class="cls-5" d="M399.1,53.7l.1.3c0,.1.1.1.2.1h0c.1-.1.1-.2.1-.4-.2-.4-.3-.7-.5-1.1,0-.1-.2-.1-.3,0s-.1.2-.1.4A4.23,4.23,0,0,1,399.1,53.7Z" transform="translate(0 0)"/><path class="cls-5" d="M400,53.2c0,.1.1.1.2,0h0c.1-.1.1-.2.1-.4s-.1-.4-.2-.6l-.2-.5c0-.1-.2-.1-.3,0s-.1.2-.1.4C399.7,52.5,399.8,52.8,400,53.2Z" transform="translate(0 0)"/><path class="cls-5" d="M399.6,53.6c0,.1.1.1.2,0h0c.1-.1.1-.2.1-.4-.1-.4-.3-.7-.4-1.1,0-.1-.1-.1-.2-.1l-.1.1c-.1.1-.1.2-.1.4Z" transform="translate(0 0)"/><path class="cls-5" d="M400.3,52.5l.1.3c0,.1.1.1.2.1h0c.1-.1.1-.2.1-.4-.1-.4-.3-.7-.4-1.1,0-.1-.1-.1-.2,0s-.1.2-.1.4S400.2,52.3,400.3,52.5Z" transform="translate(0 0)"/><path class="cls-5" d="M401.2,52.1c0,.1.1.1.2.1a.37.37,0,0,0,.1-.3l-.2-.6-.1-.5c0-.1-.1-.1-.2-.1h0c-.1.1-.2.2-.1.4S401.1,51.8,401.2,52.1Z" transform="translate(0 0)"/><path class="cls-5" d="M400.8,52.5c0,.1.1.1.2.1h.1a.37.37,0,0,0,.1-.3,4.87,4.87,0,0,0-.4-1.1c0-.1-.1-.1-.2-.1a.1.1,0,0,0-.1.1c-.1.1-.1.2-.1.4A3.92,3.92,0,0,1,400.8,52.5Z" transform="translate(0 0)"/><path class="cls-5" d="M401.6,51.5l.1.3c0,.1.1.1.2.1h0c.1-.1.2-.2.1-.3l-.2-.6-.1-.6c0-.1-.1-.1-.2-.1h-.1c-.1.1-.2.2-.1.4A6.89,6.89,0,0,1,401.6,51.5Z" transform="translate(0 0)"/><path class="cls-5" d="M402.3,51.5a.37.37,0,0,0,.1-.3,5.55,5.55,0,0,1-.6-.8c.1.3.2.6.3,1,0,.1.1.2.2.1Z" transform="translate(0 0)"/><path class="cls-5" d="M403.9,50.2c0,.1.1.2.2.1s.2-.2.2-.3l-.1-.6-.1-.5c0-.1-.1-.1-.2-.1h-.1c-.1.1-.2.2-.2.3A4.51,4.51,0,0,1,403.9,50.2Z" transform="translate(0 0)"/><path class="cls-5" d="M403.3,49.6l.6.7h0l-.1-.6-.1-.6c0-.1-.1-.2-.2-.1s-.2.2-.2.3Z" transform="translate(0 0)"/><path class="cls-5" d="M404.3,49.6l.1.3c0,.1.1.1.2.1h.1c.1-.1.2-.2.2-.3-.1-.4-.1-.8-.2-1.1,0-.1-.1-.2-.2-.1s-.2.2-.2.3A2.13,2.13,0,0,0,404.3,49.6Z" transform="translate(0 0)"/><path class="cls-5" d="M405.8,49.2a.1.1,0,0,0,.1.1h.1c.1-.1.2-.2.2-.3,0-.4-.1-.8-.1-1.2,0-.1-.1-.2-.2-.1s-.2.2-.2.3l.1.8Z" transform="translate(0 0)"/><path class="cls-5" d="M405.3,49.4a.1.1,0,0,0,.1.1h.1c.1-.1.2-.2.2-.3a1.27,1.27,0,0,0-.1-.6v-.5c0-.1-.1-.2-.2-.1h0c-.1.1-.2.2-.2.3C405.2,48.7,405.3,49,405.3,49.4Z" transform="translate(0 0)"/><path class="cls-5" d="M404.9,49.7c0,.1.1.1.2.1h.1c.1-.1.2-.2.2-.3-.1-.4-.1-.8-.2-1.1,0-.1-.1-.2-.2-.1s-.2.2-.2.3A2.16,2.16,0,0,0,404.9,49.7Z" transform="translate(0 0)"/><path class="cls-5" d="M407.3,48.5a.1.1,0,0,0,.1.1h.1c.1,0,.2-.2.2-.3V47.1c0-.1-.1-.2-.2-.1s-.2.2-.2.3v1.2Z" transform="translate(0 0)"/><path class="cls-5" d="M407,48.8c.1-.1.2-.2.2-.3V47.4c0-.1-.1-.2-.2-.1h0c-.1.1-.2.2-.2.3a3.75,3.75,0,0,0,.1,1.1c0,.1,0,.2.1.1Z" transform="translate(0 0)"/><path class="cls-5" d="M406.5,49.1c.1-.1.2-.2.2-.3a3.75,3.75,0,0,0-.1-1.1.35.35,0,0,0-.1-.2h-.1c-.1.1-.2.2-.2.3,0,.4.1.8.1,1.2a.35.35,0,0,0,.2.1Z" transform="translate(0 0)"/><path class="cls-5" d="M408.5,48.2c.1,0,.2-.2.2-.3V46.7c0-.1-.1-.2-.2-.1h0c-.1,0-.2.2-.2.3v1.4C408.4,48.3,408.5,48.3,408.5,48.2Z" transform="translate(0 0)"/><path class="cls-5" d="M409,48.1h0a.32.32,0,0,0,.3-.3V46.7a.35.35,0,0,0-.1-.2h-.1c-.1,0-.2.1-.2.3v1.1C408.8,48,408.9,48.1,409,48.1Z" transform="translate(0 0)"/><path class="cls-5" d="M408,48.4c.1,0,.2-.2.2-.3V46.9a.35.35,0,0,0-.1-.2H408c-.1.1-.2.2-.2.3v1.2c0,.1,0,.2.1.2S408,48.5,408,48.4Z" transform="translate(0 0)"/><path class="cls-5" d="M410,47.8c.1,0,.2-.1.2-.3l.1-.6.1-.5a.22.22,0,0,0-.2-.2h0c-.1,0-.2.1-.2.3,0,.4-.1.8-.1,1.2-.1,0,0,.1.1.1Z" transform="translate(0 0)"/><path class="cls-5" d="M410.5,47.7h0a.27.27,0,0,0,.3-.3c0-.4.1-.8.1-1.1,0-.1,0-.2-.1-.2h-.1q-.15,0-.3.3l-.1.8v.3Z" transform="translate(0 0)"/><path class="cls-5" d="M409.5,47.9c.1,0,.2-.1.2-.3a4.87,4.87,0,0,1,.1-1.2.35.35,0,0,0-.1-.2h-.1c-.1,0-.2.1-.2.3l-.1,1.1c0,.2.1.3.2.3Z" transform="translate(0 0)"/><path class="cls-5" d="M411.6,47.4a.22.22,0,0,0,.2-.2c0-.2.1-.4.1-.6a4.33,4.33,0,0,1,.1-.5.22.22,0,0,0-.2-.2h0c-.1,0-.2.1-.3.2-.1.4-.1.8-.2,1.1.1.2.1.2.3.2Z" transform="translate(0 0)"/><path class="cls-5" d="M411.9,47.2c0,.1,0,.2.1.2h.1c.1,0,.2-.1.3-.2.1-.4.1-.8.2-1.1a.22.22,0,0,0-.2-.2c-.1,0-.2.1-.3.2-.1.3-.1.6-.2.8Z" transform="translate(0 0)"/><path class="cls-5" d="M411.1,47.5a.22.22,0,0,0,.2-.2,3.59,3.59,0,0,1,.2-1.1.22.22,0,0,0-.2-.2c-.1,0-.2.1-.3.2a1.27,1.27,0,0,1-.1.6c-.1.2,0,.4-.1.6.1,0,.1.1.3.1Z" transform="translate(0 0)"/><path class="cls-5" d="M413.5,47c0,.1,0,.2.1.2h.1c.1,0,.2-.1.3-.2l.3-1.1c0-.1,0-.2-.2-.2s-.2.1-.3.2c-.1.3-.1.5-.2.8Z" transform="translate(0 0)"/><path class="cls-5" d="M413.2,47.2c.1,0,.2-.1.3-.2a1.42,1.42,0,0,1,.2-.6.9.9,0,0,0,.1-.5c0-.1,0-.2-.1-.2h-.1c-.1,0-.2.1-.3.2-.1.4-.2.7-.3,1.1,0,.1,0,.2.2.2Z" transform="translate(0 0)"/><path class="cls-5" d="M412.6,47.3c.1,0,.1,0,.2-.1s.1-.1.1-.2c.1-.4.2-.7.3-1.1,0-.1,0-.2-.1-.2H413c-.1,0-.2.1-.3.2a5.16,5.16,0,0,0-.2,1.1c-.1.2,0,.3.1.3Z" transform="translate(0 0)"/><path class="cls-5" d="M414.7,47.2c.1,0,.2-.1.3-.2l.2-.6.2-.5c0-.1,0-.2-.2-.2h0c-.1,0-.3.1-.3.2a4.87,4.87,0,0,1-.4,1.1c.1,0,.1.1.2.2Z" transform="translate(0 0)"/><path class="cls-5" d="M414.2,47.2c.1,0,.2-.1.3-.2a4.87,4.87,0,0,1,.4-1.1c0-.1,0-.2-.2-.2s-.3.1-.3.2c-.1.4-.2.7-.3,1.1-.1.1,0,.1.1.2Z" transform="translate(0 0)"/><path class="cls-5" d="M415.6,47c.1-.4.3-.7.4-1.1,0-.1,0-.2-.1-.2h-.1c-.1,0-.3.1-.3.2-.1.3-.2.5-.3.8l-.1.3c0,.1,0,.2.1.2h.1C415.4,47.2,415.5,47.1,415.6,47Z" transform="translate(0 0)"/><path class="cls-5" d="M416.7,47.1c0,.1,0,.2.1.2h.1a.37.37,0,0,0,.3-.1l.5-1c.1-.1,0-.2-.1-.2s-.3,0-.3.1a2.51,2.51,0,0,1-.4.7Z" transform="translate(0 0)"/><path class="cls-5" d="M416.3,47.3c.1,0,.3-.1.3-.2a1.42,1.42,0,0,0,.2-.6l.2-.5c0-.1,0-.2-.1-.2h-.1c-.1,0-.3,0-.3.2a9.29,9.29,0,0,1-.5,1c-.1.1-.1.2,0,.2A.77.77,0,0,0,416.3,47.3Z" transform="translate(0 0)"/><path class="cls-5" d="M415.8,47.2c.1,0,.2-.1.3-.2a5.36,5.36,0,0,1,.5-1.1c0-.1,0-.2-.1-.2s-.3.1-.3.2c-.1.4-.3.7-.4,1.1-.2.1-.1.2,0,.2Z" transform="translate(0 0)"/><path class="cls-5" d="M418.3,47.4c-.1.1-.1.2,0,.2h.1a.37.37,0,0,0,.3-.1,8.79,8.79,0,0,0,.6-1c0-.1,0-.2-.1-.2h-.1c-.1,0-.3,0-.3.1l-.4.7Z" transform="translate(0 0)"/><path class="cls-5" d="M417.9,47.5c.1,0,.3,0,.3-.1a2.19,2.19,0,0,1,.3-.5l.3-.5c0-.1,0-.2-.1-.2h-.1c-.1,0-.3,0-.3.1a4.67,4.67,0,0,0-.5,1c-.1.1-.1.2.1.2Z" transform="translate(0 0)"/><path class="cls-5" d="M417.4,47.4a.37.37,0,0,0,.3-.1,4.67,4.67,0,0,0,.5-1c0-.1,0-.2-.1-.2h-.3a.1.1,0,0,0-.1.1,4.67,4.67,0,0,0-.5,1c-.1.1-.1.2,0,.2Z" transform="translate(0 0)"/><path class="cls-5" d="M419.4,47.9c.1,0,.3,0,.3-.1a1.76,1.76,0,0,1,.4-.5c.2-.2.2-.3.3-.4s0-.2-.1-.2h0a.6.6,0,0,0-.4.1l-.6.9c0,.1,0,.2.1.2Z" transform="translate(0 0)"/><path class="cls-5" d="M419.8,47.8c-.1.1-.1.1,0,.2h.1a.37.37,0,0,0,.3-.1c.2-.3.5-.6.7-.9.1-.1,0-.2-.1-.2a.6.6,0,0,0-.4.1,4.23,4.23,0,0,0-.5.7Z" transform="translate(0 0)"/><path class="cls-5" d="M418.9,47.8c.1,0,.3,0,.3-.1l.6-.9c.1-.1,0-.2-.1-.2s-.3,0-.3.1a8.79,8.79,0,0,0-.6,1c0-.1,0,0,.1.1Z" transform="translate(0 0)"/><path class="cls-5" d="M420.9,48.5a.37.37,0,0,0,.3-.1l.4-.5.4-.4c.1-.1,0-.2-.1-.3h0a.6.6,0,0,0-.4.1l-.7.9a.37.37,0,0,0,.1.3Z" transform="translate(0 0)"/><path class="cls-5" d="M421.3,48.4c-.1.1-.1.1,0,.2h0a.37.37,0,0,0,.3-.1l.8-.8c.1-.1,0-.2-.1-.3s-.3,0-.4.1l-.5.6Z" transform="translate(0 0)"/><path class="cls-5" d="M420.4,48.3a.37.37,0,0,0,.3-.1c.2-.3.5-.6.7-.9.1-.1,0-.2-.1-.2s-.3,0-.4.1l-.7.9c.1,0,.1.1.2.2Z" transform="translate(0 0)"/><path class="cls-5" d="M422.3,49.2c.1.1.3,0,.4-.1l.4-.4.4-.4c.1-.1.1-.1,0-.2h-.1a.3.3,0,0,0-.4,0l-.8.8a.77.77,0,0,0,.1.3Z" transform="translate(0 0)"/><path class="cls-5" d="M422.8,49.2c-.1.1-.1.1,0,.2h0a.19.19,0,0,0,.3,0l.8-.8a.19.19,0,0,0,0-.3.3.3,0,0,0-.4,0l-.6.6Z" transform="translate(0 0)"/><path class="cls-5" d="M421.9,48.9h.2c.1,0,.1,0,.1-.1l.8-.8c.1-.1.1-.2-.1-.3s-.2-.1-.4,0a6,6,0,0,1-.8.8c-.1,0-.1.1-.1.2C421.8,48.9,421.8,48.9,421.9,48.9Z" transform="translate(0 0)"/><path class="cls-5" d="M423.7,50a.19.19,0,0,0,.3,0l.5-.4.4-.3a.19.19,0,0,0,0-.3h0a.3.3,0,0,0-.4,0c-.3.2-.6.5-.9.7.1.1,0,.2.1.3Z" transform="translate(0 0)"/><path class="cls-5" d="M424.1,50c-.1.1-.1.2,0,.2h0a.19.19,0,0,0,.3,0l.9-.7a.19.19,0,0,0,0-.3.3.3,0,0,0-.4,0l-.6.5Z" transform="translate(0 0)"/><path class="cls-5" d="M423.3,49.7h.2c.1,0,.1,0,.2-.1.3-.2.6-.5.9-.7a.19.19,0,0,0,0-.3.3.3,0,0,0-.4,0l-.8.8c-.2,0-.2.1-.1.3Z" transform="translate(0 0)"/><path class="cls-5" d="M425,50.9a.19.19,0,0,0,.3,0c.2-.1.3-.2.5-.3l.4-.3a.19.19,0,0,0,0-.3h0a.3.3,0,0,0-.4,0l-.9.6a.37.37,0,0,0,.1.3Z" transform="translate(0 0)"/><path class="cls-5" d="M425.4,51c-.1.1-.1.2,0,.2h0a.19.19,0,0,0,.3,0l1-.6a.19.19,0,0,0,0-.3c-.1-.1-.2-.1-.4,0l-.7.4Z" transform="translate(0 0)"/><path class="cls-5" d="M424.6,50.6c.1.1.2.1.4,0l.9-.6c.1,0,.1-.1,0-.2h0a.3.3,0,0,0-.4,0,5.5,5.5,0,0,0-.9.7c-.1-.1-.1,0,0,.1Z" transform="translate(0 0)"/><path class="cls-5" d="M426.2,51.8c-.1,0-.1.1-.1.2l.1.1c.1.1.2.1.4,0l.5-.3.5-.2a.19.19,0,0,0,0-.3h0c-.1-.1-.2-.1-.4-.1C426.9,51.4,426.6,51.5,426.2,51.8Z" transform="translate(0 0)"/><path class="cls-5" d="M425.8,51.4c-.1.1-.1.2,0,.2h0a.19.19,0,0,0,.3,0l1-.6c.1,0,.1-.1,0-.2h0c-.1-.1-.2-.1-.4-.1Z" transform="translate(0 0)"/><path class="cls-5" d="M428,51.9c.1,0,.1-.2,0-.3s-.2-.1-.4-.1l-.7.4-.3.1c-.1,0-.1.1-.1.2h0v.1a.37.37,0,0,0,.3.1A4.33,4.33,0,0,0,428,51.9Z" transform="translate(0 0)"/><path class="cls-5" d="M428.2,53l.5-.2c.1,0,.1-.2,0-.3h0a.37.37,0,0,0-.3-.1,4.67,4.67,0,0,0-1,.5c-.1,0-.1.1-.1.2l.1.1a.37.37,0,0,0,.3.1Z" transform="translate(0 0)"/><path class="cls-5" d="M428.3,52.4c.1,0,.1-.2,0-.3s-.2-.1-.4-.1c-.3.2-.7.3-1,.5-.1,0-.1.1,0,.2h0a.37.37,0,0,0,.3.1A6.6,6.6,0,0,0,428.3,52.4Z" transform="translate(0 0)"/><path class="cls-5" d="M429.1,53.2c.1-.1.1-.2,0-.2h0c-.1-.1-.2-.1-.4-.1l-.7.3-.3.1c-.1,0-.1.1-.1.2h0v.1a.37.37,0,0,0,.3.1Z" transform="translate(0 0)"/><path class="cls-5" d="M429.3,54.3l.5-.2c.1,0,.1-.1.1-.2v-.1h0c-.1-.1-.2-.2-.3-.1a10.37,10.37,0,0,0-1,.4c-.1,0-.1.1-.1.2v.1a.37.37,0,0,0,.3.1Z" transform="translate(0 0)"/><path class="cls-5" d="M429.4,53.7c.1,0,.1-.1.1-.2v-.1c-.1-.1-.2-.2-.3-.1a10.37,10.37,0,0,0-1,.4c-.1.1-.1.2,0,.2h0a.37.37,0,0,0,.3.1Z" transform="translate(0 0)"/><path class="cls-5" d="M430.1,54.6q.15,0,0-.3c-.1-.1-.2-.2-.3-.1l-.8.3-.3.1c-.1,0-.1.1-.1.2h0v.1a.37.37,0,0,0,.3.1Z" transform="translate(0 0)"/><path class="cls-5" d="M429.7,55.9l.6-.2.5-.1c.1,0,.1-.1.1-.3h0c-.1-.1-.2-.2-.3-.1l-1.1.3c-.1,0-.1.1-.1.2v.1C429.4,55.9,429.5,55.9,429.7,55.9Z" transform="translate(0 0)"/><path class="cls-5" d="M430.4,55.1c.1,0,.1-.1.1-.3s-.2-.2-.3-.1l-1.1.3c-.1,0-.1.1-.1.3a.1.1,0,0,0,.1.1h.2Z" transform="translate(0 0)"/><path class="cls-5" d="M430,56.4l1.1-.3c.1,0,.1-.1.1-.2s-.2-.2-.3-.2l-.8.2-.3.1a.1.1,0,0,0-.1.1h0v.1C429.7,56.4,429.8,56.4,430,56.4Z" transform="translate(0 0)"/><path class="cls-5" d="M430.5,57.3l.6-.1.5-.1c.1,0,.1-.1.1-.2h0c-.1-.1-.2-.2-.3-.2l-1.1.2c-.1,0-.1.1-.1.2v.1C430.3,57.3,430.4,57.4,430.5,57.3Z" transform="translate(0 0)"/><path class="cls-5" d="M430.2,56.9l1.1-.2c.1,0,.1-.1.1-.2v-.1c-.1-.1-.2-.2-.3-.2l-1.1.3c-.1,0-.1.1-.1.2v.1C430,56.8,430.1,56.9,430.2,56.9Z" transform="translate(0 0)"/><path class="cls-5" d="M430.8,57.8l1.1-.2c.1,0,.1-.1.1-.2s-.2-.2-.3-.2l-.8.1-.3.1c-.1,0-.1.1-.1.2h0v.1C430.5,57.8,430.6,57.9,430.8,57.8Z" transform="translate(0 0)"/><path class="cls-5" d="M431.2,58.8l.6-.1h.5c.1,0,.2-.1.1-.2h0c-.1-.1-.2-.2-.3-.2l-1.1.1c-.1,0-.1.1-.1.2v.1C431,58.8,431.1,58.9,431.2,58.8Z" transform="translate(0 0)"/><path class="cls-5" d="M431,58.3l1.1-.1c.1,0,.1-.1.1-.2s-.2-.2-.3-.2l-1.1.2c-.1,0-.2.1-.1.2S430.9,58.4,431,58.3Z" transform="translate(0 0)"/><path class="cls-5" d="M432.6,59.3c.1,0,.2-.1.1-.2s-.2-.2-.3-.2l-.8.1h-.3c-.1,0-.1.1-.1.2h0v.1c.1.1.2.2.3.2Z" transform="translate(0 0)"/><path class="cls-5" d="M431.7,60c-.1,0-.2.1-.1.2s.2.2.3.2H433c.1,0,.2-.1.1-.2h0c0-.1-.2-.2-.3-.2A2,2,0,0,0,431.7,60Z" transform="translate(0 0)"/><path class="cls-5" d="M431.5,59.5c-.1,0-.2.1-.1.2s.2.2.3.2c.4,0,.7-.1,1.1-.1.1,0,.2-.1.1-.2s-.2-.2-.3-.2Z" transform="translate(0 0)"/><path class="cls-5" d="M432.2,60.5h-.3a.1.1,0,0,0-.1.1h0v.1c0,.1.2.2.3.2h1.1c.1,0,.2-.1.1-.2s-.1-.2-.3-.2Z" transform="translate(0 0)"/><path class="cls-5" d="M432.8,61.5h-.5c-.1,0-.2.1-.1.2s.1.2.3.2h1.1c.1,0,.2-.1.1-.2h0c0-.1-.1-.2-.3-.2Z" transform="translate(0 0)"/><path class="cls-5" d="M432.1,61c-.1,0-.2.1-.1.2v.1c0,.1.2.2.3.2h1.1c.1,0,.2-.1.1-.2s-.1-.2-.3-.2Z" transform="translate(0 0)"/><path class="cls-5" d="M432.8,62.1h-.3a.35.35,0,0,0-.2.1h0v.1c0,.1.1.2.3.2a4.1,4.1,0,0,1,1.1.1c.1,0,.2-.1.1-.2s-.1-.2-.3-.2Z" transform="translate(0 0)"/><path class="cls-5" d="M432.7,63.2c-.1,0-.2.1-.1.2s.1.2.3.2h.6l.5.1c.1,0,.2-.1.1-.2h0c0-.1-.1-.2-.2-.3Z" transform="translate(0 0)"/><path class="cls-5" d="M432.6,62.6c-.1,0-.2.1-.1.2s.1.2.3.2l1.1.1c.1,0,.2-.1.1-.2s-.1-.2-.3-.3Z" transform="translate(0 0)"/><path class="cls-5" d="M433.2,63.8h-.3a.1.1,0,0,0-.1.1V64c0,.1.1.2.3.2l1.1.1c.1,0,.2-.1.1-.2s-.1-.2-.3-.3Z" transform="translate(0 0)"/><path class="cls-5" d="M433.1,64.8a.2.2,0,1,0,0,.4l.6.1.5.1a.22.22,0,0,0,.2-.2h0c0-.1-.1-.2-.2-.3Z" transform="translate(0 0)"/><path class="cls-5" d="M433,64.3a.2.2,0,1,0,0,.4l1.1.1a.22.22,0,0,0,.2-.2c0-.1-.1-.2-.2-.3Z" transform="translate(0 0)"/><path class="cls-5" d="M434.3,65.5l-.8-.1h-.3c-.1,0-.2,0-.2.1h0v.1c0,.1.1.2.2.3l1.1.2a.22.22,0,0,0,.2-.2A.52.52,0,0,0,434.3,65.5Z" transform="translate(0 0)"/><path class="cls-5" d="M434.5,66.8l-1.1-.2c-.1,0-.2,0-.2.1v.1c0,.1.1.2.2.3l.6.1.5.1a.22.22,0,0,0,.2-.2h0C434.7,66.9,434.6,66.8,434.5,66.8Z" transform="translate(0 0)"/><path class="cls-5" d="M434.4,66.1l-1.1-.2a.22.22,0,0,0-.2.2c0,.1.1.2.2.3l1.1.2a.22.22,0,0,0,.2-.2C434.6,66.3,434.5,66.2,434.4,66.1Z" transform="translate(0 0)"/><path class="cls-5" d="M434.5,67.3l-.8-.2-.3-.1c-.1,0-.2,0-.2.1h0v.1c0,.1.1.2.2.3l1.1.3a.22.22,0,0,0,.2-.2C434.7,67.5,434.6,67.3,434.5,67.3Z" transform="translate(0 0)"/><path class="cls-5" d="M434.6,68.5l-.5-.1-.5-.1a.22.22,0,0,0-.2.2c0,.1.1.2.2.3l.6.2.5.1a.22.22,0,0,0,.2-.2h0C434.8,68.6,434.7,68.5,434.6,68.5Z" transform="translate(0 0)"/><path class="cls-5" d="M434.6,67.9l-1.1-.3a.22.22,0,0,0-.2.2c0,.1.1.2.2.3l1.1.3c.1,0,.2,0,.2-.2S434.7,67.9,434.6,67.9Z" transform="translate(0 0)"/><path class="cls-5" d="M434.6,69l-.8-.2-.3-.1c-.1,0-.1,0-.2.1h0v.1c0,.1.1.2.2.3l1,.3c.1,0,.2,0,.2-.2S434.7,69.1,434.6,69Z" transform="translate(0 0)"/><path class="cls-5" d="M434.8,70.3a.1.1,0,0,0-.1-.1l-1-.4c-.1,0-.2,0-.2.2s.1.2.2.3l.6.2.5.2c.1,0,.2,0,.2-.2h0A.22.22,0,0,1,434.8,70.3Z" transform="translate(0 0)"/><path class="cls-5" d="M434.6,69.6l-1-.3a.22.22,0,0,0-.2.2c0,.1.1.2.2.3l1,.4c.1,0,.2,0,.2-.2S434.8,69.7,434.6,69.6Z" transform="translate(0 0)"/><path class="cls-5" d="M434.7,70.8l-.8-.3-.3-.1c-.1,0-.2,0-.2.1h0v.1c0,.1.1.2.2.3l1,.4c.1,0,.2,0,.2-.2S434.8,70.8,434.7,70.8Z" transform="translate(0 0)"/><path class="cls-5" d="M434.6,72l-1-.4c-.1,0-.2,0-.2.2s.1.3.2.3l.5.2.5.2c.1.1.2,0,.2-.2h0C434.8,72.2,434.7,72,434.6,72Z" transform="translate(0 0)"/><path class="cls-5" d="M434.6,71.4l-1-.4c-.1,0-.2,0-.2.2s.1.3.2.3l1,.4c.1,0,.2,0,.2-.2S434.8,71.5,434.6,71.4Z" transform="translate(0 0)"/><path class="cls-5" d="M434.6,72.6l-.7-.3-.3-.1c-.1,0-.1,0-.2.1h0v.1c0,.1.1.3.2.3l1,.5c.1,0,.2,0,.2-.2S434.7,72.6,434.6,72.6Z" transform="translate(0 0)"/><path class="cls-5" d="M434.5,73.8l-1-.5c-.1,0-.2,0-.2.1s.1.3.2.3l.5.3.5.2c.1.1.2,0,.2-.1h0C434.7,74,434.6,73.8,434.5,73.8Z" transform="translate(0 0)"/><path class="cls-5" d="M434.5,73.1l-1-.5c-.1,0-.2,0-.2.1s.1.3.2.3a4.67,4.67,0,0,1,1,.5c.1,0,.2,0,.2-.1S434.7,73.2,434.5,73.1Z" transform="translate(0 0)"/><path class="cls-5" d="M434.4,74.3l-.7-.4-.3-.1h-.2v.1c0,.1.1.3.2.3.3.2.7.3,1,.5.1.1.2,0,.2-.1S434.5,74.4,434.4,74.3Z" transform="translate(0 0)"/><path class="cls-5" d="M434.3,75.5l-1-.5c-.1-.1-.2,0-.2.1s0,.3.1.3l.5.3.4.3c.1.1.2,0,.2-.1h0C434.5,75.7,434.4,75.5,434.3,75.5Z" transform="translate(0 0)"/><path class="cls-5" d="M434.3,74.9l-1-.5c-.1-.1-.2,0-.2.1s0,.3.1.3l1,.5c.1,0,.2,0,.2-.1S434.4,75,434.3,74.9Z" transform="translate(0 0)"/><path class="cls-5" d="M434.2,76l-.7-.4-.3-.1H433v.1c0,.1,0,.3.1.3l1,.6c.1.1.2,0,.2-.1S434.3,76.1,434.2,76Z" transform="translate(0 0)"/><path class="cls-5" d="M434,77.2l-1-.6c-.1-.1-.2,0-.2.1s0,.3.1.3l.5.3.4.3c.1.1.2,0,.2-.1h0A.19.19,0,0,0,434,77.2Z" transform="translate(0 0)"/><path class="cls-5" d="M434.1,76.6l-1-.6c-.1,0-.2,0-.2.1v.1c0,.1,0,.3.1.3l1,.6c.1.1.2,0,.2-.1S434.2,76.7,434.1,76.6Z" transform="translate(0 0)"/><path class="cls-5" d="M433.8,77.8l-.7-.4-.3-.2h-.2v.1c0,.1,0,.3.1.3l.9.6c.1.1.2,0,.2-.1C434,78,433.9,77.8,433.8,77.8Z" transform="translate(0 0)"/><path class="cls-5" d="M433.5,78.9l-.9-.6h-.2v.1a.6.6,0,0,0,.1.4l.5.4.4.3c.1.1.2,0,.2-.1h0C433.7,79.1,433.7,79,433.5,78.9Z" transform="translate(0 0)"/><path class="cls-5" d="M433.7,78.3l-.9-.6c-.1-.1-.2,0-.2.1s0,.3.1.3l.9.6c.1.1.2,0,.2-.1A.37.37,0,0,0,433.7,78.3Z" transform="translate(0 0)"/><path class="cls-5" d="M433.4,79.5c-.2-.2-.4-.3-.6-.5l-.3-.2h-.2v.1c0,.1,0,.3.1.3l.9.7c.1.1.2,0,.2-.1A.19.19,0,0,0,433.4,79.5Z" transform="translate(0 0)"/><path class="cls-5" d="M433.1,80.6l-.9-.7c-.1-.1-.2,0-.2.1a.6.6,0,0,0,.1.4l.5.4.4.3c.1.1.2,0,.2-.1h0C433.2,80.8,433.2,80.7,433.1,80.6Z" transform="translate(0 0)"/><path class="cls-5" d="M433.2,80l-.9-.7c-.1-.1-.2,0-.2.1a.6.6,0,0,0,.1.4,5.5,5.5,0,0,1,.9.7c.1.1.2,0,.2-.1S433.3,80.1,433.2,80Z" transform="translate(0 0)"/><path class="cls-5" d="M432.9,81.1l-.6-.5-.2-.2c-.1-.1-.1-.1-.2,0h0v.1a.6.6,0,0,0,.1.4l.9.7c.1.1.2,0,.2-.1S433,81.2,432.9,81.1Z" transform="translate(0 0)"/><path class="cls-5" d="M432.7,81.7l-.9-.7c-.1-.1-.2,0-.2.1a.6.6,0,0,0,.1.4l.9.7c.1.1.2,0,.2-.1S432.8,81.8,432.7,81.7Z" transform="translate(0 0)"/></svg>