<svg id="Layer_1" data-name="Layer 1" xmlns="http://www.w3.org/2000/svg" viewBox="0 0 2000 2000"><defs><style>.cls-1{fill:none;}.cls-2{fill:#fff;}</style></defs><rect class="cls-1" width="2000" height="2000"/><polygon class="cls-2" points="984.75 1194.46 1000.01 1644.87 1015.27 1194.46 984.75 1194.46"/><polygon class="cls-2" points="1030.28 751.57 1298.77 751.57 1024.46 729.15 1030.28 751.57"/><polygon class="cls-2" points="969.73 751.57 701.25 751.57 975.55 729.15 969.73 751.57"/><polygon class="cls-2" points="1015.27 1194.46 1283.76 1194.46 1009.45 1212.08 1015.27 1194.46"/><polygon class="cls-2" points="984.75 1194.46 716.26 1194.46 990.57 1212.08 984.75 1194.46"/><path class="cls-2" d="M1266.89,620.49c3,.61,5.92,1.15,8.87,1.53,11.79,1.65,23.48,1.25,33.85-2l1.74-.62c.61-.23,1.1-.35,1.88-.71l2.17-.95.53-.24.19-.08,0,0,.81-.42a34,34,0,0,0,6.1-4.11c3.73-3.18,6.62-7.21,7.69-10.94.09-.46.24-.93.32-1.38s.11-.89.17-1.33a9,9,0,0,1,0-1.27,2.07,2.07,0,0,1,0-.74s0-.19-.07-.39l-.16-.56-.32-1.11a.68.68,0,0,0,0-.1l-.07-.17-.24-.6c-.2-.39-.41-.76-.62-1.15s-.46-.75-.78-1.1c-2.26-2.92-6.47-5.4-11.27-6.91-1.17-.38-2.5-.76-3.62-1l-.89-.2-1.11-.22-.55-.1-.38-.07-1-.14-2-.3-2-.19c-1.32-.16-2.65-.17-4-.24a57,57,0,0,0-15.51,1.63,40.7,40.7,0,0,0-13.51,5.92c-.48.35-1,.66-1.46,1l-1.36,1.13-.69.56-.55.54-1.11,1.07a4.8,4.8,0,0,0-.64.71l-.69.83-.69.83-.35.41-.07.09v0a31.45,31.45,0,0,0-1.9,2.9,37.7,37.7,0,0,0-4.78,18.31l3.6.92C1263.92,619.82,1265.4,620.21,1266.89,620.49Z"/><path class="cls-2" d="M739.09,606.22a34.11,34.11,0,0,0-1.31-3.26L737,601.4c-.25-.5-.52-.89-.77-1.35l-.38-.67-.61-.88-.62-.89-.3-.44c-.15-.21.12.18-.13-.14-.78-.86-1.42-1.83-2.29-2.62a24.25,24.25,0,0,0-2.58-2.37c-.46-.37-.88-.78-1.37-1.12l-1.48-1a41.34,41.34,0,0,0-13.59-5.77,56.45,56.45,0,0,0-15.53-1.49l-2,.08c-.65,0-1.25.12-1.87.18s-1.16.07-2,.2l-2.23.33a45.85,45.85,0,0,0-7.38,1.79c-4.76,1.58-8.87,4.1-11,7l-.37.56a2.56,2.56,0,0,0-.3.48,6,6,0,0,0-.58,1.15l-.34.8c.06-.13-.07.24,0,.19l-.07.31a4.7,4.7,0,0,0-.28,1.22,11.41,11.41,0,0,0,.44,5.24c1.15,3.76,4.17,7.75,7.93,10.87l1.44,1.16,1.52,1.06,1.36.84.34.22.52.27,1,.54.52.28c.24.13-.17-.1.22.09l.92.4,1.84.8c1.27.46,2.53.95,3.83,1.36,10.39,3.24,22.09,3.53,33.88,1.84a138.54,138.54,0,0,0,16.43-3.38,42.12,42.12,0,0,0-.42-5.4A38.26,38.26,0,0,0,739.09,606.22Z"/><path class="cls-2" d="M712.39,670.71Z"/><path class="cls-2" d="M746,636.51l-1.18.28-2.36.57c-1.67.36-3.42.75-5.1,1.09a69.4,69.4,0,0,1-9.11,15.61,104.33,104.33,0,0,1-9.94,11.19c-1.79,1.75-3.63,3.46-5.5,5.11l-.35.31,0,0h0l-.13.11-.76.6L710,672.63,707,675l-1.51,1.2-1.49,1-3,2c-2,1.35-3.87,2.76-6,4-4.21,2.54-8.29,5.17-12.6,7.41L676,694.19c-2.09,1.16-4.27,2.15-6.38,3.23-4.25,2.09-8.4,4.26-12.66,6.12s-8.34,3.91-12.52,5.62l-12.37,5.13c-4.08,1.62-8.17,3.09-12.17,4.61l-6,2.23-5.94,2a575.55,575.55,0,0,1-83.21,21.73l-8.58,1.58-8.15,1.16c-5.28.74-10.22,1.53-14.83,2.11L480.42,751c-3.92.34-7.49.86-10.69.94L450.05,753l19.73.11c3.22.09,6.8-.22,10.76-.35l12.94-.58c4.66-.33,9.66-.83,15-1.3l8.26-.79,8.71-1.17a539.43,539.43,0,0,0,85-18.24l6.11-1.79,6.14-2c4.12-1.38,8.32-2.71,12.55-4.2L648,718c4.33-1.58,8.61-3.47,13-5.23s8.77-3.78,13.2-5.81c2.2-1,4.46-2,6.66-3.12l6.65-3.38c4.5-2.17,8.88-4.8,13.37-7.32,2.24-1.2,4.49-2.75,6.74-4.18l3.4-2.19,1.69-1.11,1.55-1.16,3.09-2.31L719,681l.77-.58.59-.46.39-.32q3.1-2.58,6.14-5.37a118.79,118.79,0,0,0,11.54-12.21,77,77,0,0,0,14.74-27.51c-1.94.55-3.89,1.08-5.83,1.62Z"/><path class="cls-2" d="M755.37,620.86a63.84,63.84,0,0,0-.09-6.63q-7,2.41-14.11,4.32c0,.6,0,1.21,0,1.81a51.88,51.88,0,0,1-.7,7.25,50.92,50.92,0,0,1-3.17,10.84c1.68-.34,3.43-.73,5.1-1.09l2.36-.57,1.18-.28,1.32-.35c1.94-.54,3.89-1.07,5.83-1.62.4-1.42.76-2.87,1.06-4.35A65.56,65.56,0,0,0,755.37,620.86Z"/><path class="cls-2" d="M942.93,501.09h0C943.12,501,943.25,501,942.93,501.09Z"/><path class="cls-2" d="M741.2,620.36c0-.6,0-1.21,0-1.81a138.54,138.54,0,0,1-16.43,3.38c-11.79,1.69-23.49,1.4-33.88-1.84-1.3-.41-2.56-.9-3.83-1.36l-1.84-.8-.92-.4c-.39-.19,0,0-.22-.09l-.52-.28-1-.54-.52-.27-.34-.22-1.36-.84-1.52-1.06-1.44-1.16c-3.76-3.12-6.78-7.11-7.93-10.87a11.41,11.41,0,0,1-.44-5.24,4.7,4.7,0,0,1,.28-1.22l.07-.31c0,.05.1-.32,0-.19l-.11.26.11-.26.34-.8a6,6,0,0,1,.58-1.15,2.56,2.56,0,0,1,.3-.48l.37-.56c2.16-2.92,6.27-5.44,11-7a45.85,45.85,0,0,1,7.38-1.79l2.23-.33c.79-.13,1.29-.13,2-.2s1.22-.14,1.87-.18l2-.08a56.45,56.45,0,0,1,15.53,1.49,41.34,41.34,0,0,1,13.59,5.77l1.48,1c.49.34.91.75,1.37,1.12a24.25,24.25,0,0,1,2.58,2.37c.87.79,1.51,1.76,2.29,2.62.25.32,0-.07.13.14l.3.44.62.89.61.88.38.67c.25.46.52.85.77,1.35l.77,1.56a34.11,34.11,0,0,1,1.31,3.26,38.26,38.26,0,0,1,1.66,6.93,42.12,42.12,0,0,1,.42,5.4q7.08-1.89,14.11-4.32c-.06-1-.15-2-.27-3a52.56,52.56,0,0,0-2.08-9.61,48.32,48.32,0,0,0-1.76-4.69l-1.07-2.3c-.38-.78-.87-1.61-1.31-2.4l-.69-1.19-.59-.9-.6-.9-.3-.45a7.41,7.41,0,0,0-.52-.71c-1.09-1.32-2.07-2.76-3.29-4a40.22,40.22,0,0,0-3.7-3.57c-.66-.56-1.29-1.15-2-1.66l-2.08-1.51a56.44,56.44,0,0,0-18.33-8.33A71.9,71.9,0,0,0,697,566.72a78.81,78.81,0,0,0-9.85.74,61.48,61.48,0,0,0-10.22,2.23,46.87,46.87,0,0,0-10.06,4.42,33.43,33.43,0,0,0-9.2,7.92l-.95,1.31a16.66,16.66,0,0,0-1,1.45,28.54,28.54,0,0,0-1.54,2.93l-.47,1a10.62,10.62,0,0,0-.42,1.16l-.25.8a19.74,19.74,0,0,0-.83,3.24,28.51,28.51,0,0,0,.67,13.06,36.27,36.27,0,0,0,5.29,10.89,47.07,47.07,0,0,0,7.7,8.51l2.2,1.81,2.31,1.66c.81.56,1.74,1.12,2.62,1.66l.66.4.52.28,1,.55.51.28c.11.07.88.45.85.42l1.23.56,2.47,1.11c1.67.65,3.36,1.31,5.06,1.88a84.18,84.18,0,0,0,20.94,3.87,112.84,112.84,0,0,0,20.83-.81c3.43-.41,6.8-1,10.17-1.65h0a50.92,50.92,0,0,0,3.17-10.84A51.88,51.88,0,0,0,741.2,620.36Z"/><path class="cls-2" d="M669.32,595.24l-.11.26Z"/><path class="cls-2" d="M1544.92,752.83c-3.32-.14-8.24-.41-14.64-.89-12.81-.91-31.54-3-55.13-6.93-11.79-2-24.78-4.6-38.78-7.93s-29-7.3-44.81-12.46c-7.9-2.51-15.94-5.43-24.15-8.54s-16.5-6.71-24.87-10.62c-16.63-8-33.7-17.36-49.19-29.85l-5.65-4.8c-2-1.79-3.75-3.4-5.55-5.18a113,113,0,0,1-10.05-11.18,73.91,73.91,0,0,1-7.91-12.55c-.56-1.1-1-2.23-1.52-3.35l-.06-.14c-1.46-.29-2.91-.62-4.36-.92l-2.49-.59-1.24-.3-1.38-.35-4.7-1.28-1.53-.42c.07.28.13.54.22.82l.71,2.31.7,1.94.18.49c0,.12.24.65.26.68l.43,1.05c.3.7.57,1.41.9,2.09.64,1.36,1.27,2.73,2,4a86.14,86.14,0,0,0,9.77,14.52,124.36,124.36,0,0,0,11.56,12.1c2,1.86,4.14,3.7,6.06,5.33L1286,685a214.69,214.69,0,0,0,26.06,16.78,289.88,289.88,0,0,0,26.38,12.83q13.15,5.53,25.9,9.89c8.5,2.85,16.8,5.5,24.92,7.73a573.25,573.25,0,0,0,85.28,16.88c12,1.48,22.65,2.43,32,3s17.26.91,23.69,1c3.22.07,6.06.1,8.52.07s4.51,0,6.17-.06l5-.11Z"/><path class="cls-2" d="M1253.14,636.25l1.38.35,1.24.3,2.49.59c1.45.3,2.9.63,4.36.92-.22-.52-.4-1-.61-1.57l-.33-.86a2.55,2.55,0,0,1-.1-.29l-.16-.49-.64-2-.44-1.66c-.31-1-.52-2.33-.78-3.49a48.09,48.09,0,0,1-.72-9.51l-.71-.18-4.67-1.34-2.33-.68-2.16-.71-4.23-1.38A60.92,60.92,0,0,0,1246,630.8c.31,1.26.58,2.48,1,3.75l1.53.42Z"/><path class="cls-2" d="M1251.12,616.38l2.33.68,4.67,1.34.71.18a37.7,37.7,0,0,1,4.78-18.31,31.45,31.45,0,0,1,1.9-2.9v0c-.11.13,0,0,0,0l.07-.09.35-.41.69-.83.69-.83a4.8,4.8,0,0,1,.64-.71l1.11-1.07.55-.54.69-.56,1.36-1.13c.46-.37,1-.68,1.46-1a40.7,40.7,0,0,1,13.51-5.92,57,57,0,0,1,15.51-1.63c1.33.07,2.66.08,4,.24l2,.19,2,.3,1,.14.38.07.55.1,1.11.22.89.2c1.12.25,2.45.63,3.62,1,4.8,1.51,9,4,11.27,6.91.32.35.5.75.78,1.1s.42.76.62,1.15l.24.6.07.17c-.06-.21-.18-.59.06.12l-.06-.12a.68.68,0,0,1,0,.1l.32,1.11.16.56c.06.2.1.37.07.39a2.07,2.07,0,0,0,0,.74,9,9,0,0,0,0,1.27c-.06.44-.13.89-.17,1.33s-.23.92-.32,1.38c-1.07,3.73-4,7.76-7.69,10.94a34,34,0,0,1-6.1,4.11l-.81.42,0,0h0l-.19.08-.53.24-2.17.95c-.78.36-1.27.48-1.88.71l-1.74.62c-10.37,3.3-22.06,3.7-33.85,2-3-.38-5.91-.92-8.87-1.53-1.49-.28-3-.67-4.46-1l-3.6-.92a48.09,48.09,0,0,0,.72,9.51c.26,1.16.47,2.45.78,3.49l.44,1.66.64,2,.16.49a2.55,2.55,0,0,0,.1.29l.33.86c.21.52.39,1,.61,1.57l.66.13c3.36.64,6.74,1.21,10.17,1.61,13.63,1.7,28.07,1.25,41.78-3.32l2.69-1c.87-.33,1.89-.69,2.52-1l2.15-1,.54-.25c-.06,0,.67-.3.84-.4l1.28-.68a50.33,50.33,0,0,0,9.35-6.53,47,47,0,0,0,7.57-8.66,36.38,36.38,0,0,0,5.09-11c.23-1,.49-2.08.64-3.16s.24-2.18.31-3.27,0-2.24-.1-3.35-.38-2.57-.64-3.83a4.3,4.3,0,0,0-.19-.72l-.17-.55-.34-1.1c-.15-.44.09.2-.37-1.12l-.33-.76-.68-1.52c-.49-1-1.05-1.93-1.63-2.85a31.83,31.83,0,0,0-1.93-2.6,34.15,34.15,0,0,0-9.29-7.68,47.91,47.91,0,0,0-10.08-4.24c-1.72-.51-3.31-.92-5.14-1.29L1316,568l-1.12-.19-.55-.09c-.15,0-.65-.11-.74-.11l-1.24-.16-2.49-.31-2.49-.19c-1.66-.15-3.32-.14-5-.19a73,73,0,0,0-19.71,2.54,64.76,64.76,0,0,0-9.46,3.41,55,55,0,0,0-8.79,5.14c-.69.51-1.39,1-2.06,1.53l-1.95,1.68-1,.85c-.32.31-.65.66-1,1l-1.93,2a10.15,10.15,0,0,0-.78.92l-.67.84-.67.85-.34.42c.09-.12-.48.62-.56.75a47.06,47.06,0,0,0-2.72,4.35,50.53,50.53,0,0,0-2.23,4.56c-.59,1.57-1.24,3.12-1.68,4.72a51.39,51.39,0,0,0-2,9.61c-.09.8-.16,1.59-.21,2.38l4.23,1.38Z"/><path class="cls-2" d="M1316.12,617.37Z"/><path class="cls-2" d="M1265.52,597.35Z"/><path class="cls-2" d="M1330.61,595l.06.12C1330.43,594.41,1330.55,594.79,1330.61,595Z"/><path class="cls-2" d="M1000.37,468.55h-1.59l-1.28,0c-.86,0-1.69,0-2.67.09-1.91.08-3.8.18-5.6.33-3.65.27-7.28.69-10.89,1.2A175.22,175.22,0,0,0,957,474.64a177.62,177.62,0,0,0-20.61,6.95l-1.26.51c-.92.39-.59.26-1,.42l-.58.27-2.33,1.07-2.33,1.07-1.16.54-1.29.7L921.32,489c-.88.46-1.67,1-2.44,1.46l-2.34,1.5c-12.54,8-23.08,17.86-32.91,27.75s-18.75,20.14-28,29.48l-3.46,3.49-3.5,3.37q-1.74,1.71-3.53,3.28l-3.5,3.14c-2.54,2.14-5.16,4.44-7.62,6.38l-3.74,3-3.85,3a284.55,284.55,0,0,1-32,21.49,234.06,234.06,0,0,1-34.22,16.12q-2.49.91-5,1.78a63.84,63.84,0,0,1,.09,6.63,65.56,65.56,0,0,1-1.19,9.33c-.3,1.48-.66,2.93-1.06,4.35,1.32-.37,2.64-.74,3.94-1.17,1.62-.51,3.25-1,4.86-1.53l4.81-1.68A252.73,252.73,0,0,0,804,613.21a304.25,304.25,0,0,0,34.53-22.53l4.11-3.15,4.1-3.27c2.8-2.21,5.23-4.34,7.84-6.51l4-3.58c1.33-1.17,2.63-2.35,3.88-3.57l3.8-3.62L870,563.3c9.78-9.84,18.77-19.94,28.1-29.36s18.91-18.12,29.5-24.76l2-1.26a20.47,20.47,0,0,1,2-1.16l3.83-2.11,1-.53,1.17-.53,2.33-1.07,2.33-1.06.59-.26.24-.12h0c.32-.14.19-.08,0,0l1.1-.43a157.14,157.14,0,0,1,18.31-6.09,154.39,154.39,0,0,1,18.88-3.83c3.17-.43,6.35-.79,9.54-1,1.62-.13,3.15-.2,4.67-.26.73,0,1.61,0,2.47-.07l2.27-.05c1.57,0,3.15.06,4.73.12V468.68C1003.4,468.62,1001.89,468.57,1000.37,468.55Z"/><path class="cls-2" d="M1004.92,489.46c4.61.2,9.22.63,13.82,1.26.59-7.1,1-14.13,1.4-20.7-5-.67-10.12-1.13-15.22-1.34Z"/><path class="cls-2" d="M1246,630.8a60.92,60.92,0,0,1-1.23-16.51l-.11,0-4.4-1.6a231.44,231.44,0,0,1-34.25-16,283.17,283.17,0,0,1-32-21.42q-7.71-5.93-15.14-12.31l-.47-.39-.33-.3-.93-.84-1.88-1.69c-1.24-1.12-2.54-2.26-3.62-3.34l-3.41-3.28-3.45-3.47c-9.22-9.33-18.22-19.5-28-29.45-4.94-5-9.91-9.93-15.39-14.61l-2-1.78-2.12-1.71-4.24-3.41c-3-2.12-5.84-4.4-9-6.33a120.2,120.2,0,0,0-19.85-10.48c-3-1.25-6.79-2.66-10.12-3.8s-6.9-2.25-10.4-3.2l-.72-.19-.71,21.22q2.63.8,5.23,1.65c1.52.53,3.06,1,4.49,1.59l2.23.84,2.39.95a100.34,100.34,0,0,1,16.37,8.58c2.68,1.59,5.17,3.59,7.76,5.38l3.74,3,1.87,1.49,1.82,1.6c4.91,4.14,9.59,8.77,14.27,13.42,9.32,9.44,18.32,19.54,28.12,29.38l3.7,3.68,3.89,3.71c1.31,1.28,2.55,2.36,3.81,3.48l1.88,1.68.94.84,1.11,1c5.28,4.46,10.62,8.84,16.16,13a302.84,302.84,0,0,0,34.58,22.45,251.6,251.6,0,0,0,37.3,16.87l4.81,1.68,5,1.54,2.49.77.82.23C1246.54,633.28,1246.27,632.06,1246,630.8Z"/><path class="cls-2" d="M1000,355.13c-23.31,0-42,50.87-41.19,74.16l1.39,41.21c5.26-1.31,10.73-2.4,16.32-3.25-1-19.54-1-34.36-1-34.36a24.45,24.45,0,1,1,48.88,0s0,128-24.44,128c-12.54,0-18.64-33.66-21.61-66.45a151.25,151.25,0,0,0-15.21,3.24c-.68.18-1.36.39-2,.58l.52,15.48.57,16.71,7.49,221.15h60.55l8.8-259.61.53-15.59,1.6-47.08C1042,406,1023.32,355.13,1000,355.13Z"/><path class="cls-2" d="M643.82,919.69c0-10.53-6.32-15.22-20.42-20.73l-6.15-2.43c-16.53-6.48-27.87-15.88-27.87-32.4,0-18.63,15.72-30,36.29-30a43,43,0,0,1,26.41,8.58l-1,21.06h-9.72l-4.54-24.46,10.37,5.35v8.1c-7.94-7.78-13.93-10.53-22.52-10.53-12.64,0-22.2,6.31-22.2,18.46,0,10.21,6.65,16.2,18.47,20.74l6.32,2.43c21.39,8.26,29.65,17.66,29.65,32.89,0,19.11-16,30.78-38.23,30.78-12.16,0-24-3.89-31.43-8.59l1-22.68H598l4.21,25-10.53-4.54v-7.77c10,7.29,15.55,10.53,26.57,10.53C633.61,939.46,643.82,932.33,643.82,919.69Z"/><path class="cls-2" d="M661,938.65l16.2-2.43h3.24l17.82,2.43v6.48H661Zm48.27-102.87H719l37.26,109.35H741.18l-32.56-97h3.72l-33.05,97h-7.61Zm-19,66.42h43.74l2.59,7.45H687.72Zm31.91,36.45,20.42-2.43h3.24L766,938.65v6.48H722.22Z"/><path class="cls-2" d="M830.6,919.69c0-10.53-6.32-15.22-20.41-20.73L804,896.53c-16.52-6.48-27.86-15.88-27.86-32.4,0-18.63,15.71-30,36.29-30a42.93,42.93,0,0,1,26.4,8.58l-1,21.06h-9.72l-4.53-24.46L834,844.69v8.1c-7.93-7.78-13.93-10.53-22.51-10.53-12.64,0-22.2,6.31-22.2,18.46,0,10.21,6.64,16.2,18.47,20.74l6.32,2.43c21.38,8.26,29.64,17.66,29.64,32.89,0,19.11-16,30.78-38.23,30.78-12.15,0-24-3.89-31.43-8.59l1-22.68h9.72l4.22,25-10.53-4.54v-7.77c10,7.29,15.55,10.53,26.56,10.53C820.4,939.46,830.6,932.33,830.6,919.69Z"/><path class="cls-2" d="M858.79,844.69l7.29-8.1-5.19,28.83h-9.07l1.3-28.83h88.45l1.3,28.83H933.8l-5.19-28.83,7.29,8.1ZM899,936.22l22.68,2.43v6.48H873v-6.48l22.69-2.43Zm-8.91-49.41c0-16.69,0-33.54-.49-50.22h15.55c-.48,16.36-.48,33.21-.48,50.22v8.1c0,16.68,0,33.53.48,50.22H889.57c.49-16.36.49-33.21.49-50.22Z"/><path class="cls-2" d="M953.39,843.07v-6.48h22.69v8.91h-1.62Zm24.3,93.15,21.07,2.43v6.48H953.39v-6.48l21.07-2.43Zm-8.91-49.41c0-16.69,0-33.54-.48-50.22h15.55c-.48,16.84-.48,32.72-.48,51.84v4.86c0,18.3,0,35.15.48,51.84H968.3c.48-16.36.48-33.21.48-50.22Zm7.3.81h20.25c17.49,0,25.92-9.4,25.92-22.52,0-13.61-7.29-21.06-24.14-21.06h-22v-7.45h22.19c24.79,0,39.37,10.53,39.37,28.51,0,13.77-10.86,26.24-32.08,28l.49-1.29c11.66,1.13,18.79,6.48,23.16,21.06l7.94,26.89-5-3.08,16.68,1.95v6.48a37.33,37.33,0,0,1-11.66,1.62c-10,0-14.42-2.59-16.36-10l-6.64-26.4c-3.24-13.12-9.24-15.39-22.68-15.39H976.08Z"/><path class="cls-2" d="M1058.53,843.07v-6.48h22.68v8.91h-1.62Zm22.68,93.15v8.91h-22.68v-6.48l21.06-2.43Zm-7.29-49.41c0-16.69,0-33.54-.49-50.22H1089c-.49,16.36-.49,33.21-.49,50.22V893c0,18.63,0,35.48.49,52.17h-15.56c.49-16.36.49-33.21.49-50.22Zm52.16-50.22,7.3,8.1h-52.17v-8.1h57.84l1.13,28.83h-9.07Zm-8.26,56.86h-36.61V886h36.61Zm25.6,22.84-1.13,28.84h-61.08V937h55.41l-7.29,8.1,5-28.84Zm-30.78-28.67,2.43-17.18h7.29v38.4h-7.29l-2.43-18Z"/><path class="cls-2" d="M1156.38,843.07v-6.48h22.68v8.91h-1.62Zm24.3,93.15,21.06,2.43v6.48h-45.36v-6.48l21.06-2.43Zm-8.91-49.41c0-16.69,0-33.54-.49-50.22h15.55c-.48,16.84-.48,32.72-.48,51.84v4.86c0,18.3,0,35.15.48,51.84h-15.55c.49-16.36.49-33.21.49-50.22Zm7.29.81h20.25c17.49,0,25.92-9.4,25.92-22.52,0-13.61-7.29-21.06-24.14-21.06h-22v-7.45h22.19c24.79,0,39.37,10.53,39.37,28.51,0,13.77-10.86,26.24-32.08,28l.49-1.29c11.66,1.13,18.79,6.48,23.16,21.06l7.94,26.89-5-3.08,16.69,1.95v6.48a37.44,37.44,0,0,1-11.67,1.62c-10,0-14.42-2.59-16.36-10l-6.64-26.4c-3.24-13.12-9.24-15.39-22.68-15.39h-15.39Z"/><path class="cls-2" d="M1261.51,843.07v-6.48h45.36v6.48l-21.06,2.43h-3.24Zm24.3,93.15,21.06,2.43v6.48h-45.36v-6.48l21.06-2.43Zm-8.91-49.41c0-16.69,0-33.54-.48-50.22H1292c-.49,16.36-.49,33.21-.49,50.22v8.1c0,16.68,0,33.53.49,50.22h-15.55c.48-16.36.48-33.21.48-50.22Z"/><path class="cls-2" d="M1315,938.65l16.2-2.43h3.24l17.82,2.43v6.48H1315Zm48.28-102.87H1373l37.26,109.35h-15.07l-32.56-97h3.73l-33,97h-7.62Zm-19,66.42H1388l2.59,7.45H1341.7Zm31.92,36.45,20.41-2.43h3.24l20.09,2.43v6.48h-43.74Z"/><path class="cls-2" d="M784.51,1114.09c0-10.53-6.32-15.22-20.41-20.73l-6.16-2.43c-16.52-6.48-27.86-15.88-27.86-32.4,0-18.63,15.71-30,36.29-30a42.93,42.93,0,0,1,26.4,8.58l-1,21.06h-9.72l-4.54-24.46,10.37,5.35v8.1c-7.94-7.78-13.93-10.53-22.52-10.53-12.63,0-22.19,6.31-22.19,18.46,0,10.21,6.64,16.2,18.47,20.74l6.32,2.43c21.38,8.26,29.64,17.66,29.64,32.89,0,19.11-16,30.78-38.23,30.78-12.15,0-24-3.89-31.43-8.59l1-22.68h9.72l4.22,25-10.53-4.54v-7.77c10,7.29,15.55,10.53,26.56,10.53C774.3,1133.86,784.51,1126.73,784.51,1114.09Z"/><path class="cls-2" d="M801.68,1133.05l16.2-2.43h3.24l17.82,2.43v6.48H801.68ZM850,1030.18h9.72l37.26,109.35H881.87l-32.56-97H853l-33,97h-7.62Zm-19,66.42h43.75l2.59,7.45H828.41Zm31.92,36.45,20.41-2.43h3.24l20.09,2.43v6.48H862.92Z"/><path class="cls-2" d="M913.14,1133.05l17-2.43h3.24l18.63,2.43v6.48H913.14Zm10.2-97,10,3.89L914,1037.47V1031h24.3l67.23,92.5v17.17h-5.18Zm3.57-5,8.1,6.48v102.06h-8.1Zm53.46,0h38.88v6.48l-16.2,2.43h-3.24l-19.44-2.43Zm17,0h8.1v109.67l-8.1-8.1Z"/><path class="cls-2" d="M1035.93,1039.09l7.29-8.1-5.18,28.83H1029l1.29-28.83h88.45l1.3,28.83h-9.07l-5.19-28.83,7.29,8.1Zm40.18,91.53,22.68,2.43v6.48h-48.6v-6.48l22.68-2.43Zm-8.91-49.41c0-16.69,0-33.54-.49-50.22h15.55c-.48,16.36-.48,33.21-.48,50.22v8.1c0,16.68,0,33.53.48,50.22h-15.55c.49-16.36.49-33.21.49-50.22Z"/><path class="cls-2" d="M1228.39,1085.26c0,35.48-24.3,56.7-49.41,56.7s-49.57-19.77-49.57-56.7c0-35.48,24.62-56.7,49.57-56.7S1228.39,1048.32,1228.39,1085.26Zm-49.41,48.6c22.84,0,32.4-24.3,32.4-48.6s-9.56-48.6-32.4-48.6-32.56,24.3-32.56,48.6S1156.14,1133.86,1179,1133.86Z"/><path class="cls-2" d="M1299.18,1114.09c0-10.53-6.32-15.22-20.41-20.73l-6.16-2.43c-16.52-6.48-27.86-15.88-27.86-32.4,0-18.63,15.71-30,36.29-30a42.93,42.93,0,0,1,26.4,8.58l-1,21.06h-9.72l-4.54-24.46,10.37,5.35v8.1c-7.94-7.78-13.93-10.53-22.52-10.53-12.63,0-22.19,6.31-22.19,18.46,0,10.21,6.64,16.2,18.47,20.74l6.32,2.43c21.38,8.26,29.64,17.66,29.64,32.89,0,19.11-16,30.78-38.23,30.78-12.15,0-24-3.89-31.43-8.59l1-22.68h9.72l4.21,25L1247,1131.1v-7.77c10,7.29,15.56,10.53,26.57,10.53C1289,1133.86,1299.18,1126.73,1299.18,1114.09Z"/></svg>