<svg id="Layer_1" data-name="Layer 1" xmlns="http://www.w3.org/2000/svg" viewBox="0 0 461.95 135.6"><defs><style>.cls-1,.cls-2{isolation:isolate;}.cls-2{font-size:69.67px;font-family:BodoniSvtyTwoSCITCTT-Book, "Bodoni 72 Smallcaps";}.cls-2,.cls-6{fill:#fff;}.cls-3{fill:#231f20;}.cls-4{letter-spacing:0em;}.cls-5{fill:#242424;}.cls-7{fill:#ba946a;}</style></defs><g class="cls-1"><text class="cls-2" transform="translate(0 88.04) scale(0.98 1)">Sas<tspan class="cls-3" x="90.43" y="0" xml:space="preserve">  </tspan><tspan class="cls-4" x="116.35" y="0">rería</tspan><tspan class="cls-3" x="253.52" y="0"> </tspan><tspan x="266.48" y="0">Sant</tspan><tspan class="cls-3" x="394.32" y="0" xml:space="preserve">    </tspan><tspan x="446.15" y="0">s</tspan></text></g><path class="cls-5" d="M101,2.9c-2.64,3.55-2.6,9.43-2.56,16.23V24c0,3.25,0,6.29.22,9h0c-.09,1.41.73,14.59,4.78,20.11l-2.76,2.24c1.22,1.39,3.29,2.21,6.81,3.65v-9.2a4.92,4.92,0,0,1-2.9-3.42,1.84,1.84,0,0,1,1.34-2.22,2,2,0,0,1,.49,0h0c7.69,0,13.06-10.79,13.06-22.19S114.07,0,106.38,0A6.25,6.25,0,0,0,101,2.9Zm15.1,19c0,10.16-3,17.58-9.62,17.58A4.17,4.17,0,0,1,104,38.23c-1.7-2.1-.69-7-.69-12.42V19.17c0-5.91-1.24-11,.5-13.35a4.58,4.58,0,0,1,2.67-1.5c6.68,0,9.62,7.44,9.62,17.56Z" transform="translate(0 0)"/><path class="cls-5" d="M100.47,55.42l-4,3.24,1.6,37.79c.24,5.66.5,12.25,1.06,18.63a83.88,83.88,0,0,0,4.46,20.52c3.26-19.47,4.08-41.37,3.7-65.49l.13-11.71S104.48,58.62,100.47,55.42Z" transform="translate(0 0)"/><path class="cls-6" d="M103.7,53.48l-2.56,2.06c1,1,3.79,2.11,5.77,2.71V56.14A21,21,0,0,1,103.7,53.48Z" transform="translate(0 0)"/><path class="cls-5" d="M79.81,15.67A10.48,10.48,0,0,0,73,22.08a17,17,0,0,0-.6,10.62A22.55,22.55,0,0,0,79,43.55a10.41,10.41,0,0,0,7.78,2.39c.69-.09,1.89.32,2.07,1,.68,2.56,2.26,8.39,8.27,12.18V70.33c.64,24.11,2.38,46,6.47,65.26a83.64,83.64,0,0,0,3.58-20.7c.29-6.4.28-13,.28-18.66V58.4S94.37,54.9,94,45.14c-.13-4.22,1.58-7.78,3.77-12.3,1-2,.29-4.6-1.26-6.43S92.86,22.48,92,21.28C88.76,17,84.31,14.46,79.81,15.67ZM92.12,29.55c1.49,5.88-.75,11.59-5,12.73a6.88,6.88,0,0,1-6.06-1.53,13.09,13.09,0,0,1-4.34-7.06,14.86,14.86,0,0,1-.46-3.63,12.29,12.29,0,0,1,.9-4.71A7.05,7.05,0,0,1,81.71,21c4.25-1.14,8.91,2.71,10.41,8.59Z" transform="translate(0 0)"/><path class="cls-6" d="M97.63,58.25V70.31c0,1.14.06,2.26.1,3.38h5.84l-5.83.42c.78,24.16.93,47.39,5.92,59.31a83.23,83.23,0,0,0,3-18.55c.25-5.58.27-11.19.27-16.92V58.81A27.64,27.64,0,0,1,100.74,56Z" transform="translate(0 0)"/><path class="cls-6" d="M103.42,39.16a5.17,5.17,0,0,0,3.28,1.65c6.77,0,10.66-6.8,10.66-18.66,0-7.81-1.68-13.42-4.77-16.35,2.75,3,4.25,8.46,4.25,15.81,0,11.86-3.89,18.66-10.67,18.66a5.11,5.11,0,0,1-2.82-1.2Z" transform="translate(0 0)"/><path class="cls-6" d="M101.52,3.29c-2.17,2.92-2.34,7.84-2.34,13v9.3c0,2.33,0,4.78.22,7l.15,3.24c.39,4.44,1.55,12.42,4.4,16.3l.62.84.52.54-.61-.84c-2.86-3.88-4-11.86-4.41-16.3l-.15-3.24c-.19-2.18-.22-4.63-.22-7v-9.3c0-5.21.18-10.12,2.35-13a5.23,5.23,0,0,1,4.59-2.49A8.43,8.43,0,0,1,112.5,4,8.77,8.77,0,0,0,106.12.8,5.24,5.24,0,0,0,101.52,3.29Z" transform="translate(0 0)"/><path class="cls-6" d="M87.92,43.59c3.72-1,6.23-5.07,6.23-10.12a15.72,15.72,0,0,0-.5-3.92c-1.21-4.76-4.37-8.29-7.87-9.3,3.18,1.28,6,4.63,7.09,9a16.19,16.19,0,0,1,.49,3.92c0,5-2.5,9.12-6.23,10.12a6.94,6.94,0,0,1-3.78,0A7.24,7.24,0,0,0,87.92,43.59Z" transform="translate(0 0)"/><path class="cls-6" d="M80.15,43c-3-2.42-5.42-7-6.25-10.26a17.42,17.42,0,0,1-.53-4.25,14.54,14.54,0,0,1,1.09-5.68A9.39,9.39,0,0,1,80.59,17a7.78,7.78,0,0,1,4.28.08,8,8,0,0,0-5.06-.35,9.45,9.45,0,0,0-6.14,5.79,14.91,14.91,0,0,0-1.09,5.68,17,17,0,0,0,.54,4.25c.83,3.26,3.24,7.84,6.25,10.26a10.58,10.58,0,0,0,3.57,1.89A10.66,10.66,0,0,1,80.15,43Z" transform="translate(0 0)"/><path class="cls-6" d="M89.31,46.39c.63,2.38,2.11,8,7.8,11.54a20.8,20.8,0,0,1-7-11.27A2.73,2.73,0,0,0,88,44.94,2.37,2.37,0,0,1,89.31,46.39Z" transform="translate(0 0)"/><ellipse class="cls-5" cx="102.38" cy="67.51" rx="2.17" ry="2.23"/><ellipse class="cls-6" cx="102.38" cy="67.51" rx="1.64" ry="1.69"/><polygon class="cls-5" points="103.01 65.86 103.4 66.08 101.74 69.16 101.36 68.94 103.01 65.86"/><path class="cls-5" d="M422.83,72.4l-1.71-2H421a.57.57,0,0,1-.16.15h-.13l.87,1a10.12,10.12,0,0,1,.75,1.21.45.45,0,0,1-.14.24.34.34,0,0,1-.25.13,9.44,9.44,0,0,1-1-1c-.46-.51-2.28-2.64-2.28-2.64a9.24,9.24,0,0,1-.86-1.19,4.11,4.11,0,0,1-.27-.51c-.09-.2-.06-.24-.06-.24l.21.09a3.9,3.9,0,0,1,.46.34,7.87,7.87,0,0,1,1,1l.16.19.12-.09a.67.67,0,0,1,.2,0,.21.21,0,0,1,.11,0h0c-.72-.84-1.5-1.62-2.27-2.42s-1.53-1.65-2.27-2.5l-9.86-11.9c-8.93-10.41-12.63-13.93-12.67-13.81s2.77,4.31,11.67,14.68l10.08,11.73c.74.85,1.45,1.73,2.13,2.63s1.39,1.85,2.14,2.72l2.88,3.37c.62.76,1.15.26,1.27.15a.85.85,0,0,0,.15-1.19A.86.86,0,0,0,422.83,72.4ZM417,67.67c-.69-.9-1.41-1.79-2.14-2.65L404.74,53.29c-4.57-5.32-7.4-8.84-9-10.85l-1.24-1.68h0c1.75,2.21,4.7,5.75,9.16,11L414.4,64.25c.78.91,1.54,1.87,2.28,2.81.52.78.91,1.53.91,1.53C417.39,68.3,417.19,68,417,67.67Zm5.69,6a.63.63,0,0,1-.41.19.77.77,0,0,1-.48-.32h0L420.43,72l1.27,1.38a1,1,0,0,0,.55.39.78.78,0,0,0,.48-.21l.09-.1a.73.73,0,0,1-.17.18Z" transform="translate(0 0)"/><path class="cls-7" d="M417.94,92a3.29,3.29,0,0,0-.1-.53.2.2,0,0,0-.09-.11.19.19,0,0,0-.15,0h0a.34.34,0,0,0-.15.32,5.62,5.62,0,0,0,.09.57c0,.19.06.38.08.57a.16.16,0,0,0,.17.13.11.11,0,0,0,.07,0,.34.34,0,0,0,.18-.33C418,92.44,418,92.24,417.94,92Z" transform="translate(0 0)"/><path class="cls-7" d="M417.37,91.76a.13.13,0,0,0-.15-.12l-.07,0A.33.33,0,0,0,417,92c0,.19,0,.38.07.58l.06.57c0,.12.11.17.24.11a.36.36,0,0,0,.19-.32C417.49,92.54,417.44,92.16,417.37,91.76Z" transform="translate(0 0)"/><path class="cls-7" d="M418.31,91.23a.14.14,0,0,0-.16-.12.11.11,0,0,0-.07,0,.33.33,0,0,0-.14.33c.06.27.11.54.16.81l.06.32a.15.15,0,0,0,.15.13h.09a.34.34,0,0,0,.17-.34C418.46,92,418.38,91.6,418.31,91.23Z" transform="translate(0 0)"/><path class="cls-7" d="M419.31,91.09c-.05-.17-.11-.33-.16-.5a.15.15,0,0,0-.19-.1l0,0h0a.33.33,0,0,0-.11.34c.11.37.2.74.3,1.12,0,.11.14.14.25.06a.35.35,0,0,0,.14-.35Z" transform="translate(0 0)"/><path class="cls-7" d="M418.72,90.92a.14.14,0,0,0-.16-.12.12.12,0,0,0-.08,0,.33.33,0,0,0-.12.33c.1.38.18.75.26,1.13,0,.11.13.15.25.08A.36.36,0,0,0,419,92Q418.89,91.46,418.72,90.92Z" transform="translate(0 0)"/><path class="cls-7" d="M419.56,90.24a.14.14,0,0,0-.19,0,.12.12,0,0,0-.05,0,.36.36,0,0,0-.1.34c.09.26.17.53.25.79l.1.31a.12.12,0,0,0,.15.1h.1a.52.52,0,0,0,.12-.17.31.31,0,0,0,0-.19A10.76,10.76,0,0,0,419.56,90.24Z" transform="translate(0 0)"/><path class="cls-7" d="M420.57,90c-.07-.16-.14-.32-.22-.48a.14.14,0,0,0-.19-.06.12.12,0,0,0-.06.06h0a.37.37,0,0,0-.07.35c.15.35.29.71.43,1.07,0,.11.15.13.25,0a.35.35,0,0,0,.1-.36Z" transform="translate(0 0)"/><path class="cls-7" d="M420,89.88a.14.14,0,0,0-.19,0l0,0a.35.35,0,0,0-.09.35q.21.52.39,1.08c0,.11.15.13.25,0a.45.45,0,0,0,.11-.17.34.34,0,0,0,0-.2C420.25,90.59,420.11,90.23,420,89.88Z" transform="translate(0 0)"/><path class="cls-7" d="M420.73,89.11a.15.15,0,0,0-.21,0l0,0a.32.32,0,0,0-.06.35l.34.75.12.3a.13.13,0,0,0,.16.09l0,0h.06a.38.38,0,0,0,.08-.37A9,9,0,0,0,420.73,89.11Z" transform="translate(0 0)"/><path class="cls-7" d="M421.7,88.76l-.27-.45a.14.14,0,0,0-.19-.06.12.12,0,0,0-.06.06.3.3,0,0,0-.06.18.28.28,0,0,0,0,.18l.54,1c0,.1.16.11.25,0a.34.34,0,0,0,.06-.37Z" transform="translate(0 0)"/><path class="cls-7" d="M421.09,88.76a.14.14,0,0,0-.19-.06.12.12,0,0,0-.06.06.38.38,0,0,0,0,.36c.17.33.34.68.5,1,0,.11.16.11.26,0a.36.36,0,0,0,.07-.37A9.63,9.63,0,0,0,421.09,88.76Z" transform="translate(0 0)"/><path class="cls-7" d="M421.77,87.85a.14.14,0,0,0-.19-.06.12.12,0,0,0-.06.06.28.28,0,0,0-.06.18.25.25,0,0,0,0,.17l.42.72.15.28a.14.14,0,0,0,.2,0h0l.05,0a.34.34,0,0,0,0-.37Z" transform="translate(0 0)"/><path class="cls-7" d="M422.7,87.38c-.1-.15-.21-.29-.31-.43a.15.15,0,0,0-.21,0s0,0,0,0h0a.38.38,0,0,0,0,.36,11.51,11.51,0,0,1,.63,1,.15.15,0,0,0,.26,0,.37.37,0,0,0,0-.38A4.45,4.45,0,0,0,422.7,87.38Z" transform="translate(0 0)"/><path class="cls-7" d="M422.09,87.41a.14.14,0,0,0-.19-.06.12.12,0,0,0-.06.06.3.3,0,0,0-.06.18.28.28,0,0,0,0,.18c.21.32.41.64.61,1,.06.1.17.09.25,0a.37.37,0,0,0,0-.38Z" transform="translate(0 0)"/><path class="cls-7" d="M422.68,86.48a.16.16,0,0,0-.25,0,.38.38,0,0,0,0,.36l.48.67.19.26a.13.13,0,0,0,.18,0l0,0v0a.37.37,0,0,0,0-.38A7.18,7.18,0,0,0,422.68,86.48Z" transform="translate(0 0)"/><path class="cls-7" d="M423.57,85.91l-.35-.39a.13.13,0,0,0-.18,0,.15.15,0,0,0-.06.09h0a.38.38,0,0,0,0,.36c.25.28.49.58.73.87a.15.15,0,0,0,.25,0,.37.37,0,0,0,0-.38Z" transform="translate(0 0)"/><path class="cls-7" d="M423,86a.14.14,0,0,0-.19-.06.12.12,0,0,0-.06.06.38.38,0,0,0,0,.36c.23.3.47.6.69.91a.17.17,0,0,0,.26,0,.37.37,0,0,0,0-.38C423.44,86.59,423.2,86.29,423,86Z" transform="translate(0 0)"/><path class="cls-7" d="M423.47,85a.14.14,0,0,0-.2,0,.16.16,0,0,0,0,.07.38.38,0,0,0,0,.36c.19.2.37.4.54.61l.21.24a.13.13,0,0,0,.18,0l0,0v-.05a.37.37,0,0,0,0-.38Z" transform="translate(0 0)"/><path class="cls-7" d="M424.31,84.37l-.38-.36c-.08-.08-.19,0-.24.07h0a.39.39,0,0,0,.06.36c.27.26.53.53.8.81.08.08.19,0,.24-.08a.35.35,0,0,0,0-.37Z" transform="translate(0 0)"/><path class="cls-7" d="M423.7,84.52a.14.14,0,0,0-.2,0,.16.16,0,0,0,0,.07.36.36,0,0,0,.05.36c.26.27.52.55.77.83.08.09.19.06.25-.06a.37.37,0,0,0,0-.38C424.24,85.06,424,84.76,423.7,84.52Z" transform="translate(0 0)"/><path class="cls-7" d="M424.13,83.5c-.09-.08-.19,0-.24.07a.37.37,0,0,0,.07.36l.59.56.23.22a.13.13,0,0,0,.18,0l0,0v-.06a.36.36,0,0,0-.06-.37A9.86,9.86,0,0,0,424.13,83.5Z" transform="translate(0 0)"/><path class="cls-7" d="M425.37,83.16l-.46-.39-.41-.32a.14.14,0,0,0-.2,0,.09.09,0,0,0,0,.07h0a.35.35,0,0,0,.08.35c.29.23.58.48.86.73.09.08.2,0,.24-.09A.34.34,0,0,0,425.37,83.16Z" transform="translate(0 0)"/><path class="cls-7" d="M424.31,83c-.09-.07-.19,0-.23.09a.37.37,0,0,0,.07.35c.28.25.57.5.84.76.09.08.2,0,.24-.09a.35.35,0,0,0-.06-.37Z" transform="translate(0 0)"/><path class="cls-7" d="M425.56,82.6l-.9-.69c-.09-.06-.19,0-.23.1a.37.37,0,0,0,.1.35l.63.5.25.2a.12.12,0,0,0,.17,0l0,0a.09.09,0,0,0,0-.07A.33.33,0,0,0,425.56,82.6Z" transform="translate(0 0)"/><path class="cls-7" d="M425.88,81.47l-.5-.35-.43-.29c-.1-.06-.2,0-.23.12h0a.36.36,0,0,0,.12.34l.91.65c.09.07.2,0,.23-.11A.35.35,0,0,0,425.88,81.47Z" transform="translate(0 0)"/><path class="cls-7" d="M425.72,82c-.29-.22-.6-.44-.91-.65-.09-.07-.19,0-.22.1a.31.31,0,0,0,.1.34l.9.68c.09.08.19,0,.23-.1A.36.36,0,0,0,425.72,82Z" transform="translate(0 0)"/><path class="cls-7" d="M426,80.89c-.31-.2-.62-.41-.94-.6-.1-.06-.2,0-.22.12a.32.32,0,0,0,.12.33l.67.45.26.18a.14.14,0,0,0,.2,0,0,0,0,0,0,0,0v-.07A.35.35,0,0,0,426,80.89Z" transform="translate(0 0)"/><path class="cls-7" d="M426.24,79.76l-.52-.29-.45-.25c-.1-.06-.2,0-.22.13h0a.31.31,0,0,0,0,.19.26.26,0,0,0,.11.14l1,.57c.1.06.2,0,.23-.14A.36.36,0,0,0,426.24,79.76Z" transform="translate(0 0)"/><path class="cls-7" d="M426.14,80.32c-.32-.2-.64-.4-1-.58-.09-.06-.19,0-.21.12a.33.33,0,0,0,.13.34c.32.19.63.39,1,.6.09.06.19,0,.22-.13A.37.37,0,0,0,426.14,80.32Z" transform="translate(0 0)"/><path class="cls-7" d="M426.31,79.15l-1-.52a.15.15,0,0,0-.2.08.13.13,0,0,0,0,.06.33.33,0,0,0,.15.33l.71.38.27.16a.14.14,0,0,0,.19-.06V79.5A.36.36,0,0,0,426.31,79.15Z" transform="translate(0 0)"/><path class="cls-7" d="M426.46,78l-.55-.24-.47-.21c-.1,0-.19,0-.2.15h0a.35.35,0,0,0,.17.32c.34.15.67.31,1,.48.1,0,.19,0,.21-.16a.34.34,0,0,0,0-.2A.36.36,0,0,0,426.46,78Z" transform="translate(0 0)"/><path class="cls-7" d="M426.41,78.56l-1-.48a.15.15,0,0,0-.2.08.13.13,0,0,0,0,.06.34.34,0,0,0,.16.32l1,.51c.11.06.2,0,.22-.14A.38.38,0,0,0,426.41,78.56Z" transform="translate(0 0)"/><path class="cls-7" d="M426.5,77.38l-1-.41c-.11,0-.19,0-.2.15a.32.32,0,0,0,.18.31l.73.32.29.13c.08,0,.16,0,.19-.1a.09.09,0,0,0,0-.07A.35.35,0,0,0,426.5,77.38Z" transform="translate(0 0)"/><path class="cls-7" d="M426.52,76.2,426,76l-.5-.16c-.1,0-.19,0-.18.18h0a.33.33,0,0,0,.2.29l.52.18.52.19c.11,0,.2,0,.2-.18A.35.35,0,0,0,426.52,76.2Z" transform="translate(0 0)"/><path class="cls-7" d="M426.52,76.76l-1-.38c-.11,0-.2,0-.2.16a.35.35,0,0,0,.19.3l1,.41c.11,0,.2,0,.21-.16A.37.37,0,0,0,426.52,76.76Z" transform="translate(0 0)"/><path class="cls-7" d="M426.5,75.6c-.35-.11-.71-.21-1.07-.3-.11,0-.19,0-.18.18a.33.33,0,0,0,.21.28l.77.24.29.1c.09,0,.16,0,.18-.12a.09.09,0,0,0,0-.07A.35.35,0,0,0,426.5,75.6Z" transform="translate(0 0)"/><path class="cls-7" d="M426.55,74.51a.34.34,0,0,0-.16-.1l-.58-.12-.5-.08a.15.15,0,0,0-.17.12.09.09,0,0,0,0,.07h0a.34.34,0,0,0,.23.26l1.08.24a.17.17,0,0,0,.18-.2A.46.46,0,0,0,426.55,74.51Z" transform="translate(0 0)"/><path class="cls-7" d="M426.46,75l-1.08-.25a.15.15,0,0,0-.17.19.28.28,0,0,0,.07.17.25.25,0,0,0,.15.1c.35.09.71.18,1.07.29a.16.16,0,0,0,.18-.19A.35.35,0,0,0,426.46,75Z" transform="translate(0 0)"/><path class="cls-7" d="M426.31,73.81l-.54-.08-.55-.06a.16.16,0,0,0-.17.13.17.17,0,0,0,0,.07.32.32,0,0,0,.24.25l.4.06.39.07.3.06a.14.14,0,0,0,.17-.11v-.1A.36.36,0,0,0,426.31,73.81Z" transform="translate(0 0)"/><path class="cls-7" d="M425.06,73.06l1.1.06c.11,0,.18-.08.14-.22a.42.42,0,0,0-.11-.18.25.25,0,0,0-.16-.08h-1.11a.15.15,0,0,0-.15.15.14.14,0,0,0,0,.07h0A.32.32,0,0,0,425.06,73.06Z" transform="translate(0 0)"/><path class="cls-7" d="M425.19,73.58a6.78,6.78,0,0,1,1.09.14c.12,0,.19-.08.16-.22a.39.39,0,0,0-.26-.28c-.37,0-.74-.06-1.1-.08a.16.16,0,0,0-.16.16.09.09,0,0,0,0,0A.31.31,0,0,0,425.19,73.58Z" transform="translate(0 0)"/><path class="cls-7" d="M424.73,72.5a.43.43,0,0,0,.16,0H426a.14.14,0,0,0,.14-.14v-.1a.33.33,0,0,0-.29-.24,8.29,8.29,0,0,0-1.11.08.16.16,0,0,0-.14.16.14.14,0,0,0,0,.06A.42.42,0,0,0,424.73,72.5Z" transform="translate(0 0)"/><path class="cls-7" d="M424.47,71.59l.54-.11a5.21,5.21,0,0,1,.55-.08c.11,0,.15-.13.09-.27a.33.33,0,0,0-.33-.19,2.11,2.11,0,0,0-.59.14l-.48.15a.15.15,0,0,0-.11.18l0,.06h0A.29.29,0,0,0,424.47,71.59Z" transform="translate(0 0)"/><path class="cls-7" d="M424.7,72.05c.36,0,.73-.08,1.1-.09a.14.14,0,0,0,.12-.07.28.28,0,0,0,0-.18.33.33,0,0,0-.31-.22l-.55.07a5.17,5.17,0,0,0-.54.11c-.11,0-.15.12-.1.23A.3.3,0,0,0,424.7,72.05Z" transform="translate(0 0)"/><path class="cls-7" d="M424.2,71.16a5.15,5.15,0,0,1,.76-.24l.3-.07c.1,0,.13-.11.1-.21v-.06a.39.39,0,0,0-.16-.15.31.31,0,0,0-.19,0l-.52.19-.51.23a.15.15,0,0,0-.07.21.05.05,0,0,0,0,0A.29.29,0,0,0,424.2,71.16Z" transform="translate(0 0)"/><path class="cls-7" d="M423.89,70.76c.16-.08.33-.17.5-.24l.26-.11.26-.09a.14.14,0,0,0,.09-.11.18.18,0,0,0-.06-.17.35.35,0,0,0-.38-.13l-.5.27-.23.15-.23.16a.19.19,0,0,0-.07.12.13.13,0,0,0,0,.12A.29.29,0,0,0,423.89,70.76Z" transform="translate(0 0)"/><path class="cls-7" d="M422.86,70.27a.29.29,0,0,0,.29-.08,4,4,0,0,1,.29-.29,1.93,1.93,0,0,1,.3-.27l.25-.19a.14.14,0,0,0,0-.19l0,0-.06-.06a.43.43,0,0,0-.22-.06.29.29,0,0,0-.18.07,3.88,3.88,0,0,0-.39.42q-.18.23-.33.45C422.75,70.13,422.77,70.24,422.86,70.27Z" transform="translate(0 0)"/><path class="cls-7" d="M423.23,70.47h0a.22.22,0,0,0,.16,0,.27.27,0,0,0,.15,0c.15-.12.3-.22.46-.33a3.36,3.36,0,0,1,.49-.27c.17-.08.1-.18,0-.29a.35.35,0,0,0-.39-.06,4.37,4.37,0,0,0-.48.37,3.24,3.24,0,0,0-.38.36.19.19,0,0,0-.05.13A.15.15,0,0,0,423.23,70.47Z" transform="translate(0 0)"/><path class="cls-7" d="M422.46,70.15h.15a.25.25,0,0,0,.12-.11l.16-.24c.05-.08.11-.15.17-.23s.24-.29.37-.43,0-.2-.11-.26h-.23a.27.27,0,0,0-.17.1,5.45,5.45,0,0,0-.56,1A.16.16,0,0,0,422.46,70.15Z" transform="translate(0 0)"/><path class="cls-7" d="M422,70.09h0a.27.27,0,0,0,.25-.18,5.6,5.6,0,0,1,.53-1,.19.19,0,0,0,0-.15.26.26,0,0,0-.16-.09.31.31,0,0,0-.23,0,.32.32,0,0,0-.15.13,4,4,0,0,0-.23.57c-.06.17-.11.34-.16.51S421.94,70.1,422,70.09Z" transform="translate(0 0)"/><path class="cls-7" d="M421.6,70.12a.29.29,0,0,0,.14-.08.42.42,0,0,0,.09-.14,7.32,7.32,0,0,1,.23-.8.78.78,0,0,1,.13-.3.15.15,0,0,0-.07-.19H422a.38.38,0,0,0-.34.21,8.52,8.52,0,0,0-.23,1.14.15.15,0,0,0,.13.17Z" transform="translate(0 0)"/><path class="cls-7" d="M420.88,70.08v-.24a4.08,4.08,0,0,1,.07-.92.13.13,0,0,0-.06-.14.25.25,0,0,0-.17,0,.35.35,0,0,0-.26.29v.63a4.69,4.69,0,0,0,0,.53.15.15,0,0,0,.15.15h.05A.32.32,0,0,0,420.88,70.08Z" transform="translate(0 0)"/><path class="cls-7" d="M420.37,69.1a.13.13,0,0,0-.13-.15h-.19L420,69a.32.32,0,0,0-.07.19,2.32,2.32,0,0,0,0,.58c.05.2,0,.19,0,.29v.28a.16.16,0,0,0,.17.13l.05,0h0a.31.31,0,0,0,.12-.27,5.75,5.75,0,0,1,0-.83v-.32Z" transform="translate(0 0)"/><path class="cls-7" d="M421.56,68.82c0-.12-.06-.2-.21-.18a.25.25,0,0,0-.2.09.37.37,0,0,0-.1.17,8.44,8.44,0,0,0-.09,1V70c0,.12.08.19.19.16h0a.34.34,0,0,0,.16-.24,1.41,1.41,0,0,1,.08-.57A3.86,3.86,0,0,0,421.56,68.82Z" transform="translate(0 0)"/><path class="cls-7" d="M419,69.54l.29.34v-.26C419.32,69.53,419.15,69.47,419,69.54Z" transform="translate(0 0)"/><path class="cls-7" d="M419.81,69.33c0-.12-.11-.17-.24-.11a.39.39,0,0,0-.19.23.21.21,0,0,0,0,.11,2.33,2.33,0,0,0,.08.46l.51.59a.29.29,0,0,0,0-.13,1,1,0,0,0-.07-.44A2.79,2.79,0,0,1,419.81,69.33Z" transform="translate(0 0)"/><path class="cls-7" d="M418.37,70.14h0a.23.23,0,0,0,0,.2,2.1,2.1,0,0,0,.13.26,2,2,0,0,0,.14.25,5.3,5.3,0,0,0,.34.45.19.19,0,0,0,.12.07.16.16,0,0,0,.11-.05.37.37,0,0,0,0-.21l-.69-.8Z" transform="translate(0 0)"/><path class="cls-7" d="M417.79,71a.26.26,0,0,0-.12.15.57.57,0,0,0,0,.26.31.31,0,0,0,.09.18,3.48,3.48,0,0,0,.51.34l.45.23c.11,0,.2,0,.21-.1h0a.29.29,0,0,0-.13-.27l-.23-.16-.21-.18a3.87,3.87,0,0,1-.4-.41.11.11,0,0,0-.15-.06S417.8,71,417.79,71Z" transform="translate(0 0)"/><path class="cls-7" d="M417.59,71.7a.17.17,0,0,0-.09.11.11.11,0,0,0,0,.08.36.36,0,0,0,.15.39l.26.12.26.1a4.64,4.64,0,0,0,.53.16.14.14,0,0,0,.18-.08.13.13,0,0,0,0-.06.23.23,0,0,0-.06-.16.26.26,0,0,0-.13-.1l-.36-.16-.35-.2-.26-.18A.14.14,0,0,0,417.59,71.7Z" transform="translate(0 0)"/><path class="cls-7" d="M418,70.51a.5.5,0,0,0-.09.24.29.29,0,0,0,.05.2,3.89,3.89,0,0,0,.38.43,4.82,4.82,0,0,0,.43.36c.09.06.19,0,.22,0a.2.2,0,0,0,0-.15.28.28,0,0,0-.08-.15,3.65,3.65,0,0,1-.35-.43,5.09,5.09,0,0,1-.3-.5C418.24,70.36,418.12,70.38,418,70.51Z" transform="translate(0 0)"/><path class="cls-7" d="M418.74,73.26a10,10,0,0,1-1.09-.21c-.11,0-.18.06-.17.21a.72.72,0,0,0,.09.2.34.34,0,0,0,.16.1l.59.09.51,0a.16.16,0,0,0,.16-.14.13.13,0,0,0,0-.06h0A.33.33,0,0,0,418.74,73.26Z" transform="translate(0 0)"/><path class="cls-7" d="M417.5,72.82a.28.28,0,0,0,.14.12,8.12,8.12,0,0,0,1.09.23.15.15,0,0,0,.17-.18.3.3,0,0,0-.22-.24,4.61,4.61,0,0,1-.53-.15l-.52-.2c-.11,0-.2,0-.2.2A.44.44,0,0,0,417.5,72.82Z" transform="translate(0 0)"/><path class="cls-7" d="M417.86,74.16l1.1.06a.15.15,0,0,0,.15-.21.34.34,0,0,0-.26-.23,3,3,0,0,1-.79-.07h-.31a.14.14,0,0,0-.16.12v.11A.34.34,0,0,0,417.86,74.16Z" transform="translate(0 0)"/><path class="cls-7" d="M419.15,74.85H418c-.11,0-.17.1-.13.23a.35.35,0,0,0,.28.24h1.12c.12,0,.17-.11.13-.23h0A.32.32,0,0,0,419.15,74.85Z" transform="translate(0 0)"/><path class="cls-7" d="M418,74.76h1.1c.11,0,.17-.1.14-.22a.34.34,0,0,0-.27-.23,8.25,8.25,0,0,1-1.11,0c-.11,0-.17.09-.14.22A.37.37,0,0,0,418,74.76Z" transform="translate(0 0)"/><path class="cls-7" d="M419.47,75.84c.12,0,.17-.11.13-.23a.29.29,0,0,0-.28-.22h-1.1a.14.14,0,0,0-.15.13v.1a.32.32,0,0,0,.28.23Z" transform="translate(0 0)"/><path class="cls-7" d="M418.72,76.93h1.11c.11,0,.17-.1.13-.23h0a.32.32,0,0,0-.28-.23h-1.1c-.12,0-.17.1-.13.23A.34.34,0,0,0,418.72,76.93Z" transform="translate(0 0)"/><path class="cls-7" d="M418.55,76.39h1.1c.12,0,.17-.1.13-.23a.32.32,0,0,0-.28-.22h-1.1c-.12,0-.17.1-.13.23A.32.32,0,0,0,418.55,76.39Z" transform="translate(0 0)"/><path class="cls-7" d="M418.89,77.47H420c.11,0,.17-.1.13-.23a.32.32,0,0,0-.27-.24h-1.11a.14.14,0,0,0-.14.14v.08A.31.31,0,0,0,418.89,77.47Z" transform="translate(0 0)"/><path class="cls-7" d="M420.18,78.16a10.32,10.32,0,0,1-1.11-.06c-.11,0-.17.09-.14.21a.31.31,0,0,0,.26.23l.59,0h.51c.12,0,.18-.08.15-.22h0A.33.33,0,0,0,420.18,78.16Z" transform="translate(0 0)"/><path class="cls-7" d="M419.05,78a6.7,6.7,0,0,1,1.1.06c.12,0,.18-.1.15-.23a.36.36,0,0,0-.27-.25h-1.11c-.11,0-.17.09-.14.22A.35.35,0,0,0,419.05,78Z" transform="translate(0 0)"/><path class="cls-7" d="M420.31,78.76l-.79-.08h-.31a.14.14,0,0,0-.15.13v.08a.32.32,0,0,0,.25.24,6.92,6.92,0,0,1,1.1.15.16.16,0,0,0,.16-.22A.33.33,0,0,0,420.31,78.76Z" transform="translate(0 0)"/><path class="cls-7" d="M420.52,79.92l-.55-.11-.54-.1a.15.15,0,0,0-.17.12.09.09,0,0,0,0,.07.34.34,0,0,0,.23.26l.58.14.49.13a.17.17,0,0,0,.18-.2h0A.35.35,0,0,0,420.52,79.92Z" transform="translate(0 0)"/><path class="cls-7" d="M420.43,79.33c-.37-.07-.73-.12-1.1-.16a.16.16,0,0,0-.16.2.32.32,0,0,0,.24.25c.37.06.73.12,1.09.21a.16.16,0,0,0,.17-.21A.35.35,0,0,0,420.43,79.33Z" transform="translate(0 0)"/><path class="cls-7" d="M420.57,80.53c-.26-.08-.51-.15-.77-.21l-.3-.07a.14.14,0,0,0-.17.09,0,0,0,0,0,0,0v.06a.31.31,0,0,0,.21.27l.53.16.53.18a.17.17,0,0,0,.19-.19A.35.35,0,0,0,420.57,80.53Z" transform="translate(0 0)"/><path class="cls-7" d="M420.59,81.14c-.35-.13-.7-.25-1.06-.35-.1,0-.19,0-.18.17a.27.27,0,0,0,.06.17.28.28,0,0,0,.13.11,9.07,9.07,0,0,1,1,.41c.1,0,.19,0,.2-.17A.36.36,0,0,0,420.59,81.14Z" transform="translate(0 0)"/><path class="cls-7" d="M420.73,82.11h0a.35.35,0,0,0-.16-.35l-1-.42c-.11,0-.19,0-.2.15a.34.34,0,0,0,.18.3l.54.25a4,4,0,0,1,.46.24C420.62,82.32,420.72,82.25,420.73,82.11Z" transform="translate(0 0)"/><path class="cls-7" d="M420.64,82.76a.36.36,0,0,0-.13-.36c-.24-.14-.48-.26-.72-.37l-.28-.13a.13.13,0,0,0-.18,0s0,0,0,0V82a.35.35,0,0,0,.15.31c.33.17.65.36,1,.56C420.52,82.94,420.62,82.87,420.64,82.76Z" transform="translate(0 0)"/><path class="cls-7" d="M420.51,83.35a.21.21,0,0,0,0-.11v-.11a.27.27,0,0,0-.1-.16,9.9,9.9,0,0,0-1-.57c-.1-.06-.19,0-.22.11a.34.34,0,0,0,.13.32l.24.15.23.16c.15.1.3.22.45.34S420.46,83.5,420.51,83.35Z" transform="translate(0 0)"/><path class="cls-7" d="M420.05,84.57a.41.41,0,0,0,0-.4,6.32,6.32,0,0,0-.6-.56l-.24-.2a.13.13,0,0,0-.18,0l0,0v0a.54.54,0,0,0,0,.18.28.28,0,0,0,.08.15,8.82,8.82,0,0,1,.77.84C419.87,84.76,420,84.7,420.05,84.57Z" transform="translate(0 0)"/><path class="cls-7" d="M420.31,84h0a.81.81,0,0,0,0-.22.56.56,0,0,0-.09-.17,8.44,8.44,0,0,0-.91-.66.11.11,0,0,0-.13,0,.14.14,0,0,0-.09.11.28.28,0,0,0,.11.32l.45.38.39.36C420.14,84.16,420.25,84.11,420.31,84Z" transform="translate(0 0)"/><path class="cls-7" d="M419.73,85.13a.36.36,0,0,0,0-.4c-.12-.15-.24-.3-.37-.44s-.25-.28-.38-.41a.14.14,0,0,0-.19,0,.12.12,0,0,0-.05,0,.3.3,0,0,0,0,.34c.12.14.23.29.35.44a5,5,0,0,1,.33.47C419.52,85.29,419.66,85.26,419.73,85.13Z" transform="translate(0 0)"/><path class="cls-7" d="M419,86.13a.35.35,0,0,0,.07-.39c-.13-.24-.26-.48-.41-.71l-.17-.27a.13.13,0,0,0-.2,0h-.05a.3.3,0,0,0,0,.34c.09.17.19.34.27.51l.25.51C418.81,86.29,418.88,86.24,419,86.13Z" transform="translate(0 0)"/><path class="cls-7" d="M419.37,85.65h0a.36.36,0,0,0,0-.4c-.1-.16-.21-.31-.32-.47l-.35-.45a.15.15,0,0,0-.21,0l0,0a.3.3,0,0,0,0,.34l.33.52c.1.15.18.3.27.46A.17.17,0,0,0,419.37,85.65Z" transform="translate(0 0)"/><path class="cls-7" d="M418.54,86.57a.42.42,0,0,0,.11-.18.31.31,0,0,0,0-.19,9.4,9.4,0,0,0-.51-1,.14.14,0,0,0-.19,0l-.05,0a.33.33,0,0,0,0,.34l.12.27.11.26.21.54S418.44,86.67,418.54,86.57Z" transform="translate(0 0)"/><path class="cls-7" d="M418.08,87h0a.41.41,0,0,0,.12-.17.34.34,0,0,0,0-.2c-.13-.36-.27-.72-.42-1.06a.15.15,0,0,0-.21,0l0,0a.33.33,0,0,0-.07.34c.07.19.14.38.2.58s.11.34.16.51S418,87.07,418.08,87Z" transform="translate(0 0)"/><path class="cls-7" d="M417.6,87.35a.43.43,0,0,0,.13-.17.31.31,0,0,0,0-.19c-.07-.27-.16-.53-.24-.79l-.11-.3a.15.15,0,0,0-.17-.11h-.07a.31.31,0,0,0-.1.34c.11.36.21.73.29,1.11A.16.16,0,0,0,417.6,87.35Z" transform="translate(0 0)"/><path class="cls-7" d="M416.74,86.14a.31.31,0,0,0-.12.32c.09.37.16.75.23,1.14,0,.11.13.15.24.08a.34.34,0,0,0,.17-.34c-.08-.39-.18-.76-.28-1.12a.15.15,0,0,0-.18-.11Z" transform="translate(0 0)"/><path class="cls-7" d="M416.58,88a.35.35,0,0,0,.18-.33c-.06-.39-.13-.77-.22-1.14a.14.14,0,0,0-.16-.12.11.11,0,0,0-.07,0,.34.34,0,0,0-.14.32,4.55,4.55,0,0,0,.1.61l.06.53c0,.12.12.16.25.1Z" transform="translate(0 0)"/><path class="cls-7" d="M416.25,87.92a5.9,5.9,0,0,0-.11-.83.67.67,0,0,0-.05-.31.14.14,0,0,0-.12-.14h-.1a.33.33,0,0,0-.17.31c.05.38.08.76.11,1.15,0,.12.11.17.23.11A.34.34,0,0,0,416.25,87.92Z" transform="translate(0 0)"/><path class="cls-7" d="M414.93,87.1a.3.3,0,0,0-.19.29v1.16c0,.18.1.18.22.14h0a.52.52,0,0,0,.17-.12.3.3,0,0,0,.06-.18V87.23a.15.15,0,0,0-.11-.18A.17.17,0,0,0,414.93,87.1Z" transform="translate(0 0)"/><path class="cls-7" d="M414.51,87.27h-.06a.31.31,0,0,0-.21.28,7.32,7.32,0,0,1-.06,1.15.15.15,0,0,0,.22.15.36.36,0,0,0,.24-.28V87.41a.13.13,0,0,0-.12-.14Z" transform="translate(0 0)"/><path class="cls-7" d="M415.41,86.9a.34.34,0,0,0-.18.3v1.15c0,.12.11.18.23.13a.33.33,0,0,0,.22-.31,10.92,10.92,0,0,0-.09-1.15.14.14,0,0,0-.17-.12Z" transform="translate(0 0)"/><path class="cls-7" d="M413.13,87.84a.14.14,0,0,0-.11-.17h-.08a.3.3,0,0,0-.24.24c-.06.38-.12.77-.2,1.14,0,.12.06.2.2.18A.33.33,0,0,0,413,89a7.36,7.36,0,0,1,.12-.82A3.11,3.11,0,0,0,413.13,87.84Z" transform="translate(0 0)"/><path class="cls-7" d="M413.45,87.56a.34.34,0,0,0-.23.27,4.25,4.25,0,0,1-.08.61c0,.2-.05.36-.08.53s.08.2.21.17h0a.35.35,0,0,0,.26-.26c0-.39.09-.77.12-1.15a.15.15,0,0,0-.14-.17S413.47,87.56,413.45,87.56Z" transform="translate(0 0)"/><path class="cls-7" d="M414,87.43a.34.34,0,0,0-.22.27v.58a1.94,1.94,0,0,1-.06.58.15.15,0,0,0,.12.17.14.14,0,0,0,.09,0,.34.34,0,0,0,.26-.28c0-.39.05-.77.06-1.15a.15.15,0,0,0-.08-.2A.14.14,0,0,0,414,87.43Z" transform="translate(0 0)"/><path class="cls-7" d="M411.56,88.06a.16.16,0,0,0-.09-.18h-.08a.38.38,0,0,0-.17.08.21.21,0,0,0-.1.14c-.1.37-.21.74-.32,1.11,0,.11,0,.2.17.2a.34.34,0,0,0,.3-.21q.12-.4.21-.81Z" transform="translate(0 0)"/><path class="cls-7" d="M411.91,87.83a.3.3,0,0,0-.26.23l-.15.6a2.64,2.64,0,0,1-.13.52c0,.18.05.2.18.19h0a.33.33,0,0,0,.29-.23c.09-.37.17-.75.25-1.13a.15.15,0,0,0-.11-.18A.09.09,0,0,0,411.91,87.83Z" transform="translate(0 0)"/><path class="cls-7" d="M412.43,87.76a.35.35,0,0,0-.26.24c-.07.38-.15.76-.24,1.13,0,.12.06.2.19.19a.36.36,0,0,0,.29-.24c.07-.38.14-.76.2-1.14a.15.15,0,0,0-.11-.18A.09.09,0,0,0,412.43,87.76Z" transform="translate(0 0)"/><path class="cls-7" d="M410,88.1a.15.15,0,0,0-.08-.2h-.07a.32.32,0,0,0-.29.18c-.14.36-.28.72-.43,1.07-.05.11,0,.21.15.22a.33.33,0,0,0,.32-.18c.1-.26.2-.52.29-.78Z" transform="translate(0 0)"/><path class="cls-7" d="M410.31,87.9a.33.33,0,0,0-.28.2l-.21.59c-.06.16-.12.33-.19.49a.16.16,0,0,0,.07.2h.09a.32.32,0,0,0,.31-.19c.13-.36.25-.73.36-1.09a.16.16,0,0,0-.1-.2Z" transform="translate(0 0)"/><path class="cls-7" d="M410.87,87.9a.31.31,0,0,0-.28.21c-.11.36-.23.73-.36,1.09,0,.11,0,.2.17.21a.31.31,0,0,0,.3-.21q.18-.56.33-1.11a.13.13,0,0,0-.08-.18A.11.11,0,0,0,410.87,87.9Z" transform="translate(0 0)"/><path class="cls-7" d="M408.77,87.76a.54.54,0,0,0-.18,0,.37.37,0,0,0-.12.13l-.26.56-.24.47a.15.15,0,0,0,.07.21l.07,0h0a.32.32,0,0,0,.33-.16c.16-.35.32-.7.47-1C409,87.91,408.89,87.82,408.77,87.76Z" transform="translate(0 0)"/><path class="cls-7" d="M408.38,88a.15.15,0,0,0-.07-.2h-.06a.3.3,0,0,0-.31.16c-.17.34-.34.68-.53,1-.05.1,0,.2.14.23a.33.33,0,0,0,.33-.15l.37-.74Z" transform="translate(0 0)"/><path class="cls-7" d="M409.44,88.07a.15.15,0,0,0-.08-.2h-.06a.3.3,0,0,0-.3.17,10.34,10.34,0,0,1-.47,1c0,.11,0,.21.15.22a.31.31,0,0,0,.32-.17c.08-.17.15-.35.23-.52Z" transform="translate(0 0)"/><path class="cls-7" d="M407.31,87.76a.16.16,0,0,0-.05-.21l-.06,0a.3.3,0,0,0-.32.13l-.31.53c-.1.15-.19.31-.28.46s0,.2.12.23h0a.32.32,0,0,0,.34-.12l.28-.5A1.89,1.89,0,0,0,407.31,87.76Z" transform="translate(0 0)"/><path class="cls-7" d="M406.81,87.65a.16.16,0,0,0-.05-.21h-.06a.28.28,0,0,0-.18,0,.26.26,0,0,0-.14.11c-.2.32-.41.64-.62,1a.16.16,0,0,0,.05.22l.06,0a.31.31,0,0,0,.35-.11l.43-.7Z" transform="translate(0 0)"/><path class="cls-7" d="M407.73,87.64a.3.3,0,0,0-.31.15c-.18.34-.37.67-.56,1a.16.16,0,0,0,.06.22l.06,0a.35.35,0,0,0,.34-.14c.19-.34.36-.68.53-1a.16.16,0,0,0,0-.22A.11.11,0,0,0,407.73,87.64Z" transform="translate(0 0)"/><path class="cls-7" d="M405.31,87.2a.15.15,0,0,0,0-.21h-.07a.33.33,0,0,0-.33.09l-.69.9a.16.16,0,0,0,0,.23l.06,0a.36.36,0,0,0,.36-.08l.49-.66Z" transform="translate(0 0)"/><path class="cls-7" d="M405.69,87.12a.3.3,0,0,0-.33.1l-.36.5c-.1.15-.21.29-.32.43a.16.16,0,0,0,0,.22.09.09,0,0,0,.06,0h0a.33.33,0,0,0,.35-.1l.65-.93a.16.16,0,0,0,0-.22S405.71,87.13,405.69,87.12Z" transform="translate(0 0)"/><path class="cls-7" d="M406.19,87.28a.32.32,0,0,0-.33.11c-.2.32-.42.63-.64.94a.16.16,0,0,0,0,.22.09.09,0,0,0,.06,0,.33.33,0,0,0,.35-.1c.22-.32.42-.64.62-1a.15.15,0,0,0-.08-.19Z" transform="translate(0 0)"/><path class="cls-7" d="M403.77,86.6a.14.14,0,0,0,0-.2s0,0,0,0h0a.31.31,0,0,0-.34.06c-.25.28-.51.56-.77.83-.08.09-.05.2.07.26a.32.32,0,0,0,.36,0l.54-.61Z" transform="translate(0 0)"/><path class="cls-7" d="M404.19,86.56a.31.31,0,0,0-.33.07l-.4.47-.35.39a.16.16,0,0,0,0,.23l.06,0h0a.32.32,0,0,0,.35-.06c.25-.29.49-.58.73-.88a.16.16,0,0,0,0-.22Z" transform="translate(0 0)"/><path class="cls-7" d="M404.69,86.76a.32.32,0,0,0-.34.09q-.35.45-.72.87a.16.16,0,0,0,0,.23l.06,0a.34.34,0,0,0,.2,0,.26.26,0,0,0,.16-.09l.7-.9a.16.16,0,0,0-.06-.22Z" transform="translate(0 0)"/><path class="cls-7" d="M402.75,85.87a.3.3,0,0,0-.34,0l-.43.43-.38.35a.18.18,0,0,0,0,.27h0a.3.3,0,0,0,.36,0c.27-.26.54-.53.8-.8a.17.17,0,0,0,0-.23Z" transform="translate(0 0)"/><path class="cls-7" d="M402.31,85.87a.16.16,0,0,0,0-.22h0a.3.3,0,0,0-.34,0l-.84.75a.18.18,0,0,0,0,.27.3.3,0,0,0,.36,0c.21-.18.41-.36.6-.55Z" transform="translate(0 0)"/><path class="cls-7" d="M403.23,86.11a.32.32,0,0,0-.35.06c-.25.27-.52.54-.79.81-.08.08,0,.2.07.26a.61.61,0,0,0,.19,0,.38.38,0,0,0,.17-.08c.26-.27.52-.55.77-.83a.16.16,0,0,0-.06-.22Z" transform="translate(0 0)"/><path class="cls-7" d="M401.4,85a.32.32,0,0,0-.35,0l-.47.38-.42.31a.17.17,0,0,0,0,.27.33.33,0,0,0,.36,0c.3-.23.59-.46.87-.71a.15.15,0,0,0,0-.22Z" transform="translate(0 0)"/><path class="cls-7" d="M401,85a.14.14,0,0,0,0-.21l-.05,0a.3.3,0,0,0-.34,0c-.3.23-.6.45-.91.66-.1.06-.09.18,0,.27a.32.32,0,0,0,.37,0l.64-.48Z" transform="translate(0 0)"/><path class="cls-7" d="M401.84,85.33a.3.3,0,0,0-.34,0q-.44.38-.87.72a.17.17,0,0,0,0,.27.35.35,0,0,0,.37,0c.29-.25.57-.49.84-.74a.17.17,0,0,0,0-.24Z" transform="translate(0 0)"/><path class="cls-7" d="M400.13,84.33a.16.16,0,0,0,0-.22s0,0,0,0a.3.3,0,0,0-.34,0l-.51.32-.45.27c-.1.06-.1.18,0,.27h0a.32.32,0,0,0,.36,0l.47-.3Z" transform="translate(0 0)"/><path class="cls-7" d="M400.54,84.41a.3.3,0,0,0-.34,0c-.31.22-.62.43-.94.63a.17.17,0,0,0,0,.27.33.33,0,0,0,.36,0l.92-.65a.15.15,0,0,0,0-.21S400.56,84.42,400.54,84.41Z" transform="translate(0 0)"/><path class="cls-7" d="M399.45,84.14l.27-.17a.14.14,0,0,0,0-.21v-.05a.3.3,0,0,0-.34,0c-.32.19-.65.37-1,.55-.1.06-.1.18,0,.27a.32.32,0,0,0,.35.07Z" transform="translate(0 0)"/><path class="cls-7" d="M398.93,83.22a.16.16,0,0,0,0-.22l0,0a.31.31,0,0,0-.34-.07l-.54.27-.46.22c-.11,0-.12.17,0,.27h0a.31.31,0,0,0,.35.09C398.31,83.57,398.61,83.4,398.93,83.22Z" transform="translate(0 0)"/><path class="cls-7" d="M399.31,83.6c.1,0,.1-.17,0-.26a.31.31,0,0,0-.33,0l-1,.52c-.11,0-.11.17,0,.27a.34.34,0,0,0,.36.07C398.67,84,399,83.76,399.31,83.6Z" transform="translate(0 0)"/><path class="cls-7" d="M398.31,83l.28-.13a.15.15,0,0,0,.07-.21v-.05a.26.26,0,0,0-.16-.09.19.19,0,0,0-.18,0l-1,.45c-.11,0-.12.17,0,.27a.33.33,0,0,0,.35.1Z" transform="translate(0 0)"/><path class="cls-7" d="M397.84,82a.15.15,0,0,0,.08-.21.09.09,0,0,0,0-.05.3.3,0,0,0-.33-.1l-.56.21-.48.18c-.11,0-.13.15,0,.26a.33.33,0,0,0,.34.13Z" transform="translate(0 0)"/><path class="cls-7" d="M398.19,82.42a.16.16,0,0,0,0-.22s0,0,0,0a.31.31,0,0,0-.33-.09l-1,.42c-.11,0-.13.16,0,.27a.33.33,0,0,0,.34.11Z" transform="translate(0 0)"/><path class="cls-7" d="M397.21,81.68l.29-.11a.14.14,0,0,0,.09-.19h0v-.06a.32.32,0,0,0-.33-.11l-1.05.35a.16.16,0,0,0-.1.2.1.1,0,0,0,0,.07.38.38,0,0,0,.16.12.28.28,0,0,0,.18,0Z" transform="translate(0 0)"/><path class="cls-7" d="M395.8,81l1.06-.32c.11,0,.14-.14.07-.25a.33.33,0,0,0-.32-.13l-.57.16-.5.13c-.11,0-.14.14-.07.26h0A.33.33,0,0,0,395.8,81Z" transform="translate(0 0)"/><path class="cls-7" d="M396.12,81.48l1.06-.35a.18.18,0,0,0,.08-.23s0,0,0,0a.32.32,0,0,0-.33-.12l-1.06.32c-.11,0-.14.15-.06.26A.3.3,0,0,0,396.12,81.48Z" transform="translate(0 0)"/><path class="cls-7" d="M395.49,80.5l.77-.21.3-.08a.15.15,0,0,0,.11-.17V80a.31.31,0,0,0-.32-.14l-1.08.26c-.11,0-.14.13-.08.25A.34.34,0,0,0,395.49,80.5Z" transform="translate(0 0)"/><path class="cls-7" d="M394.91,79.48l1.09-.22a.16.16,0,0,0,.12-.18l0-.06a.31.31,0,0,0-.31-.17l-.59.11-.5.09c-.11,0-.16.13-.09.25h0A.32.32,0,0,0,394.91,79.48Z" transform="translate(0 0)"/><path class="cls-7" d="M395.2,80l1.11-.23a.16.16,0,0,0,.12-.19l0-.06a.32.32,0,0,0-.32-.15l-1.08.23c-.11,0-.15.13-.09.25A.31.31,0,0,0,395.2,80Z" transform="translate(0 0)"/><path class="cls-7" d="M394.65,79l.78-.13.31-.06a.13.13,0,0,0,.11-.16v-.08a.3.3,0,0,0-.3-.17l-1.1.16c-.11,0-.16.13-.09.25A.3.3,0,0,0,394.65,79Z" transform="translate(0 0)"/><path class="cls-7" d="M395.25,77.76c.12,0,.16-.12.11-.23a.3.3,0,0,0-.29-.19l-.59.06H394c-.11,0-.16.11-.11.24h0a.35.35,0,0,0,.3.21Z" transform="translate(0 0)"/><path class="cls-7" d="M394.39,78.43a8.3,8.3,0,0,0,1.1-.15.16.16,0,0,0,.13-.17.11.11,0,0,0,0-.07.3.3,0,0,0-.3-.18l-1.1.13c-.11,0-.16.12-.1.24A.29.29,0,0,0,394.39,78.43Z" transform="translate(0 0)"/><path class="cls-7" d="M394.72,77.29H395a.15.15,0,0,0,.13-.17.14.14,0,0,0,0-.06.33.33,0,0,0-.28-.2l-1.11.07c-.11,0-.17.11-.12.24a.35.35,0,0,0,.3.22Z" transform="translate(0 0)"/><path class="cls-7" d="M394.63,76.23c.11,0,.16-.11.12-.23a.31.31,0,0,0-.28-.21h-1.1c-.12,0-.17.1-.13.23h0a.35.35,0,0,0,.28.24Z" transform="translate(0 0)"/><path class="cls-7" d="M394.82,76.76a.14.14,0,0,0,.14-.16.19.19,0,0,0,0-.07.31.31,0,0,0-.28-.21h-1.11c-.11,0-.17.11-.12.23a.33.33,0,0,0,.29.23Z" transform="translate(0 0)"/><path class="cls-7" d="M394.14,75.7h.3a.15.15,0,0,0,.15-.15h0v-.06a.32.32,0,0,0-.28-.22h-1.1c-.12,0-.18.1-.14.23a.35.35,0,0,0,.28.24Z" transform="translate(0 0)"/><path class="cls-7" d="M394.12,74.63c.11,0,.17-.09.14-.22a.32.32,0,0,0-.26-.23h-1.1c-.12,0-.18.09-.15.22h0a.35.35,0,0,0,.26.26A5.15,5.15,0,0,1,394.12,74.63Z" transform="translate(0 0)"/><path class="cls-7" d="M394.31,75.17c.12,0,.18-.1.14-.22a.3.3,0,0,0-.27-.23,6.76,6.76,0,0,1-1.1-.06c-.11,0-.18.1-.14.23a.33.33,0,0,0,.27.25Z" transform="translate(0 0)"/><path class="cls-7" d="M393.67,74.07H394a.14.14,0,0,0,.15-.13v-.08a.3.3,0,0,0-.25-.24l-1.1-.12c-.11,0-.18.08-.15.21a.33.33,0,0,0,.26.27Z" transform="translate(0 0)"/><path class="cls-7" d="M393.73,73a.15.15,0,0,0,.16-.21.32.32,0,0,0-.24-.25l-.59-.09-.5-.09c-.12,0-.19.07-.17.21h0a.36.36,0,0,0,.25.27Z" transform="translate(0 0)"/><path class="cls-7" d="M393.85,73.54a.15.15,0,0,0,.15-.2.3.3,0,0,0-.25-.25l-1.1-.15c-.11,0-.18.08-.15.21a.33.33,0,0,0,.25.27C393.12,73.47,393.48,73.51,393.85,73.54Z" transform="translate(0 0)"/><path class="cls-7" d="M393.31,72.4h.3a.14.14,0,0,0,.17-.11v-.08a.35.35,0,0,0-.24-.27l-1.09-.2a.16.16,0,0,0-.17.2.35.35,0,0,0,.24.28Z" transform="translate(0 0)"/><path class="cls-7" d="M392.39,71.09l1.08.25a.17.17,0,0,0,.18-.19.35.35,0,0,0-.23-.28l-.58-.14-.49-.13a.17.17,0,0,0-.18.2h0A.34.34,0,0,0,392.39,71.09Z" transform="translate(0 0)"/><path class="cls-7" d="M392.46,71.68c.36.08.72.15,1.09.21a.16.16,0,0,0,.17-.19.33.33,0,0,0-.24-.27q-.54-.11-1.08-.24a.16.16,0,0,0-.17.2A.33.33,0,0,0,392.46,71.68Z" transform="translate(0 0)"/><path class="cls-7" d="M392.31,70.51l.77.2.3.07a.14.14,0,0,0,.17-.09,0,0,0,0,0,0,0v-.07a.32.32,0,0,0-.22-.28L392.28,70c-.11,0-.2,0-.19.18A.35.35,0,0,0,392.31,70.51Z" transform="translate(0 0)"/><path class="cls-7" d="M392.31,69.33c.35.12.7.22,1.06.33.1,0,.19,0,.18-.18a.33.33,0,0,0-.2-.29l-.57-.18-.48-.17c-.11,0-.2,0-.2.18h0A.38.38,0,0,0,392.31,69.33Z" transform="translate(0 0)"/><path class="cls-7" d="M392.31,69.92l1.07.3c.11,0,.19,0,.18-.18a.33.33,0,0,0-.25-.28l-1.06-.32c-.11,0-.19,0-.19.18A.34.34,0,0,0,392.31,69.92Z" transform="translate(0 0)"/><path class="cls-7" d="M392.31,68.76l.75.26.3.1a.12.12,0,0,0,.17-.07.06.06,0,0,0,0,0V69a.35.35,0,0,0-.19-.3l-1.05-.38c-.1,0-.2,0-.2.17A.35.35,0,0,0,392.31,68.76Z" transform="translate(0 0)"/><path class="cls-7" d="M392.31,67.56l1,.42c.1,0,.19,0,.2-.16a.35.35,0,0,0-.18-.31l-.55-.23-.48-.21c-.1,0-.19,0-.2.16h0A.36.36,0,0,0,392.31,67.56Z" transform="translate(0 0)"/><path class="cls-7" d="M392.31,68.15l1.05.39c.1,0,.19,0,.19-.17a.35.35,0,0,0-.19-.3l-1-.41c-.11,0-.2,0-.2.17A.36.36,0,0,0,392.31,68.15Z" transform="translate(0 0)"/><path class="cls-7" d="M392.31,67l.74.33.28.12a.14.14,0,0,0,.18-.07v0a.09.09,0,0,0,0-.07.33.33,0,0,0-.17-.31l-1-.47c-.1,0-.2,0-.21.16A.35.35,0,0,0,392.31,67Z" transform="translate(0 0)"/><path class="cls-7" d="M392.45,65.76l1,.5a.15.15,0,0,0,.2-.08.13.13,0,0,0,0-.06.33.33,0,0,0-.15-.33l-.53-.27-.46-.25c-.1-.06-.2,0-.21.14h0A.35.35,0,0,0,392.45,65.76Z" transform="translate(0 0)"/><path class="cls-7" d="M392.38,66.38l1,.48a.15.15,0,0,0,.2-.08.15.15,0,0,0,0-.07.35.35,0,0,0-.17-.32l-1-.49c-.1-.06-.19,0-.21.15A.37.37,0,0,0,392.38,66.38Z" transform="translate(0 0)"/><path class="cls-7" d="M392.53,65.21c.23.14.47.26.7.39l.28.14a.13.13,0,0,0,.19,0v-.08a.35.35,0,0,0-.15-.33l-1-.55c-.1-.06-.2,0-.23.14A.35.35,0,0,0,392.53,65.21Z" transform="translate(0 0)"/><path class="cls-7" d="M392.73,64.05c.32.2.63.4,1,.59.1,0,.19,0,.22-.13a.35.35,0,0,0-.13-.33l-.51-.32-.44-.29c-.09-.06-.19,0-.22.13h0A.35.35,0,0,0,392.73,64.05Z" transform="translate(0 0)"/><path class="cls-7" d="M392.62,64.63c.32.19.64.38,1,.56a.15.15,0,0,0,.2-.06.19.19,0,0,0,0-.07.33.33,0,0,0-.14-.33l-1-.58c-.09-.06-.2,0-.22.13A.35.35,0,0,0,392.62,64.63Z" transform="translate(0 0)"/><path class="cls-7" d="M392.86,63.48l.67.44.27.17a.13.13,0,0,0,.18,0s0,0,0,0a.06.06,0,0,0,0-.06.34.34,0,0,0-.12-.34L393,63c-.09-.07-.19,0-.23.12A.36.36,0,0,0,392.86,63.48Z" transform="translate(0 0)"/><path class="cls-7" d="M393.15,62.34c.3.23.61.45.91.66a.15.15,0,0,0,.23-.1.36.36,0,0,0-.11-.35l-.48-.36-.41-.32c-.09-.07-.19,0-.23.1h0A.36.36,0,0,0,393.15,62.34Z" transform="translate(0 0)"/><path class="cls-7" d="M393,62.91c.3.21.61.43.92.63.1.07.2,0,.23-.11a.61.61,0,0,0,0-.19.31.31,0,0,0-.1-.15c-.31-.21-.61-.43-.91-.66-.1-.07-.2,0-.24.11A.37.37,0,0,0,393,62.91Z" transform="translate(0 0)"/><path class="cls-7" d="M393.31,61.76l.64.5.25.18a.14.14,0,0,0,.2,0h0v-.06a.35.35,0,0,0-.09-.35c-.3-.23-.58-.47-.87-.71-.09-.07-.2,0-.24.1A.36.36,0,0,0,393.31,61.76Z" transform="translate(0 0)"/><path class="cls-7" d="M394.56,61.4c.09.08.19,0,.23-.08a.32.32,0,0,0-.07-.35l-.45-.41-.39-.35c-.08-.08-.19,0-.24.08h0a.37.37,0,0,0,.07.38Z" transform="translate(0 0)"/><path class="cls-7" d="M394.38,61.93c.09.07.19,0,.23-.09a.35.35,0,0,0-.08-.35l-.43-.36-.43-.37c-.08-.08-.19,0-.24.09a.34.34,0,0,0,.08.37Z" transform="translate(0 0)"/><path class="cls-7" d="M394.52,60.67l.23.21a.14.14,0,0,0,.2,0h0a.34.34,0,0,0-.07-.36l-.81-.78c-.08-.08-.19,0-.25.08a.35.35,0,0,0,.06.37A3.5,3.5,0,0,1,394.52,60.67Z" transform="translate(0 0)"/><path class="cls-7" d="M395.18,59.86c.08.08.19,0,.25-.07a.34.34,0,0,0-.05-.35L395,59c-.12-.12-.24-.25-.35-.38s-.19-.06-.25.06h0a.35.35,0,0,0,0,.37C394.65,59.32,394.92,59.59,395.18,59.86Z" transform="translate(0 0)"/><path class="cls-7" d="M395,60.37c.08.08.19,0,.24-.07a.34.34,0,0,0-.06-.36c-.26-.26-.53-.53-.79-.81-.08-.08-.19-.05-.25.07a.37.37,0,0,0,0,.38C394.41,59.85,394.69,60.11,395,60.37Z" transform="translate(0 0)"/><path class="cls-7" d="M395.2,59.12l.22.23a.13.13,0,0,0,.18,0l0,0V59.3a.33.33,0,0,0,0-.36l-.75-.85a.16.16,0,0,0-.25,0,.37.37,0,0,0,0,.38A4.25,4.25,0,0,0,395.2,59.12Z" transform="translate(0 0)"/><path class="cls-7" d="M395.92,58.37a.14.14,0,0,0,.19.06.12.12,0,0,0,.06-.06.33.33,0,0,0,0-.36l-.38-.48-.32-.42a.14.14,0,0,0-.19-.06.12.12,0,0,0-.06.06h0a.37.37,0,0,0,0,.38Z" transform="translate(0 0)"/><path class="cls-7" d="M395.66,58.86a.15.15,0,0,0,.21,0l0,0a.33.33,0,0,0,0-.36l-.37-.44-.36-.43a.15.15,0,0,0-.25,0,.37.37,0,0,0,0,.38C395.16,58.29,395.41,58.58,395.66,58.86Z" transform="translate(0 0)"/><path class="cls-7" d="M395.75,57.31l.25.33.2.25a.14.14,0,0,0,.2,0h0a.38.38,0,0,0,0-.36c-.23-.3-.46-.6-.68-.91-.07-.1-.18-.08-.26,0a.37.37,0,0,0,0,.38Z" transform="translate(0 0)"/><path class="cls-7" d="M396.78,57a.15.15,0,0,0,.21,0l0,0a.33.33,0,0,0,0-.36l-.34-.51-.29-.44c-.06-.1-.17-.09-.25,0h0a.35.35,0,0,0,0,.37Z" transform="translate(0 0)"/><path class="cls-7" d="M396.49,57.41a.12.12,0,0,0,.17.07.12.12,0,0,0,.07-.07.32.32,0,0,0,0-.19.26.26,0,0,0,0-.17c-.22-.31-.44-.62-.65-.94a.16.16,0,0,0-.26,0,.35.35,0,0,0,0,.37C396,56.81,396.31,57.11,396.49,57.41Z" transform="translate(0 0)"/><path class="cls-7" d="M396.92,56.23l.17.26a.14.14,0,0,0,.2,0h0l.05-.05a.33.33,0,0,0,0-.36l-.3-.48-.3-.49a.15.15,0,0,0-.26,0,.37.37,0,0,0,0,.38Z" transform="translate(0 0)"/><path class="cls-7" d="M397.75,55.61a.14.14,0,0,0,.19.06.12.12,0,0,0,.06-.06.33.33,0,0,0,0-.36l-.3-.53c-.09-.16-.17-.32-.26-.47s-.17-.11-.25,0h0a.34.34,0,0,0-.05.37C397.36,55,397.56,55.28,397.75,55.61Z" transform="translate(0 0)"/><path class="cls-7" d="M397.42,56.05a.15.15,0,0,0,.25,0,.38.38,0,0,0,0-.36c-.2-.32-.4-.65-.59-1-.05-.1-.17-.1-.25,0a.35.35,0,0,0,0,.37A8.63,8.63,0,0,0,397.42,56.05Z" transform="translate(0 0)"/><path class="cls-7" d="M397.94,54.9l.16.28a.13.13,0,0,0,.17.07l0,0h.05a.33.33,0,0,0,0-.36l-.53-1c-.05-.1-.16-.11-.25,0a.34.34,0,0,0-.06.37Z" transform="translate(0 0)"/><path class="cls-7" d="M398.82,54.35c.05.1.16.11.25,0a.32.32,0,0,0,.06-.35c-.08-.19-.17-.37-.26-.56l-.22-.49c0-.1-.16-.12-.25,0h0a.38.38,0,0,0-.08.37C398.48,53.67,398.65,54,398.82,54.35Z" transform="translate(0 0)"/><path class="cls-7" d="M398.45,54.76a.15.15,0,0,0,.21,0s0,0,0,0a.34.34,0,0,0,.06-.36c-.18-.34-.34-.68-.51-1,0-.11-.16-.12-.25,0a.36.36,0,0,0-.07.37C398.1,54.09,398.31,54.43,398.45,54.76Z" transform="translate(0 0)"/><path class="cls-7" d="M399.06,53.66l.14.29a.14.14,0,0,0,.18.08h0a.35.35,0,0,0,.08-.35c-.16-.35-.31-.7-.45-1.06,0-.11-.16-.12-.26,0a.41.41,0,0,0-.09.37A3.36,3.36,0,0,1,399.06,53.66Z" transform="translate(0 0)"/><path class="cls-7" d="M400,53.19a.15.15,0,0,0,.21,0s0,0,0,0a.38.38,0,0,0,.09-.35c-.08-.19-.15-.39-.22-.58l-.18-.5c0-.11-.16-.13-.26,0a.35.35,0,0,0-.1.36C399.69,52.48,399.84,52.83,400,53.19Z" transform="translate(0 0)"/><path class="cls-7" d="M399.58,53.57a.15.15,0,0,0,.21,0s0,0,0,0a.35.35,0,0,0,.08-.35c-.14-.35-.29-.71-.42-1.07a.15.15,0,0,0-.2-.06.17.17,0,0,0-.06.06.35.35,0,0,0-.1.36Z" transform="translate(0 0)"/><path class="cls-7" d="M400.31,52.52l.11.3a.15.15,0,0,0,.18.09h.07a.33.33,0,0,0,.1-.35c-.13-.36-.26-.73-.38-1.09,0-.11-.15-.14-.25,0a.37.37,0,0,0-.11.36A3.49,3.49,0,0,0,400.31,52.52Z" transform="translate(0 0)"/><path class="cls-7" d="M401.22,52.11c0,.12.15.14.25.06a.37.37,0,0,0,.11-.34l-.18-.59-.15-.51c0-.12-.14-.15-.25-.07h0a.39.39,0,0,0-.13.35C401,51.38,401.1,51.76,401.22,52.11Z" transform="translate(0 0)"/><path class="cls-7" d="M400.8,52.46a.14.14,0,0,0,.18.09l.06,0a.33.33,0,0,0,.11-.34c-.12-.36-.24-.73-.35-1.1a.13.13,0,0,0-.17-.1.1.1,0,0,0-.08.05.35.35,0,0,0-.12.35C400.54,51.76,400.67,52.1,400.8,52.46Z" transform="translate(0 0)"/><path class="cls-7" d="M401.56,51.47l.09.31a.15.15,0,0,0,.19.1h.05a.33.33,0,0,0,.13-.34l-.16-.55-.15-.56a.15.15,0,0,0-.18-.11l-.07,0a.39.39,0,0,0-.13.35Z" transform="translate(0 0)"/><path class="cls-7" d="M402.31,51.52a.34.34,0,0,0,.14-.29c-.22-.25-.43-.51-.64-.76.08.33.17.65.26,1a.14.14,0,0,0,.18.09Z" transform="translate(0 0)"/><path class="cls-7" d="M403.91,50.23c0,.12.12.16.23.1a.36.36,0,0,0,.16-.33l-.11-.61-.09-.53a.16.16,0,0,0-.18-.12l-.06,0h0a.37.37,0,0,0-.17.33C403.76,49.48,403.83,49.85,403.91,50.23Z" transform="translate(0 0)"/><path class="cls-7" d="M403.31,49.64l.57.67h0l-.12-.57-.1-.56c0-.12-.13-.16-.24-.09a.36.36,0,0,0-.16.34A1.6,1.6,0,0,0,403.31,49.64Z" transform="translate(0 0)"/><path class="cls-7" d="M404.31,49.64l.06.32a.14.14,0,0,0,.16.12h.07a.32.32,0,0,0,.16-.32c-.07-.38-.12-.76-.18-1.14,0-.12-.12-.17-.24-.1a.35.35,0,0,0-.17.33A4,4,0,0,1,404.31,49.64Z" transform="translate(0 0)"/><path class="cls-7" d="M405.81,49.17a.14.14,0,0,0,.14.14H406a.31.31,0,0,0,.18-.31c0-.38-.07-.77-.1-1.16,0-.12-.11-.17-.23-.11a.36.36,0,0,0-.2.32l.09.82Z" transform="translate(0 0)"/><path class="cls-7" d="M405.31,49.43a.13.13,0,0,0,.15.13.11.11,0,0,0,.08,0,.35.35,0,0,0,.17-.32,4.25,4.25,0,0,0-.08-.61v-.53c0-.12-.12-.17-.24-.11h0a.33.33,0,0,0-.18.32C405.22,48.66,405.31,49.05,405.31,49.43Z" transform="translate(0 0)"/><path class="cls-7" d="M404.85,49.68a.15.15,0,0,0,.17.13l.06,0a.35.35,0,0,0,.17-.32c-.06-.38-.11-.76-.16-1.15,0-.12-.12-.16-.23-.1a.33.33,0,0,0-.18.32C404.73,48.92,404.78,49.3,404.85,49.68Z" transform="translate(0 0)"/><path class="cls-7" d="M407.31,48.5a.14.14,0,0,0,.14.14h.08a.33.33,0,0,0,.2-.3V47.18c0-.12-.1-.17-.22-.13a.36.36,0,0,0-.22.3v.84Z" transform="translate(0 0)"/><path class="cls-7" d="M407,48.84a.34.34,0,0,0,.19-.31V47.37c0-.12-.11-.17-.23-.12h0a.38.38,0,0,0-.21.31c0,.38.05.77.08,1.15a.16.16,0,0,0,.17.13Z" transform="translate(0 0)"/><path class="cls-7" d="M406.52,49.06a.35.35,0,0,0,.18-.31c0-.38-.05-.77-.07-1.15a.15.15,0,0,0-.15-.15.11.11,0,0,0-.08,0,.34.34,0,0,0-.21.31,11.11,11.11,0,0,0,.11,1.16.15.15,0,0,0,.13.15A.12.12,0,0,0,406.52,49.06Z" transform="translate(0 0)"/><path class="cls-7" d="M408.5,48.24a.3.3,0,0,0,.21-.28v-1.2a.14.14,0,0,0-.21-.14h0a.38.38,0,0,0-.23.29v1.16a.14.14,0,1,0,.23.17Z" transform="translate(0 0)"/><path class="cls-7" d="M409,48.09H409a.35.35,0,0,0,.22-.29,8.93,8.93,0,0,1,0-1.15.14.14,0,0,0-.14-.16h-.07a.35.35,0,0,0-.24.28v1.16A.14.14,0,0,0,409,48.09Z" transform="translate(0 0)"/><path class="cls-7" d="M408,48.43a.31.31,0,0,0,.21-.29V47a.14.14,0,0,0-.14-.16.1.1,0,0,0-.09,0,.36.36,0,0,0-.22.3V48.3a.14.14,0,0,0,.1.17A.13.13,0,0,0,408,48.43Z" transform="translate(0 0)"/><path class="cls-7" d="M410,47.76a.34.34,0,0,0,.23-.27l.06-.62.06-.53a.15.15,0,0,0-.21-.16h0a.32.32,0,0,0-.25.26c0,.39-.07.78-.09,1.16a.16.16,0,0,0,.13.17Z" transform="translate(0 0)"/><path class="cls-7" d="M410.48,47.66h.07a.35.35,0,0,0,.24-.26,7.52,7.52,0,0,1,.14-1.15.16.16,0,0,0-.12-.18h-.08a.34.34,0,0,0-.26.27l-.09.83v.32A.14.14,0,0,0,410.48,47.66Z" transform="translate(0 0)"/><path class="cls-7" d="M409.52,47.92a.3.3,0,0,0,.22-.27,11.32,11.32,0,0,1,.09-1.16.14.14,0,0,0-.14-.16h-.07a.33.33,0,0,0-.25.27l-.06,1.15a.16.16,0,0,0,.15.17Z" transform="translate(0 0)"/><path class="cls-7" d="M411.59,47.44a.32.32,0,0,0,.25-.25,4.09,4.09,0,0,1,.1-.61c0-.2.07-.35.1-.53s-.06-.19-.19-.18h0a.36.36,0,0,0-.27.25c-.07.38-.13.77-.18,1.15a.15.15,0,0,0,.12.17A.09.09,0,0,0,411.59,47.44Z" transform="translate(0 0)"/><path class="cls-7" d="M411.93,47.17a.14.14,0,0,0,.09.17h.09a.31.31,0,0,0,.26-.23c.07-.38.15-.76.23-1.14,0-.12-.06-.2-.19-.18a.33.33,0,0,0-.27.24c-.06.27-.11.55-.16.82Z" transform="translate(0 0)"/><path class="cls-7" d="M411.06,47.53a.32.32,0,0,0,.25-.25c.05-.38.11-.76.17-1.14,0-.12-.06-.2-.19-.17a.33.33,0,0,0-.27.25,1.41,1.41,0,0,1-.08.57,1.92,1.92,0,0,0-.07.58.14.14,0,0,0,.11.17Z" transform="translate(0 0)"/><path class="cls-7" d="M413.52,47a.15.15,0,0,0,.1.19h.07A.31.31,0,0,0,414,47l.33-1.11c0-.11,0-.2-.17-.2a.35.35,0,0,0-.3.21c-.08.27-.15.54-.22.8Z" transform="translate(0 0)"/><path class="cls-7" d="M413.16,47.24a.34.34,0,0,0,.27-.23c.05-.2.1-.4.16-.6s.09-.34.14-.51a.17.17,0,0,0-.11-.2h-.07a.33.33,0,0,0-.29.23c-.1.37-.19.74-.27,1.12a.16.16,0,0,0,.1.19Z" transform="translate(0 0)"/><path class="cls-7" d="M412.63,47.29a.38.38,0,0,0,.17-.08.27.27,0,0,0,.1-.16c.08-.37.17-.74.27-1.12a.16.16,0,0,0-.12-.19H413a.32.32,0,0,0-.28.23c-.09.38-.17.76-.24,1.13a.16.16,0,0,0,.1.19Z" transform="translate(0 0)"/><path class="cls-7" d="M414.74,47.18A.33.33,0,0,0,415,47l.21-.58.18-.5c.05-.11,0-.21-.16-.21h0a.32.32,0,0,0-.31.19c-.13.37-.25.73-.36,1.09a.15.15,0,0,0,.08.2Z" transform="translate(0 0)"/><path class="cls-7" d="M414.21,47.18a.34.34,0,0,0,.29-.21c.11-.36.23-.72.36-1.09,0-.11,0-.2-.17-.2a.29.29,0,0,0-.3.2c-.12.37-.23.73-.34,1.1a.14.14,0,0,0,.09.19Z" transform="translate(0 0)"/><path class="cls-7" d="M415.56,47c.14-.36.28-.72.43-1.07a.17.17,0,0,0-.09-.21h-.07a.32.32,0,0,0-.31.18c-.1.26-.2.52-.29.78l-.11.3a.15.15,0,0,0,.08.2h.11A.3.3,0,0,0,415.56,47Z" transform="translate(0 0)"/><path class="cls-7" d="M416.71,47.11a.15.15,0,0,0,.07.21h.06a.3.3,0,0,0,.31-.15l.52-1c.06-.1,0-.2-.13-.22a.35.35,0,0,0-.34.15c-.12.25-.24.49-.35.74Z" transform="translate(0 0)"/><path class="cls-7" d="M416.31,47.27a.31.31,0,0,0,.31-.17c.08-.18.16-.37.25-.56l.23-.48a.15.15,0,0,0-.06-.2.12.12,0,0,0-.08,0h0a.34.34,0,0,0-.33.16c-.16.35-.31.7-.46,1a.17.17,0,0,0,0,.23A.18.18,0,0,0,416.31,47.27Z" transform="translate(0 0)"/><path class="cls-7" d="M415.8,47.23a.35.35,0,0,0,.3-.19q.21-.52.45-1c.05-.11,0-.21-.15-.22a.31.31,0,0,0-.32.17c-.15.36-.29.71-.43,1.07a.17.17,0,0,0,.09.21Z" transform="translate(0 0)"/><path class="cls-7" d="M418.31,47.4a.15.15,0,0,0,0,.21h.06a.31.31,0,0,0,.32-.12l.61-1a.16.16,0,0,0-.06-.22l-.06,0a.3.3,0,0,0-.34.12l-.42.7Z" transform="translate(0 0)"/><path class="cls-7" d="M417.88,47.52a.31.31,0,0,0,.32-.14c.1-.18.2-.36.31-.53l.27-.46a.16.16,0,0,0-.06-.22l-.06,0h0a.32.32,0,0,0-.34.14c-.19.33-.38.66-.55,1a.16.16,0,0,0,.05.21Z" transform="translate(0 0)"/><path class="cls-7" d="M417.37,47.42a.33.33,0,0,0,.31-.15c.17-.34.36-.67.55-1a.16.16,0,0,0-.06-.22l-.07,0a.34.34,0,0,0-.2,0,.28.28,0,0,0-.14.12l-.52,1a.17.17,0,0,0,0,.23A.2.2,0,0,0,417.37,47.42Z" transform="translate(0 0)"/><path class="cls-7" d="M419.42,47.92a.3.3,0,0,0,.33-.11c.11-.17.23-.34.35-.5s.2-.29.31-.43,0-.2-.1-.25h0a.33.33,0,0,0-.35.1l-.64,1a.16.16,0,0,0,.05.22Z" transform="translate(0 0)"/><path class="cls-7" d="M419.83,47.84a.14.14,0,0,0,0,.2h.07a.31.31,0,0,0,.33-.09c.22-.31.45-.61.69-.91.07-.09,0-.2-.09-.25a.31.31,0,0,0-.35.09c-.17.22-.33.43-.49.66Z" transform="translate(0 0)"/><path class="cls-7" d="M418.91,47.76a.35.35,0,0,0,.33-.12c.2-.32.41-.63.63-1,.07-.09,0-.2-.11-.24a.31.31,0,0,0-.34.1c-.21.32-.42.65-.61,1a.15.15,0,0,0,.07.2Z" transform="translate(0 0)"/><path class="cls-7" d="M420.91,48.47a.31.31,0,0,0,.33-.08l.4-.47.35-.39c.08-.08,0-.2-.08-.26h0a.34.34,0,0,0-.36.07l-.72.87a.17.17,0,0,0,0,.24Z" transform="translate(0 0)"/><path class="cls-7" d="M421.31,48.43a.14.14,0,0,0,0,.2h.06a.32.32,0,0,0,.34-.06l.77-.84c.08-.08,0-.2-.07-.26a.36.36,0,0,0-.36.05l-.54.61Z" transform="translate(0 0)"/><path class="cls-7" d="M420.42,48.27a.31.31,0,0,0,.33-.09c.23-.3.47-.59.72-.88.07-.09,0-.2-.09-.25a.29.29,0,0,0-.35.07l-.7.9a.16.16,0,0,0,0,.22S420.4,48.26,420.42,48.27Z" transform="translate(0 0)"/><path class="cls-7" d="M422.31,49.16a.3.3,0,0,0,.35,0l.43-.42.38-.36a.16.16,0,0,0,0-.21.18.18,0,0,0-.07,0h0a.33.33,0,0,0-.36,0l-.8.8a.16.16,0,0,0-.05.22A.17.17,0,0,0,422.31,49.16Z" transform="translate(0 0)"/><path class="cls-7" d="M422.77,49.16a.14.14,0,0,0,0,.2h.06a.3.3,0,0,0,.34,0l.84-.76c.09-.08.07-.2-.05-.27a.33.33,0,0,0-.36,0l-.59.56Z" transform="translate(0 0)"/><path class="cls-7" d="M421.87,48.91a.31.31,0,0,0,.19,0,.26.26,0,0,0,.15-.07L423,48c.09-.08.06-.2-.06-.26a.32.32,0,0,0-.35,0q-.4.42-.78.84a.15.15,0,0,0-.06.22A.17.17,0,0,0,421.87,48.91Z" transform="translate(0 0)"/><path class="cls-7" d="M423.72,50a.27.27,0,0,0,.34,0l.47-.38.41-.32a.17.17,0,0,0,0-.27h0a.3.3,0,0,0-.36,0c-.29.23-.58.48-.86.72a.15.15,0,0,0,0,.21S423.7,50,423.72,50Z" transform="translate(0 0)"/><path class="cls-7" d="M424.14,50a.16.16,0,0,0,0,.22h.05a.3.3,0,0,0,.34,0l.9-.68a.16.16,0,0,0,0-.27.33.33,0,0,0-.36,0l-.64.49Z" transform="translate(0 0)"/><path class="cls-7" d="M423.31,49.69a.28.28,0,0,0,.18,0,.23.23,0,0,0,.16-.06c.28-.25.57-.49.86-.73a.17.17,0,0,0,0-.26.3.3,0,0,0-.36,0l-.84.75a.15.15,0,0,0-.09.21A.16.16,0,0,0,423.31,49.69Z" transform="translate(0 0)"/><path class="cls-7" d="M425,50.93a.3.3,0,0,0,.34,0c.17-.11.33-.23.5-.33l.43-.29c.1-.06.1-.18,0-.27h0a.3.3,0,0,0-.36,0c-.31.21-.62.42-.92.64a.15.15,0,0,0,0,.21A.08.08,0,0,0,425,50.93Z" transform="translate(0 0)"/><path class="cls-7" d="M425.43,51a.15.15,0,0,0,0,.21h0a.3.3,0,0,0,.34,0l1-.6c.1-.06.09-.18,0-.27a.32.32,0,0,0-.35,0l-.68.44Z" transform="translate(0 0)"/><path class="cls-7" d="M424.59,50.6a.32.32,0,0,0,.35,0l.91-.64a.16.16,0,0,0,0-.22.12.12,0,0,0,0-.05.3.3,0,0,0-.36,0c-.31.21-.61.44-.9.67a.15.15,0,0,0,0,.21Z" transform="translate(0 0)"/><path class="cls-7" d="M426.25,51.76a.15.15,0,0,0-.06.2.17.17,0,0,0,.06.06.32.32,0,0,0,.35,0l.52-.29.45-.25c.11,0,.11-.17,0-.27h0a.34.34,0,0,0-.36-.07C426.89,51.36,426.56,51.54,426.25,51.76Z" transform="translate(0 0)"/><path class="cls-7" d="M425.84,51.37a.16.16,0,0,0,0,.22l0,0a.3.3,0,0,0,.34,0l1-.56a.16.16,0,0,0,.05-.22.12.12,0,0,0-.05-.05.3.3,0,0,0-.35-.06Z" transform="translate(0 0)"/><path class="cls-7" d="M428,51.93c.1,0,.11-.17,0-.27a.31.31,0,0,0-.35-.08l-.71.38-.27.15a.15.15,0,0,0-.06.2h0v.06a.3.3,0,0,0,.34.06C427.31,52.26,427.62,52.09,428,51.93Z" transform="translate(0 0)"/><path class="cls-7" d="M428.25,53l.47-.21c.1,0,.12-.16,0-.26h0a.28.28,0,0,0-.34-.1c-.34.15-.68.31-1,.48a.15.15,0,0,0-.06.2.17.17,0,0,0,.06.06.31.31,0,0,0,.33.08Z" transform="translate(0 0)"/><path class="cls-7" d="M428.31,52.36c.11,0,.12-.17,0-.27A.31.31,0,0,0,428,52c-.33.16-.67.33-1,.51a.15.15,0,0,0,0,.21s0,0,0,0a.33.33,0,0,0,.34.08Z" transform="translate(0 0)"/><path class="cls-7" d="M429.09,53.24a.16.16,0,0,0,0-.22s0,0,0,0a.33.33,0,0,0-.35-.11l-.73.32-.29.13a.14.14,0,0,0-.08.18v.08a.33.33,0,0,0,.34.09Z" transform="translate(0 0)"/><path class="cls-7" d="M429.31,54.33l.48-.16a.16.16,0,0,0,.1-.2.1.1,0,0,0,0-.07h0a.32.32,0,0,0-.34-.12c-.35.12-.7.26-1,.39a.16.16,0,0,0-.09.21s0,0,0,0a.33.33,0,0,0,.34.11Z" transform="translate(0 0)"/><path class="cls-7" d="M429.44,53.7a.15.15,0,0,0,.1-.19.18.18,0,0,0-.05-.07.32.32,0,0,0-.34-.12,10.37,10.37,0,0,0-1,.42.16.16,0,0,0,0,.22l0,0a.34.34,0,0,0,.33.1Z" transform="translate(0 0)"/><path class="cls-7" d="M430.12,54.64c.1,0,.13-.15.05-.26a.3.3,0,0,0-.33-.13l-.76.26-.29.1a.15.15,0,0,0-.1.17s0,0,0,0v.06A.33.33,0,0,0,429,55Z" transform="translate(0 0)"/><path class="cls-7" d="M429.67,55.91l.58-.16.49-.13c.11,0,.15-.14.08-.26h0a.33.33,0,0,0-.33-.15l-1.07.31a.15.15,0,0,0-.11.18.16.16,0,0,0,0,.07A.31.31,0,0,0,429.67,55.91Z" transform="translate(0 0)"/><path class="cls-7" d="M430.43,55.13c.11,0,.14-.15.07-.26a.33.33,0,0,0-.33-.15l-1.06.34c-.11,0-.14.15-.06.26a.33.33,0,0,0,.15.11.25.25,0,0,0,.17,0Z" transform="translate(0 0)"/><path class="cls-7" d="M430,56.38l1.08-.26c.11,0,.15-.14.08-.25a.35.35,0,0,0-.33-.17l-.77.2-.3.09a.13.13,0,0,0-.11.15s0,0,0,0a.09.09,0,0,0,0,.07A.3.3,0,0,0,430,56.38Z" transform="translate(0 0)"/><path class="cls-7" d="M430.51,57.35l.58-.12.51-.09c.11,0,.15-.13.09-.25h0a.33.33,0,0,0-.32-.18l-1.08.23a.16.16,0,0,0-.12.19l0,.06A.32.32,0,0,0,430.51,57.35Z" transform="translate(0 0)"/><path class="cls-7" d="M430.24,56.86l1.08-.23a.16.16,0,0,0,.12-.19l0-.06a.33.33,0,0,0-.32-.18l-1.08.26a.16.16,0,0,0-.12.18.25.25,0,0,0,0,.07A.3.3,0,0,0,430.24,56.86Z" transform="translate(0 0)"/><path class="cls-7" d="M430.76,57.84l1.1-.18c.11,0,.15-.12.09-.24a.32.32,0,0,0-.31-.19l-.78.14-.31.06a.13.13,0,0,0-.11.16v.08A.31.31,0,0,0,430.76,57.84Z" transform="translate(0 0)"/><path class="cls-7" d="M431.24,58.85l.6-.07.47,0c.11,0,.16-.12.1-.24h0a.33.33,0,0,0-.3-.2l-1.1.14a.16.16,0,0,0-.13.17.11.11,0,0,0,0,.07A.3.3,0,0,0,431.24,58.85Z" transform="translate(0 0)"/><path class="cls-7" d="M431,58.34l1.1-.15c.11,0,.15-.12.1-.25a.34.34,0,0,0-.31-.19l-1.09.17c-.12,0-.16.13-.1.25A.3.3,0,0,0,431,58.34Z" transform="translate(0 0)"/><path class="cls-7" d="M432.57,59.26c.11,0,.16-.11.11-.24a.34.34,0,0,0-.3-.21l-.79.09h-.31a.15.15,0,0,0-.13.15,0,0,0,0,1,0,0v.06a.35.35,0,0,0,.3.19Z" transform="translate(0 0)"/><path class="cls-7" d="M431.72,60c-.12,0-.17.11-.12.23a.31.31,0,0,0,.28.21H433c.11,0,.17-.1.12-.23h0a.34.34,0,0,0-.29-.22A5.78,5.78,0,0,0,431.72,60Z" transform="translate(0 0)"/><path class="cls-7" d="M431.5,59.45c-.11,0-.16.11-.11.23a.33.33,0,0,0,.29.2c.37,0,.74-.06,1.1-.07.12,0,.17-.12.12-.24a.32.32,0,0,0-.29-.22Z" transform="translate(0 0)"/><path class="cls-7" d="M432.22,60.47h-.31a.14.14,0,0,0-.14.14v.08a.31.31,0,0,0,.28.21h1.11c.11,0,.17-.11.12-.24a.32.32,0,0,0-.28-.23Z" transform="translate(0 0)"/><path class="cls-7" d="M432.83,61.55h-.52c-.11,0-.17.1-.13.22a.31.31,0,0,0,.27.22h1.1c.12,0,.18-.09.14-.22h0a.32.32,0,0,0-.27-.24Z" transform="translate(0 0)"/><path class="cls-7" d="M432.1,61a.16.16,0,0,0-.15.17s0,0,0,.06a.32.32,0,0,0,.28.22h1.11c.11,0,.17-.1.13-.23a.32.32,0,0,0-.28-.23Z" transform="translate(0 0)"/><path class="cls-7" d="M432.75,62.09h-.31a.15.15,0,0,0-.15.15h0v.06a.34.34,0,0,0,.27.23,6.82,6.82,0,0,1,1.11.06c.11,0,.18-.09.14-.23a.32.32,0,0,0-.27-.24Z" transform="translate(0 0)"/><path class="cls-7" d="M432.74,63.17c-.11,0-.18.08-.15.21a.37.37,0,0,0,.26.24h.59l.51.06c.12,0,.18-.09.15-.22h0a.32.32,0,0,0-.25-.26Z" transform="translate(0 0)"/><path class="cls-7" d="M432.6,62.62c-.11,0-.17.09-.14.22a.31.31,0,0,0,.26.23l1.1.09c.12,0,.18-.09.15-.22a.36.36,0,0,0-.27-.26Z" transform="translate(0 0)"/><path class="cls-7" d="M433.18,63.76h-.31a.14.14,0,0,0-.15.15V64a.32.32,0,0,0,.26.25l1.1.13c.11,0,.18-.08.15-.21a.33.33,0,0,0-.26-.27Z" transform="translate(0 0)"/><path class="cls-7" d="M433.11,64.81A.15.15,0,0,0,433,65a.32.32,0,0,0,.24.25l.59.1.5.08a.16.16,0,0,0,.17-.21h0a.36.36,0,0,0-.25-.27Z" transform="translate(0 0)"/><path class="cls-7" d="M433,64.26a.15.15,0,0,0-.16.21.35.35,0,0,0,.25.25l1.09.15c.12,0,.19-.07.16-.21a.33.33,0,0,0-.25-.27Z" transform="translate(0 0)"/><path class="cls-7" d="M434.31,65.55l-.79-.14h-.3a.14.14,0,0,0-.17.11v.09a.35.35,0,0,0,.24.26l1.09.2a.16.16,0,0,0,.17-.2A.36.36,0,0,0,434.31,65.55Z" transform="translate(0 0)"/><path class="cls-7" d="M434.45,66.76l-1.08-.23a.15.15,0,0,0-.17.12.09.09,0,0,0,0,.07.35.35,0,0,0,.23.28l.58.13.5.12a.16.16,0,0,0,.17-.2h0A.33.33,0,0,0,434.45,66.76Z" transform="translate(0 0)"/><path class="cls-7" d="M434.38,66.13l-1.09-.21a.15.15,0,0,0-.16.2.3.3,0,0,0,.23.27l1.08.22a.16.16,0,0,0,.17-.2A.31.31,0,0,0,434.38,66.13Z" transform="translate(0 0)"/><path class="cls-7" d="M434.52,67.29l-.78-.18-.3-.07a.15.15,0,0,0-.18.11h0v.07a.35.35,0,0,0,.23.28l1.07.27a.16.16,0,0,0,.18-.19A.35.35,0,0,0,434.52,67.29Z" transform="translate(0 0)"/><path class="cls-7" d="M434.61,68.46l-.53-.15-.54-.14c-.11,0-.19,0-.18.18a.33.33,0,0,0,.21.28l.57.17.49.15a.17.17,0,0,0,.19-.19h0A.35.35,0,0,0,434.61,68.46Z" transform="translate(0 0)"/><path class="cls-7" d="M434.57,67.88l-1.08-.28a.16.16,0,0,0-.18.19.32.32,0,0,0,.22.28l1.07.29c.11,0,.2,0,.19-.18A.35.35,0,0,0,434.57,67.88Z" transform="translate(0 0)"/><path class="cls-7" d="M434.64,69.05l-.77-.24-.3-.08a.12.12,0,0,0-.17.07.06.06,0,0,0,0,0v.07a.34.34,0,0,0,.21.29l1,.33c.11,0,.2,0,.19-.18A.33.33,0,0,0,434.64,69.05Z" transform="translate(0 0)"/><path class="cls-7" d="M434.8,70.34a.24.24,0,0,0-.14-.12l-1.05-.36c-.11,0-.19,0-.19.17a.33.33,0,0,0,.2.3l.56.2.48.18c.11,0,.19,0,.2-.18h0A.33.33,0,0,0,434.8,70.34Z" transform="translate(0 0)"/><path class="cls-7" d="M434.65,69.63l-1-.34a.17.17,0,0,0-.19.18.31.31,0,0,0,.2.29l1,.36c.11,0,.2,0,.19-.18A.34.34,0,0,0,434.65,69.63Z" transform="translate(0 0)"/><path class="cls-7" d="M434.66,70.76l-.75-.27-.29-.11a.15.15,0,0,0-.19.1h0a.09.09,0,0,0,0,.07.32.32,0,0,0,.19.3l1,.4c.11,0,.2,0,.2-.17A.34.34,0,0,0,434.66,70.76Z" transform="translate(0 0)"/><path class="cls-7" d="M434.62,72l-1-.42c-.1,0-.19,0-.2.16a.32.32,0,0,0,.18.31l.55.24.48.2c.1.05.19,0,.2-.16h0A.36.36,0,0,0,434.62,72Z" transform="translate(0 0)"/><path class="cls-7" d="M434.65,71.39l-1-.4c-.11,0-.2,0-.2.16a.34.34,0,0,0,.19.31l1,.42c.1,0,.19,0,.2-.17A.36.36,0,0,0,434.65,71.39Z" transform="translate(0 0)"/><path class="cls-7" d="M434.59,72.56l-.74-.32-.29-.12a.14.14,0,0,0-.18,0s0,0,0,0v.06a.38.38,0,0,0,.18.32l1,.46c.1,0,.2,0,.21-.16A.37.37,0,0,0,434.59,72.56Z" transform="translate(0 0)"/><path class="cls-7" d="M434.49,73.76l-1-.49c-.1,0-.19,0-.21.15a.34.34,0,0,0,.16.32L434,74l.46.23c.1.05.2,0,.21-.15h0A.32.32,0,0,0,434.49,73.76Z" transform="translate(0 0)"/><path class="cls-7" d="M434.54,73.14l-1-.46c-.11,0-.2,0-.21.15a.35.35,0,0,0,.17.32c.34.15.68.32,1,.48.1,0,.2,0,.21-.15A.35.35,0,0,0,434.54,73.14Z" transform="translate(0 0)"/><path class="cls-7" d="M434.42,74.31l-.72-.37-.28-.13a.13.13,0,0,0-.18,0s0,0,0,0V74a.34.34,0,0,0,.16.32l1,.52c.1,0,.2,0,.22-.14A.37.37,0,0,0,434.42,74.31Z" transform="translate(0 0)"/><path class="cls-7" d="M434.31,75.46l-1-.53c-.1-.06-.2,0-.22.13a.33.33,0,0,0,.15.33l.53.3.44.26c.1,0,.2,0,.23-.14h0A.38.38,0,0,0,434.31,75.46Z" transform="translate(0 0)"/><path class="cls-7" d="M434.31,74.89l-1-.52c-.1-.05-.2,0-.21.14a.32.32,0,0,0,.14.32l1,.54c.1,0,.19,0,.21-.14A.35.35,0,0,0,434.31,74.89Z" transform="translate(0 0)"/><path class="cls-7" d="M434.17,76l-.7-.4-.27-.15a.13.13,0,0,0-.18,0l0,0a.09.09,0,0,0,0,.07.33.33,0,0,0,.14.33l1,.57c.1.06.2,0,.22-.13A.34.34,0,0,0,434.17,76Z" transform="translate(0 0)"/><path class="cls-7" d="M434,77.19,433,76.6c-.1-.06-.19,0-.22.12a.34.34,0,0,0,.12.34l.51.32.44.28c.09.07.19,0,.22-.12h0A.33.33,0,0,0,434,77.19Z" transform="translate(0 0)"/><path class="cls-7" d="M434.06,76.62l-1-.58a.15.15,0,0,0-.2.06.19.19,0,0,0,0,.07.35.35,0,0,0,.14.34l1,.58c.1.06.2,0,.23-.12A.36.36,0,0,0,434.06,76.62Z" transform="translate(0 0)"/><path class="cls-7" d="M433.83,77.76l-.68-.44-.27-.17a.13.13,0,0,0-.18,0l0,0v.06a.34.34,0,0,0,.12.34l.94.62c.09.07.19,0,.23-.12A.37.37,0,0,0,433.83,77.76Z" transform="translate(0 0)"/><path class="cls-7" d="M433.55,78.89l-.92-.64a.16.16,0,0,0-.21,0,.11.11,0,0,0,0,.06.35.35,0,0,0,.12.35l.49.35.42.3c.09.07.2,0,.23-.11h0A.33.33,0,0,0,433.55,78.89Z" transform="translate(0 0)"/><path class="cls-7" d="M433.69,78.33l-.92-.63c-.1-.06-.2,0-.23.12a.34.34,0,0,0,.11.34l.93.64c.09.06.19,0,.23-.12A.33.33,0,0,0,433.69,78.33Z" transform="translate(0 0)"/><path class="cls-7" d="M433.4,79.46c-.21-.17-.43-.32-.65-.48l-.26-.18a.13.13,0,0,0-.18,0l0,0v.06a.33.33,0,0,0,.11.34l.9.67c.09.07.2,0,.23-.11A.32.32,0,0,0,433.4,79.46Z" transform="translate(0 0)"/><path class="cls-7" d="M433.08,80.57l-.89-.68c-.09-.07-.2,0-.24.1a.37.37,0,0,0,.1.35l.47.37.41.32c.09.08.2,0,.24-.1h0A.36.36,0,0,0,433.08,80.57Z" transform="translate(0 0)"/><path class="cls-7" d="M433.25,80l-.91-.68c-.09-.06-.19,0-.23.11a.37.37,0,0,0,.1.35c.31.22.6.45.9.68.09.07.19,0,.23-.1A.34.34,0,0,0,433.25,80Z" transform="translate(0 0)"/><path class="cls-7" d="M432.9,81.13l-.63-.51-.25-.19a.14.14,0,0,0-.2,0h0v.06a.35.35,0,0,0,.09.35l.87.72c.09.07.2,0,.24-.1A.37.37,0,0,0,432.9,81.13Z" transform="translate(0 0)"/><path class="cls-7" d="M432.72,81.68l-.87-.72c-.09-.07-.19,0-.24.1a.35.35,0,0,0,.09.35l.86.72c.08.08.19,0,.24-.09A.36.36,0,0,0,432.72,81.68Z" transform="translate(0 0)"/></svg>