<svg id="Layer_1" data-name="Layer 1" xmlns="http://www.w3.org/2000/svg" viewBox="0 0 385.61 474.48"><defs><style>.cls-1,.cls-2,.cls-3{fill:#fff;}.cls-1{fill-rule:evenodd;}.cls-3{font-size:48px;font-family:BodoniSvtyTwoSCITCTT-Book, "Bodoni 72 Smallcaps";}</style></defs><path class="cls-1" d="M313,229.85A181.48,181.48,0,0,1,471.42,499.74c-3.06-1.18-6.15-2.34-9.24-3.46a171.7,171.7,0,1,0-298.44,0q-4.65,1.68-9.25,3.46A181.48,181.48,0,0,1,313,229.85ZM428.73,551c-1.77,1.47-3.58,2.9-5.4,4.3q-5.86-1.83-11.78-3.45c2-1.4,3.94-2.83,5.86-4.31q5.7,1.65,11.32,3.46Zm-25.11,17.49c-2.42,1.4-4.89,2.74-7.39,4-3.53-.92-5-1.5-.72-2.55,2.22-.54,4.93-1,8.11-1.49Zm-13.4,7a181.76,181.76,0,0,1-154.53,0c1.72-.24,3.46-.42,5.24-.54,5.29-.35,3.11-3.55,1-6.11-.5-.63-1-1.25-1.48-1.87a172.05,172.05,0,0,0,144.91,0c-.48.62-1,1.24-1.48,1.87-2.06,2.56-4.24,5.76,1.05,6.11,1.78.12,3.53.3,5.24.54Zm-160.54-3c-2.5-1.3-5-2.64-7.39-4,3.18.45,5.89,1,8.11,1.49,4.31,1,2.82,1.63-.72,2.55Zm-27.09-17.23q-2.75-2.1-5.41-4.3,5.63-1.81,11.32-3.46c1.93,1.48,3.88,2.91,5.86,4.31q-5.91,1.62-11.77,3.45Z" transform="translate(-119.24 -221.25)"/><path class="cls-2" d="M313,221.25A190.1,190.1,0,0,1,479.48,503l-3.23-1.31a186.59,186.59,0,1,0-326.58,0c-1.09.43-2.17.87-3.24,1.31A190.09,190.09,0,0,1,313,221.25Zm125.26,333q-2.5,2.19-5.08,4.3l-3.9-1.31q2.64-2.12,5.19-4.3c1.27.43,2.53.86,3.79,1.31Zm-15.74,12.4q-2.1,1.49-4.24,2.91c-2.45.16-4.89.35-7.33.59,1.56-1,3.1-1.95,4.63-3,2.18-.19,4.5-.37,6.94-.54Zm-14.09,9.05-.86.51a33.41,33.41,0,0,0-4.14-1.66c.61-.33,1.22-.68,1.82-1a22.88,22.88,0,0,1,3.18,2.17Zm-5.48,3.07q-1.91,1-3.84,2c-1.76-.42-3.6-.81-5.49-1.15,1.6-.77,3.18-1.56,4.76-2.37,1.55.44,3.08,1,4.57,1.51Zm-18.35,8.65a190.75,190.75,0,0,1-143.21,0,23.16,23.16,0,0,1-1.13-4.23,187.2,187.2,0,0,0,145.48,0,24.06,24.06,0,0,1-1.14,4.23Zm-157.72-6.64c-1.29-.65-2.57-1.32-3.83-2,1.49-.56,3-1.07,4.56-1.51,1.58.81,3.16,1.6,4.76,2.37-1.89.34-3.72.73-5.49,1.15Zm-8.46-4.57-.86-.51a22.88,22.88,0,0,1,3.18-2.17c.61.34,1.21.69,1.82,1a33.41,33.41,0,0,0-4.14,1.66Zm-10.71-6.65c-1.42-.95-2.84-1.92-4.24-2.91,2.44.17,4.76.35,6.94.54,1.53,1,3.08,2,4.63,3-2.44-.24-4.88-.43-7.33-.59Zm-14.9-11c-1.71-1.41-3.41-2.84-5.08-4.3,1.26-.45,2.52-.88,3.79-1.31,1.7,1.46,3.44,2.89,5.19,4.3l-3.9,1.31Z" transform="translate(-119.24 -221.25)"/><path class="cls-1" d="M153.71,570.45l.11.38a2.87,2.87,0,0,0,3.78,1.83c7.18-2.79,17.35-4,23,1A44.49,44.49,0,0,1,194.38,595l0,.12a2.09,2.09,0,0,0,.08.23l0,.12c2,5.16,7.3,5.7,12,4.49l.11,0c16.56-3.59,30.74-1.22,44.62,5.84a2.87,2.87,0,0,0,3.67-4.17c-4.84-7.06-9.1-14.89-9.34-20.08a2.79,2.79,0,0,1,1.25-2.5,7.07,7.07,0,0,0,2.76-3.67c1.24-3.75-.87-7.22-3.14-10a84.92,84.92,0,0,1-10.07-15.09,2.87,2.87,0,0,1,2-4.07,374,374,0,0,1,149.15,0,2.87,2.87,0,0,1,2,4.07,84.92,84.92,0,0,1-10.07,15.09c-2.26,2.82-4.38,6.29-3.14,10a7.09,7.09,0,0,0,2.77,3.67,2.8,2.8,0,0,1,1.24,2.5c-.23,5.18-4.5,13-9.33,20.08a2.86,2.86,0,0,0,3.66,4.17c13.88-7.06,28.06-9.43,44.62-5.84l.11,0c4.68,1.21,10,.67,12-4.49l.05-.12a2,2,0,0,0,.07-.23l0-.12a44.49,44.49,0,0,1,13.81-21.34c5.62-5,15.79-3.76,23-1a2.86,2.86,0,0,0,3.78-1.83l.11-.38c6.46-21,15.13-39.23,28.26-57l2.1-2.83a2.87,2.87,0,0,0-1.11-4.31l-3.2-1.47a445.73,445.73,0,0,0-370.59,0l-3.2,1.47a2.87,2.87,0,0,0-1.11,4.31l2.1,2.83c13.14,17.74,21.8,36,28.26,57ZM313,532.88A374.85,374.85,0,0,0,158.34,566a185.83,185.83,0,0,0-28.29-55.95,440.08,440.08,0,0,1,365.81,0A185.83,185.83,0,0,0,467.57,566,374.81,374.81,0,0,0,313,532.88Zm138.37,32.44Q410,566.51,395.51,570c-9.89,2.41,10.79,2.33,16.66,9.6a22.87,22.87,0,0,0-11.95-8.18,219.73,219.73,0,0,1,41.33-2.1A50.23,50.23,0,0,0,426,593.39q-.82,2.18-5.34,1-28.73-6.29-43.19,5.15,9.3-12,8.39-21,22.81,2.77,35.25,11.64Q406.24,576.38,385,575c-5.29-.35-3.11-3.55-1.05-6.11q9.57-11.93,12.7-20.77a367.51,367.51,0,0,1,54.7,17.22Zm-276.75,0Q216,566.51,230.4,570c9.89,2.41-10.79,2.33-16.66,9.6a22.86,22.86,0,0,1,12-8.18,219.84,219.84,0,0,0-41.34-2.1,50.23,50.23,0,0,1,15.53,24.06q.83,2.18,5.34,1,28.74-6.29,43.2,5.15-9.31-12-8.4-21-22.82,2.77-35.24,11.64,14.88-13.71,36.14-15.11c5.29-.35,3.11-3.55,1-6.11q-9.57-11.93-12.69-20.77a367.27,367.27,0,0,0-54.71,17.22Z" transform="translate(-119.24 -221.25)"/><path class="cls-1" d="M413,302.76h0a4.44,4.44,0,0,1,4.43,4.43v76a4.44,4.44,0,0,1-4.43,4.43h0a4.44,4.44,0,0,1-4.43-4.43v-2.86h-1a1,1,0,0,1-1-1v-1l-8.19-8.19H398v-.3a2.77,2.77,0,0,1-2.76,2.76h0a2.76,2.76,0,0,1-2.75-2.76v-6.43h-2c.07,4.9-2.14,15.67-2.14,15.67-6.69,31.06,1.61,53.47,1.61,53.47,1.11,2.43.81,5.68.61,7h36.42a5.75,5.75,0,0,1,5.73,5.73h0a5.75,5.75,0,0,1-5.73,5.74H407.46a1.36,1.36,0,0,0-1.36,1.35h0a1.36,1.36,0,0,0,1.36,1.35h5.8v12.45a457.55,457.55,0,0,0-200.61,0V453.76h5.8a1.36,1.36,0,0,0,1.36-1.35h0a1.36,1.36,0,0,0-1.36-1.35H199a5.75,5.75,0,0,1-5.74-5.74h0a5.75,5.75,0,0,1,5.74-5.73H330c-5.26-13.15,5-29.24,5-29.24a45.91,45.91,0,0,0,6.8-22c.33-10-3.08-16-8.67-19.67-14.41-9.35-86.53-10.08-98.63,6.77-9.74,13.57-7.37,38.77-7.37,38.77,0,2.75-1.88,3.17-1.88,3.17h-1.35l-1.76,10.9-.29,1.8H223a1,1,0,0,1,1,1h0a1,1,0,0,1-1,1h-4.91a1,1,0,0,1-1-1h0a1,1,0,0,1,1-1h.5l-.29-1.8-1.77-10.9h-.76c-2.38,0-3.33-2.64-3.66-4.07l.33-.28,0,0,8.64-8c.34-.25,1.72-1.47,1.56-4.56h0c0-.12-2.5-42.53-1.29-65.34a6.36,6.36,0,0,0-2.84-6.08,31.32,31.32,0,0,1-6.3-7.18,5.27,5.27,0,0,1,1.9-1h9.81a1.87,1.87,0,0,1,1.85,1c2.08,3.37,6.05,6.2,8.63,7.8,14.11,8.73,73.58,8.54,88.38,1.93,5.33-2.38,12.67-5.78,12.67-5.78,31-12.35,46.73,2.45,46.73,2.45a21.78,21.78,0,0,1,6.3,9h3.95V322.87a2.76,2.76,0,0,1,2.75-2.75h0a2.76,2.76,0,0,1,2.74,2.47l0,0,8.62-8.62V311a1,1,0,0,1,1-1h1v-2.86a4.44,4.44,0,0,1,4.43-4.43ZM218.84,432.64h3.37a.67.67,0,0,1,.67.66h0a.67.67,0,0,1-.67.67h-1.35v1.32a.33.33,0,0,1-.33.33h0a.34.34,0,0,1-.34-.33V434h-1.35a.67.67,0,0,1-.66-.67h0a.67.67,0,0,1,.66-.66Zm-7.07-21.12c-6.78-39.29-.87-87.44-.87-87.44a3.67,3.67,0,0,1,.32-1,33.21,33.21,0,0,0,6.36,7.11l.06,0a4.8,4.8,0,0,1,2.21,4.64V335c-1.22,22.88,1.28,65.42,1.29,65.55h0c.13,2.6-.91,3.22-.91,3.22l-.12.09-8.33,7.71Zm188.28-88.26a.91.91,0,0,1,.08.41v20.78h6.44V316.74l-6.52,6.52Zm.08,26v19.86l6.44,6.44v-26.3Z" transform="translate(-119.24 -221.25)"/><path class="cls-2" d="M313,245.71a.91.91,0,1,1,0-1.81h1.82a.91.91,0,0,1,0,1.81H313ZM308,244a.9.9,0,0,1,.93.88.91.91,0,0,1-.88.94h-.39l-1.07,0-.34,0a.91.91,0,1,1-.08-1.82h.36l1.07,0Zm-7.3.37a.91.91,0,1,1,.13,1.81l-.58,0-1,.08H299a.89.89,0,0,1-1-.82.91.91,0,0,1,.82-1H299l1.07-.09.58,0Zm-7.28.69a.91.91,0,1,1,.22,1.8l-.7.08-1,.13h-.06a.91.91,0,1,1-.24-1.8h.08l1-.13.7-.08Zm-7.24,1a.91.91,0,0,1,.3,1.8l-.75.12-1,.17h0a.91.91,0,1,1-.32-1.79h0l1-.18.75-.12ZM279,247.35a.91.91,0,0,1,.38,1.78l-.76.16-1,.21h0a.91.91,0,1,1-.4-1.77h0l1-.22.75-.16ZM271.83,249a.89.89,0,0,1,1.1.65.9.9,0,0,1-.65,1.11l-.71.18-1,.25-.05,0a.91.91,0,0,1-.47-1.76h.06l1-.26.71-.18Zm-7.05,1.94a.93.93,0,0,1,1.14.61.91.91,0,0,1-.61,1.13l-.62.19-1,.3-.13,0a.91.91,0,0,1-.55-1.73l.14-.05,1-.3.62-.19Zm-6.95,2.25a.92.92,0,0,1,1.16.56.91.91,0,0,1-.56,1.16l-.5.18-1,.34-.24.08a.9.9,0,1,1-.62-1.7l.25-.1,1-.34.51-.18ZM251,255.74a.91.91,0,0,1,.67,1.69l-.36.14-.94.38-.37.16a.91.91,0,0,1-.7-1.68l.39-.16.94-.38.37-.15Zm-6.73,2.86a.91.91,0,1,1,.75,1.65l-.2.09-.92.42-.53.24a.9.9,0,0,1-.76-1.64l.54-.25.92-.43.2-.08Zm-6.6,3.14a.91.91,0,0,1,.82,1.63h0l-.89.46-.7.36a.91.91,0,0,1-.83-1.61l.7-.37.91-.46Zm-6.45,3.44a.91.91,0,0,1,1.24.34.92.92,0,0,1-.35,1.24l-.7.4-.87.49h0a.91.91,0,1,1-.91-1.57h0l.87-.51.71-.39Zm-6.3,3.71a.91.91,0,1,1,1,1.54l-.49.3-.84.53-.2.13a.91.91,0,1,1-1-1.53l.21-.13.86-.54.48-.3Zm-6.12,4a.91.91,0,1,1,1,1.5l-.26.18-.82.57-.4.28a.91.91,0,0,1-1.05-1.49l.41-.29.83-.57.27-.18Zm-5.95,4.25a.91.91,0,0,1,1.09,1.45l-.05,0-.79.6-.6.45a.91.91,0,1,1-1.11-1.44l.61-.46.8-.61.05,0Zm-5.76,4.5a.91.91,0,1,1,1.16,1.4l-.62.51-.76.63h0a.9.9,0,1,1-1.17-1.38l0,0,.78-.65.61-.5Zm-5.56,4.75a.91.91,0,1,1,1.22,1.35l-.39.34-.73.67-.22.2a.91.91,0,1,1-1.23-1.34l.22-.21.75-.67.38-.34Zm-5.34,5a.91.91,0,0,1,1.29,0,.9.9,0,0,1,0,1.28l-.17.17-.71.69-.41.41a.91.91,0,0,1-1.28-1.29l.41-.41.72-.7.17-.17Zm-5.13,5.21a.92.92,0,0,1,1.29,0,.9.9,0,0,1,0,1.28l-.65.7-.58.63a.91.91,0,0,1-1.34-1.23l.59-.64.65-.7ZM186.16,302a.91.91,0,1,1,1.38,1.18l-.44.52-.65.76-.08.1a.91.91,0,0,1-1.4-1.17l.09-.11.66-.76.44-.52Zm-4.65,5.63a.91.91,0,0,1,1.43,1.13l-.26.32-.61.78-.24.32a.92.92,0,0,1-1.28.17.91.91,0,0,1-.17-1.27l.25-.33.62-.79.26-.33Zm-4.4,5.84a.9.9,0,0,1,1.26-.21.91.91,0,0,1,.21,1.27l-.09.12-.57.81-.39.54a.9.9,0,0,1-1.26.22.92.92,0,0,1-.23-1.27l.39-.55.59-.82.09-.11Zm-4.15,6a.9.9,0,0,1,1.25-.27.92.92,0,0,1,.27,1.26l-.49.74-.5.78a.91.91,0,0,1-1.53-1l.51-.79.49-.74Zm-3.88,6.19a.91.91,0,0,1,1.56.92l-.33.56-.51.86-.07.14a.91.91,0,1,1-1.58-.9l.08-.15.52-.87.33-.56ZM165.47,332a.91.91,0,0,1,1.61.85l-.21.38-.47.88-.17.34a.91.91,0,0,1-1.62-.84l.19-.35.47-.89.2-.37Zm-3.32,6.5a.9.9,0,0,1,1.21-.42.92.92,0,0,1,.43,1.21l-.1.19-.43.91L163,341a.91.91,0,0,1-1.65-.77l.26-.54.44-.92.09-.19Zm-3,6.65a.91.91,0,0,1,1.2-.47.9.9,0,0,1,.47,1.19v0l-.39.93-.3.71a.91.91,0,1,1-1.68-.7l.3-.72.4-.94v0ZM156.37,352a.91.91,0,1,1,1.7.64l-.31.82-.32.87a.91.91,0,0,1-1.71-.62l.33-.89.31-.82Zm-2.44,6.89a.91.91,0,0,1,1.73.56l-.23.71-.32,1v0a.91.91,0,1,1-1.73-.54v0l.32-1,.23-.71Zm-2.13,7a.89.89,0,0,1,1.11-.63.9.9,0,0,1,.64,1.11l-.18.63-.27,1,0,.12a.91.91,0,1,1-1.76-.46l0-.13.27-1,.18-.63ZM150,372.91a.91.91,0,0,1,1.77.41l-.13.59-.23,1,0,.17a.91.91,0,0,1-1.78-.38l0-.19.23-1,.14-.59Zm-1.51,7.15a.91.91,0,1,1,1.78.34l-.1.57-.19,1,0,.18a.91.91,0,0,1-1,.74.9.9,0,0,1-.74-1.05l0-.19.19-1,.11-.58Zm-1.2,7.21a.91.91,0,0,1,1.8.26l-.09.61-.14,1,0,.14a.91.91,0,0,1-1.8-.23l0-.15.14-1.05.09-.62Zm-.88,7.26a.91.91,0,0,1,1.81.17l-.07.72-.1,1v0a.91.91,0,0,1-1.81-.15v-.05l.1-1.06.07-.71Zm-.57,7.29a.91.91,0,0,1,1.82.09l0,.87,0,.94a.91.91,0,1,1-1.82-.08l.05-.95,0-.87Zm-.25,7.3a.91.91,0,0,1,1.82,0v1.8a.91.91,0,0,1-1.82,0v-1.82Zm.07,7.3a.89.89,0,0,1,.87-.93.9.9,0,0,1,.94.88v.27l0,1.07,0,.46a.91.91,0,1,1-1.82.08l0-.48,0-1.07v-.28Zm.37,7.3a.91.91,0,1,1,1.81-.13l0,.46.08,1.05,0,.29a.91.91,0,0,1-.83,1,.89.89,0,0,1-1-.82l0-.3-.08-1.07,0-.46Zm.7,7.28a.91.91,0,1,1,1.8-.22l.07.58.13,1,0,.17a.91.91,0,1,1-1.8.24l0-.19-.13-1-.06-.58Zm1,7.24a.91.91,0,0,1,1.8-.3l.1.63.17,1,0,.12a.91.91,0,0,1-.73,1.06A.9.9,0,0,1,148,440l0-.13-.17-1-.11-.63Zm1.33,7.19a.91.91,0,1,1,1.78-.38l.13.64.21,1,0,.13a.91.91,0,1,1-1.77.39l0-.13-.22-1-.13-.63Zm1.64,7.12a.91.91,0,1,1,1.76-.45l.15.59.26,1,0,.16a.91.91,0,1,1-1.75.48l0-.18-.26-1-.15-.59Zm2,7a.9.9,0,0,1,.6-1.13.91.91,0,0,1,1.14.6l.15.51.3,1,.08.24a.91.91,0,0,1-1.74.55l-.08-.25-.3-1-.15-.51Zm2.26,7a.91.91,0,1,1,1.71-.6l.14.39.34,1,.12.35a.9.9,0,1,1-1.7.62l-.13-.36-.35-1-.13-.4Zm2.56,6.85a.92.92,0,0,1,.5-1.19.91.91,0,0,1,1.18.51l.1.25.38.94.2.48a.91.91,0,1,1-1.67.7l-.21-.5-.38-.94-.1-.25Zm2.86,6.72a.91.91,0,1,1,1.65-.75l0,.09.42.92.3.63a.91.91,0,1,1-1.65.77l-.3-.65-.42-.92,0-.09Zm303.57,3.74a.91.91,0,1,1-1.64-.77l.42-.89.35-.75a.91.91,0,0,1,1.65.77l-.36.76-.42.88Zm3-6.65a.91.91,0,1,1-1.67-.71l.31-.73.39-.93h0a.91.91,0,0,1,1.69.69h0l-.39.94-.32.73Zm2.74-6.78a.91.91,0,1,1-1.71-.63l.23-.6.35-.95.05-.15a.91.91,0,0,1,1.71.62l-.05.15-.36,1-.22.59Zm2.43-6.89a.92.92,0,0,1-1.15.59.91.91,0,0,1-.58-1.15l.16-.48.31-1,.08-.27a.91.91,0,0,1,1.74.54l-.09.28-.32,1-.15.48Zm2.12-7a.91.91,0,0,1-1.75-.49l.11-.4.27-1,.1-.36a.91.91,0,0,1,1.75.47l-.09.36-.28,1-.11.4Zm1.82-7.08a.92.92,0,0,1-1.09.68.9.9,0,0,1-.68-1.09l.08-.35.22-1,.1-.41a.91.91,0,1,1,1.77.39l-.09.42-.23,1-.08.35Zm1.5-7.15a.91.91,0,0,1-1.79-.33l.07-.34.18-1,.07-.42a.91.91,0,0,1,1.8.31l-.08.43-.19,1-.06.34Zm1.19-7.21a.91.91,0,0,1-1.8-.26l.05-.38.14-1,.05-.38a.91.91,0,0,1,1.8.23l-.05.39-.14,1.05-.05.38Zm.87-7.26a.91.91,0,1,1-1.81-.17l0-.48.1-1.05,0-.27a.91.91,0,0,1,1.82.15l0,.29-.1,1.05,0,.48Zm.55-7.29a.91.91,0,0,1-1.81-.09l0-.63.05-1.06v-.11a.91.91,0,1,1,1.81.06v.13l-.05,1.07,0,.63Zm.24-7.3a.91.91,0,1,1-1.81,0v-1.81a.91.91,0,1,1,1.81,0v1.83Zm-.07-7.31a.91.91,0,0,1-1.82.06v0l0-1.06,0-.7a.9.9,0,0,1,.86-.95.91.91,0,0,1,.95.87l0,.71,0,1.08v0Zm-.39-7.3a.91.91,0,1,1-1.81.14l0-.22-.08-1.05,0-.53a.89.89,0,0,1,.82-1,.91.91,0,0,1,1,.82l0,.54.09,1.06v.22Zm-.7-7.27a.91.91,0,0,1-1.81.22l0-.34-.13-1-.06-.41a.91.91,0,0,1,.78-1,.9.9,0,0,1,1,.78l.06.42.13,1,0,.34Zm-1-7.24a.91.91,0,1,1-1.79.3l-.07-.4-.17-1-.06-.36a.9.9,0,0,1,.73-1,.92.92,0,0,1,1.06.73l.06.37.17,1,.07.39ZM476.83,377a.9.9,0,0,1-1.77.37l-.09-.4-.21-1-.08-.35a.91.91,0,0,1,.69-1.09.9.9,0,0,1,1.08.69l.08.37.22,1,.08.4Zm-1.64-7.12a.91.91,0,0,1-1.77.45l-.09-.36-.25-1-.11-.4a.91.91,0,0,1,1.75-.47l.11.4.26,1,.1.36Zm-2-7a.91.91,0,0,1-.61,1.13.9.9,0,0,1-1.13-.6l-.09-.29-.3-1-.15-.47a.91.91,0,0,1,1.74-.55l.15.48.3,1,.09.28Zm-2.27-7a.92.92,0,0,1-.56,1.16.91.91,0,0,1-1.16-.56l-.06-.16-.34-1-.2-.58a.9.9,0,1,1,1.7-.62l.22.59.34,1,.06.17ZM468.39,349a.91.91,0,0,1-1.69.68v0l-.38-.94L466,348a.89.89,0,0,1,.49-1.18.9.9,0,0,1,1.19.49l.29.71.38,1,0,0Zm-2.88-6.73a.91.91,0,1,1-1.65.76l-.36-.79-.39-.85a.91.91,0,1,1,1.64-.77l.4.86.36.79Zm-3.16-6.58a.91.91,0,1,1-1.62.82l-.3-.59L460,335l-.06-.12a.91.91,0,0,1,1.61-.85l.06.13.47.9.3.6Zm-3.45-6.45a.91.91,0,1,1-1.58.9l-.22-.39-.49-.87-.18-.31a.91.91,0,0,1,1.57-.92l.18.32.51.88.21.39ZM455.18,323a.9.9,0,0,1-.29,1.25.92.92,0,0,1-1.25-.29l-.11-.18-.53-.85-.32-.5a.91.91,0,1,1,1.53-1l.32.51.54.86.11.18Zm-4-6.13a.91.91,0,1,1-1.49,1l-.55-.79-.48-.7a.91.91,0,0,1,.22-1.27.9.9,0,0,1,1.26.23l.5.7.54.79Zm-4.26-5.93a.9.9,0,0,1-.17,1.27.92.92,0,0,1-1.28-.18l-.42-.56-.6-.79-.07-.09a.91.91,0,0,1,1.44-1.11l.07.1.61.8.42.56Zm-4.51-5.75a.91.91,0,1,1-1.4,1.16l-.28-.34-.63-.76-.25-.29a.91.91,0,0,1,.11-1.28.9.9,0,0,1,1.28.1l.25.3.65.78.27.33Zm-4.76-5.55a.91.91,0,1,1-1.35,1.22l-.1-.12-.67-.74-.44-.48a.91.91,0,1,1,1.33-1.23l.46.49.67.75.1.11Zm-5-5.33a.91.91,0,0,1-1.3,1.27l-.61-.62-.66-.66a.91.91,0,0,1,1.28-1.29l.67.67.62.63Zm-5.23-5.11a.91.91,0,1,1-1.23,1.33l-.44-.41-.73-.68-.16-.14a.92.92,0,0,1-.06-1.29.9.9,0,0,1,1.28-.06l.17.15.74.69.43.41ZM422,284.27a.93.93,0,0,1,.1,1.29.91.91,0,0,1-1.28.1l-.25-.22-.76-.64-.37-.31a.91.91,0,0,1,1.16-1.4l.39.32.76.65.25.21Zm-5.65-4.64a.91.91,0,1,1-1.12,1.43l0,0-.78-.61-.61-.47a.91.91,0,0,1,1.11-1.44l.61.47.79.62,0,0Zm-5.84-4.39a.91.91,0,0,1-1.06,1.48l-.64-.46-.81-.57h0a.91.91,0,1,1,1-1.5l0,0,.82.58.64.46Zm-6-4.13a.91.91,0,0,1,.27,1.26.9.9,0,0,1-1.26.26l-.44-.29-.84-.54-.24-.15a.91.91,0,1,1,1-1.53l.24.15.85.55.44.29Zm-6.2-3.87a.91.91,0,0,1-.92,1.57l-.25-.15-.86-.51-.45-.26a.9.9,0,1,1,.9-1.57l.46.26.87.51.25.15Zm-6.36-3.59a.91.91,0,0,1-.86,1.6l-.06,0-.88-.47-.66-.34a.91.91,0,0,1,.84-1.61l.67.35.89.47.06,0Zm-6.52-3.31a.91.91,0,0,1-.78,1.64l-.78-.37-.86-.41a.91.91,0,1,1,.77-1.64l.87.41.78.37Zm-6.66-3A.91.91,0,1,1,378,259l-.63-.26-.93-.39-.11,0a.91.91,0,1,1,.69-1.68l.12.05.94.39.62.27ZM372,254.59a.92.92,0,0,1,.54,1.17.91.91,0,0,1-1.17.53l-.49-.18-.95-.35-.26-.09a.91.91,0,0,1,.62-1.71l.27.09,1,.36.48.18Zm-6.89-2.42a.89.89,0,0,1,.58,1.14.91.91,0,0,1-1.14.59l-.37-.13-1-.31-.38-.12a.91.91,0,1,1,.54-1.73l.39.12,1,.32.37.12Zm-7-2.12a.91.91,0,1,1-.49,1.75l-.28-.08-1-.27-.47-.13a.9.9,0,0,1-.65-1.11.92.92,0,0,1,1.11-.65l.48.13,1,.28.29.08ZM351,248.24a.91.91,0,1,1-.41,1.77l-.24-.06-1-.22-.52-.12a.9.9,0,0,1-.7-1.08.92.92,0,0,1,1.08-.7l.54.12,1,.23.24.06Zm-7.16-1.5a.9.9,0,0,1,.73,1.06.92.92,0,0,1-1.06.73l-.22-.05-1-.18-.54-.09a.91.91,0,0,1,.31-1.8l.55.1,1,.19.22,0Zm-7.21-1.18a.91.91,0,0,1-.25,1.8l-.26,0-1-.14-.49-.07a.9.9,0,0,1-.79-1,.91.91,0,0,1,1-.79l.5.07,1.05.14.26,0Zm-7.26-.87a.91.91,0,1,1-.17,1.81l-.36,0-1-.1-.4,0a.91.91,0,0,1,.15-1.81l.41,0,1.06.1.35,0Zm-7.29-.55A.91.91,0,1,1,322,246l-.51,0-1.06-.05h-.23a.91.91,0,1,1,.07-1.82h.24l1.07.05.51,0Z" transform="translate(-119.24 -221.25)"/><text class="cls-3" transform="translate(43.25 334.64) rotate(-24.65)">S</text><text class="cls-3" transform="translate(64.32 325.06) rotate(-19.09)">a</text><text class="cls-3" transform="translate(83.67 318.43) rotate(-15.23)">s</text><text class="cls-3" transform="translate(99.99 313.94) rotate(-11.93)">t</text><text class="cls-3" transform="matrix(0.99, -0.15, 0.15, 0.99, 119.45, 309.81)">r</text><text class="cls-3" transform="matrix(0.99, -0.1, 0.1, 0.99, 139.78, 306.71)">e</text><text class="cls-3" transform="translate(159.28 304.72) rotate(-3.02)">r</text><text class="cls-3" transform="translate(179.94 303.71) rotate(-0.92)">í</text><text class="cls-3" transform="matrix(1, 0.02, -0.02, 1, 191.18, 303.44)">a</text><text class="cls-3" transform="translate(211.92 303.95) rotate(3.09)"> </text><text class="cls-3" transform="translate(220.53 304.27) rotate(5.29)">S</text><text class="cls-3" transform="matrix(0.99, 0.15, -0.15, 0.99, 243.86, 306.45)">a</text><text class="cls-3" transform="translate(264.22 309.42) rotate(11.88)">n</text><text class="cls-3" transform="matrix(0.96, 0.27, -0.27, 0.96, 285.98, 314.01)">t</text><text class="cls-3" transform="matrix(0.94, 0.35, -0.35, 0.94, 305, 319.2)">o</text><text class="cls-3" transform="matrix(0.9, 0.43, -0.43, 0.9, 326.97, 327.43)">s</text></svg>