<svg id="Layer_1" data-name="Layer 1" xmlns="http://www.w3.org/2000/svg" viewBox="0 0 266.09 356.2"><defs><style>.cls-1,.cls-3{fill:#fff;}.cls-2{fill:#242424;}.cls-3{font-size:21px;font-family:HiraKakuStdN-W8-83pv-RKSJ-H, Hiragino Kaku Gothic StdN;}</style></defs><path class="cls-1" d="M216,405.48l5.61,12.58.15.34.21-.34.85-1.36,16.39-26.31,1.2-1.93L383,159.51a1.13,1.13,0,0,0-.16-1.38l-17-15.47a.74.74,0,0,0-1.15.2l-1.69,2.71,11.18,10.17a1.1,1.1,0,0,1,.16,1.36.7.7,0,0,1-1.11.18L362.1,147.11l-.76,1.23,4.54,4.14a1.1,1.1,0,0,1,.16,1.35.71.71,0,0,1-1.12.19l-4.54-4.14-.77,1.24,4.55,4.13a1.11,1.11,0,0,1,.15,1.36.72.72,0,0,1-1.12.19l-4.55-4.14-.76,1.23,4.55,4.14a1.1,1.1,0,0,1,.15,1.35.71.71,0,0,1-1.12.19l-4.54-4.14-.77,1.23,4.55,4.15a1.1,1.1,0,0,1,.15,1.35.71.71,0,0,1-1.11.19l-4.55-4.14-.77,1.23,7.74,7a1.1,1.1,0,0,1,.15,1.35.7.7,0,0,1-1.11.2L353.46,161l-.77,1.23,4.55,4.15a1.11,1.11,0,0,1,.16,1.35.71.71,0,0,1-1.12.19l-4.55-4.14L351,165l4.55,4.14a1.11,1.11,0,0,1,.16,1.35.71.71,0,0,1-1.12.19L350,166.53l-.77,1.23,4.55,4.15a1.1,1.1,0,0,1,.16,1.35.72.72,0,0,1-1.12.19l-4.55-4.14-.77,1.23,4.55,4.14a1.09,1.09,0,0,1,.16,1.35.71.71,0,0,1-1.12.19l-4.55-4.14-.76,1.23L357,183.49a1.11,1.11,0,0,1,.16,1.35A.72.72,0,0,1,356,185l-11.17-10.17-.77,1.23,4.55,4.14a1.1,1.1,0,0,1,.15,1.35.71.71,0,0,1-1.12.19l-4.54-4.14-.77,1.24,4.55,4.14a1.1,1.1,0,0,1,.15,1.35.71.71,0,0,1-1.11.19l-4.55-4.14-.77,1.23,4.55,4.14a1.1,1.1,0,0,1,.15,1.35.7.7,0,0,1-1.11.19l-4.55-4.14-.77,1.24,4.55,4.14a1.11,1.11,0,0,1,.16,1.35.72.72,0,0,1-1.12.19L337.9,186l-.77,1.23,7.74,7a1.13,1.13,0,0,1,.16,1.36.72.72,0,0,1-1.12.19l-7.74-7.05L335.4,190,340,194.1a1.13,1.13,0,0,1,.16,1.36.72.72,0,0,1-1.12.19l-4.55-4.14-.77,1.23,4.55,4.14a1.09,1.09,0,0,1,.16,1.35.71.71,0,0,1-1.12.19l-4.55-4.14-.77,1.23,4.55,4.14a1.1,1.1,0,0,1,.16,1.36.72.72,0,0,1-1.12.19L331,197.06l-.77,1.23,4.55,4.14a1.1,1.1,0,0,1,.15,1.35.7.7,0,0,1-1.11.19l-4.55-4.14-.77,1.23,11.18,10.18a1.1,1.1,0,0,1,.15,1.35.7.7,0,0,1-1.11.2l-11.18-10.18-.77,1.23,4.55,4.14a1.1,1.1,0,0,1,.15,1.35.7.7,0,0,1-1.11.19l-4.55-4.14-.77,1.23,4.55,4.15a1.11,1.11,0,0,1,.16,1.35.72.72,0,0,1-1.12.19l-4.55-4.14-.77,1.23,4.55,4.14a1.11,1.11,0,0,1,.16,1.35.71.71,0,0,1-1.12.19l-4.55-4.14-.77,1.23,4.55,4.15a1.11,1.11,0,0,1,.16,1.35.72.72,0,0,1-1.12.19l-4.55-4.15-.77,1.24,7.74,7a1.13,1.13,0,0,1,.16,1.36.72.72,0,0,1-1.12.18l-7.74-7-.77,1.24,4.55,4.14a1.08,1.08,0,0,1,.16,1.35.72.72,0,0,1-1.12.19l-4.55-4.14-.76,1.23,4.54,4.14a1.08,1.08,0,0,1,.16,1.35.71.71,0,0,1-1.12.19L315.43,222l-.77,1.24,4.55,4.14a1.1,1.1,0,0,1,.15,1.35.71.71,0,0,1-1.11.19l-4.55-4.14-.77,1.23,4.55,4.14a1.11,1.11,0,0,1,.16,1.35.72.72,0,0,1-1.13.19L312,227.58l-.77,1.24L322.38,239a1.13,1.13,0,0,1,.16,1.36.72.72,0,0,1-1.12.18l-11.18-10.17-.77,1.23,4.55,4.14a1.11,1.11,0,0,1,.16,1.35.71.71,0,0,1-1.12.19l-4.55-4.14-.77,1.24,4.55,4.13a1.13,1.13,0,0,1,.16,1.36.72.72,0,0,1-1.12.19l-4.55-4.14-.77,1.23,4.55,4.14a1.11,1.11,0,0,1,.16,1.35.71.71,0,0,1-1.12.19l-4.55-4.14-.76,1.23,4.54,4.14a1.11,1.11,0,0,1,.16,1.36.72.72,0,0,1-1.12.19l-4.55-4.14-.77,1.23,7.74,7a1.09,1.09,0,0,1,.16,1.35.71.71,0,0,1-1.12.19l-7.74-7-.76,1.23,4.54,4.15a1.08,1.08,0,0,1,.16,1.35.71.71,0,0,1-1.11.19L299.87,247l-.77,1.23,4.55,4.14a1.1,1.1,0,0,1,.15,1.35.7.7,0,0,1-1.11.19l-4.55-4.14-.77,1.23,4.55,4.15a1.11,1.11,0,0,1,.16,1.35.72.72,0,0,1-1.12.19l-4.55-4.14-.77,1.23,4.55,4.14a1.1,1.1,0,0,1,.15,1.35.7.7,0,0,1-1.11.19l-4.55-4.14-.77,1.23,11.18,10.18a1.11,1.11,0,0,1,.16,1.35.71.71,0,0,1-1.12.19L293,258.1l-.77,1.24,4.55,4.14a1.11,1.11,0,0,1,.16,1.35.71.71,0,0,1-1.12.19l-4.55-4.14-.77,1.24,4.55,4.14a1.11,1.11,0,0,1,.16,1.35.72.72,0,0,1-1.12.19l-4.55-4.14-.76,1.23,4.54,4.14a1.08,1.08,0,0,1,.16,1.35.71.71,0,0,1-1.12.19l-4.55-4.14-.77,1.24,4.55,4.13a1.1,1.1,0,0,1,.16,1.36.72.72,0,0,1-1.12.19L286,269.21l-.77,1.23,7.73,7a1.09,1.09,0,0,1,.16,1.35.71.71,0,0,1-1.12.2l-7.73-7-.77,1.24,4.55,4.13a1.1,1.1,0,0,1,.15,1.35.7.7,0,0,1-1.11.2l-4.55-4.14-.77,1.23,4.55,4.14a1.11,1.11,0,0,1,.16,1.35.71.71,0,0,1-1.12.19l-4.55-4.14-.77,1.23,4.55,4.14a1.13,1.13,0,0,1,.16,1.36.72.72,0,0,1-1.12.19l-4.55-4.14-.77,1.23,4.55,4.14a1.11,1.11,0,0,1,.16,1.35.71.71,0,0,1-1.12.19l-4.55-4.14-.77,1.23,11.18,10.18a1.09,1.09,0,0,1,.16,1.35.71.71,0,0,1-1.12.2l-11.18-10.18-.77,1.23,4.55,4.14a1.11,1.11,0,0,1,.16,1.35.71.71,0,0,1-1.12.19l-4.55-4.14-.76,1.23,4.55,4.15a1.1,1.1,0,0,1,.15,1.35.72.72,0,0,1-1.12.19l-4.55-4.14-.76,1.23,4.54,4.14a1.09,1.09,0,0,1,.16,1.35.71.71,0,0,1-1.12.19l-4.54-4.14-.77,1.23,4.55,4.15a1.1,1.1,0,0,1,.15,1.35.71.71,0,0,1-1.11.19L268.75,297l-.77,1.24,7.74,7a1.1,1.1,0,0,1,.15,1.35.7.7,0,0,1-1.11.19l-7.74-7-.77,1.23,4.55,4.15a1.11,1.11,0,0,1,.16,1.35.72.72,0,0,1-1.12.19l-4.55-4.15-.77,1.24,4.55,4.14a1.11,1.11,0,0,1,.16,1.35.71.71,0,0,1-1.12.19l-4.55-4.14-.77,1.24,4.55,4.14a1.11,1.11,0,0,1,.16,1.35.72.72,0,0,1-1.12.19l-4.55-4.14-.77,1.23,4.55,4.14a1.11,1.11,0,0,1,.16,1.35.71.71,0,0,1-1.12.19l-4.55-4.14-.76,1.24,11.17,10.17a1.1,1.1,0,0,1,.16,1.36.71.71,0,0,1-1.12.18l-11.18-10.17-.76,1.23,4.55,4.14a1.1,1.1,0,0,1,.15,1.35.71.71,0,0,1-1.12.19l-4.55-4.14-.76,1.23,4.54,4.14a1.09,1.09,0,0,1,.16,1.35.7.7,0,0,1-1.11.2l-4.55-4.14-.77,1.23,4.55,4.14a1.1,1.1,0,0,1,.15,1.35.7.7,0,0,1-1.11.19l-4.55-4.14-.77,1.23L257,327.3a1.13,1.13,0,0,1,.16,1.36.72.72,0,0,1-1.12.19l-4.55-4.14-.77,1.23,7.74,7a1.11,1.11,0,0,1,.16,1.35.71.71,0,0,1-1.12.19l-7.74-7-.77,1.23,4.55,4.15a1.11,1.11,0,0,1,.16,1.35.72.72,0,0,1-1.12.19L248,330.26l-.77,1.23,4.55,4.14a1.09,1.09,0,0,1,.16,1.35.71.71,0,0,1-1.12.19L246.27,333l-.77,1.23,4.55,4.15a1.11,1.11,0,0,1,.16,1.35.72.72,0,0,1-1.12.19l-4.55-4.15-.76,1.24,4.54,4.14a1.09,1.09,0,0,1,.16,1.35.71.71,0,0,1-1.12.19l-4.55-4.14-.76,1.23L253.23,350a1.1,1.1,0,0,1,.15,1.35.7.7,0,0,1-1.11.19l-11.18-10.18-.77,1.24,4.55,4.14a1.1,1.1,0,0,1,.15,1.35.7.7,0,0,1-1.11.19l-4.55-4.14-.77,1.23,4.55,4.15a1.1,1.1,0,0,1,.15,1.35.71.71,0,0,1-1.11.19l-4.55-4.15-.77,1.24,4.55,4.14a1.11,1.11,0,0,1,.16,1.35.71.71,0,0,1-1.12.19l-4.55-4.14-.77,1.24,4.55,4.13a1.13,1.13,0,0,1,.16,1.36.72.72,0,0,1-1.12.19l-4.55-4.14-.77,1.23,7.74,7a1.11,1.11,0,0,1,.16,1.35.71.71,0,0,1-1.12.19l-7.74-7-.77,1.23,4.55,4.14a1.09,1.09,0,0,1,.16,1.35.71.71,0,0,1-1.12.2L230.71,358l-.77,1.23,4.55,4.14a1.11,1.11,0,0,1,.16,1.35.71.71,0,0,1-1.12.19L229,360.78l-.77,1.23,4.55,4.14a1.11,1.11,0,0,1,.15,1.36.72.72,0,0,1-1.12.19l-4.55-4.14-.76,1.23,4.55,4.14a1.1,1.1,0,0,1,.15,1.35.72.72,0,0,1-1.12.19l-4.54-4.14-.77,1.23,11.18,10.18a1.11,1.11,0,0,1,.16,1.35.71.71,0,0,1-1.12.2L223.8,369.11l-.77,1.23,4.55,4.14a1.11,1.11,0,0,1,.16,1.35.71.71,0,0,1-1.12.19l-4.55-4.14-.77,1.23,4.55,4.15a1.11,1.11,0,0,1,.16,1.35.72.72,0,0,1-1.12.19l-4.55-4.15-.77,1.24,4.55,4.14a1.11,1.11,0,0,1,.16,1.35.71.71,0,0,1-1.12.19l-4.55-4.14-.77,1.23,4.55,4.15a1.11,1.11,0,0,1,.16,1.35.72.72,0,0,1-1.12.19l-4.55-4.15-.77,1.24,7.71,7,0,0a1.11,1.11,0,0,1,.16,1.35.71.71,0,0,1-1.12.19l-1.72-1.56-6-5.48-.76,1.23,4.54,4.15.08.07,0,0a.54.54,0,0,1,.09.15.41.41,0,0,1,0,.09.19.19,0,0,1,0,.1l0,.08v.06a.19.19,0,0,0,0,.08v.11a1.1,1.1,0,0,1-.16.58.72.72,0,0,1-1.12.19l-1.58-1.44-3-2.71-.77,1.24,1.61,1.47,2.12,1.93.82.74a1.1,1.1,0,0,1,.15,1.35.71.71,0,0,1-1.12.19l-2.51-2.28-2-1.86-.76,1.23.68.63,3.87,3.51a1.11,1.11,0,0,1,.15,1.36.71.71,0,0,1-1.11.19l-2-1.84,1.25,3.07a1.1,1.1,0,0,1,.15,1.35C213.64,398.46,216,405.48,216,405.48Z" transform="translate(-152.05 -66.11)"/><path class="cls-1" d="M221.32,422.31l-1.84-4.12,1-1.53L237.67,389,380.85,159.18l-4.74-4.32a3.88,3.88,0,0,1-.17,3.62,2.62,2.62,0,0,1-2.18,1.32,2.39,2.39,0,0,1-1.63-.67l-4.47-4.06-.09.16a2.85,2.85,0,0,1-1.19,1.08,3.77,3.77,0,0,1-.53,1.69,2.9,2.9,0,0,1-1.2,1.09,3.59,3.59,0,0,1-.54,1.69,2.8,2.8,0,0,1-1.19,1.08,3.66,3.66,0,0,1-.54,1.69l-.09.15,1,.93a3.44,3.44,0,0,1,1.05,2.17,3.76,3.76,0,0,1-.52,2.43,2.6,2.6,0,0,1-2.17,1.31,2.42,2.42,0,0,1-1.63-.66l-1-.94-.09.16a2.94,2.94,0,0,1-1.19,1.09,3.78,3.78,0,0,1-.54,1.69A2.92,2.92,0,0,1,356,173a3.71,3.71,0,0,1-.55,1.7,2.83,2.83,0,0,1-1.18,1.08,3.78,3.78,0,0,1-.54,1.69,1.3,1.3,0,0,1-.1.15l4.47,4.06a3.42,3.42,0,0,1,1.05,2.16,3.73,3.73,0,0,1-.52,2.44,2.59,2.59,0,0,1-2.16,1.3,2.38,2.38,0,0,1-1.63-.65l-4.47-4.07-.1.16a2.86,2.86,0,0,1-1.19,1.08,3.55,3.55,0,0,1-.54,1.69,2.76,2.76,0,0,1-1.19,1.09,3.73,3.73,0,0,1-.53,1.68,2.84,2.84,0,0,1-1.2,1.09,3.65,3.65,0,0,1-.53,1.69l-.1.15,1,.93a3.78,3.78,0,0,1,.54,4.59,2.59,2.59,0,0,1-2.17,1.32,2.39,2.39,0,0,1-1.64-.67l-1-.93-.09.16a2.88,2.88,0,0,1-1.19,1.09,3.7,3.7,0,0,1-.54,1.69,2.8,2.8,0,0,1-1.19,1.08,3.74,3.74,0,0,1-.54,1.69,2.82,2.82,0,0,1-1.19,1.09,3.7,3.7,0,0,1-.54,1.69l-.1.15,4.47,4.06a3.44,3.44,0,0,1,1.05,2.17,3.7,3.7,0,0,1-.52,2.43,2.59,2.59,0,0,1-2.16,1.31,2.41,2.41,0,0,1-1.63-.66l-4.47-4.07-.1.16a2.8,2.8,0,0,1-1.19,1.08,3.65,3.65,0,0,1-.53,1.69,2.75,2.75,0,0,1-1.2,1.08,3.77,3.77,0,0,1-.53,1.7,2.92,2.92,0,0,1-1.19,1.08,3.78,3.78,0,0,1-.54,1.69l-.1.15,1,.93a3.43,3.43,0,0,1,1.06,2.16,3.79,3.79,0,0,1-.52,2.44,2.59,2.59,0,0,1-2.17,1.3,2.36,2.36,0,0,1-1.63-.66l-1-.93-.09.16a2.84,2.84,0,0,1-1.2,1.09,3.71,3.71,0,0,1-.52,1.68,2.9,2.9,0,0,1-1.2,1.09,3.77,3.77,0,0,1-.53,1.69,2.9,2.9,0,0,1-1.2,1.09,3.65,3.65,0,0,1-.53,1.68l-.1.16,4.46,4.06a3.77,3.77,0,0,1,.54,4.59A2.58,2.58,0,0,1,321.9,243a2.34,2.34,0,0,1-1.63-.66l-4.47-4.06-.09.15a2.84,2.84,0,0,1-1.2,1.09,3.73,3.73,0,0,1-.53,1.69,2.9,2.9,0,0,1-1.2,1.09,3.65,3.65,0,0,1-.53,1.69,2.86,2.86,0,0,1-1.19,1.08,3.71,3.71,0,0,1-.55,1.7l-.09.14,1,.93A3.4,3.4,0,0,1,312.5,250a3.79,3.79,0,0,1-.52,2.44,2.62,2.62,0,0,1-2.17,1.3,2.45,2.45,0,0,1-1.64-.66l-1-.93a.86.86,0,0,1-.1.16,2.82,2.82,0,0,1-1.19,1.09,3.7,3.7,0,0,1-.54,1.69,2.8,2.8,0,0,1-1.19,1.08,3.55,3.55,0,0,1-.54,1.69,2.82,2.82,0,0,1-1.19,1.09,3.59,3.59,0,0,1-.54,1.69l-.09.14,4.47,4.07a3.44,3.44,0,0,1,1.05,2.17,3.76,3.76,0,0,1-.52,2.43,2.59,2.59,0,0,1-2.17,1.3,2.41,2.41,0,0,1-1.63-.66l-4.47-4.06a1.4,1.4,0,0,1-.1.16,2.8,2.8,0,0,1-1.19,1.08,3.57,3.57,0,0,1-.53,1.68,2.84,2.84,0,0,1-1.19,1.1,3.77,3.77,0,0,1-.53,1.68,2.85,2.85,0,0,1-1.21,1.09,3.68,3.68,0,0,1-.52,1.68l-.11.16,1,.93a3.44,3.44,0,0,1,1,2.17,3.77,3.77,0,0,1-.52,2.43,2.62,2.62,0,0,1-2.17,1.31,2.38,2.38,0,0,1-1.62-.66l-1-.94c0,.06-.07.11-.1.16a2.82,2.82,0,0,1-1.19,1.09,3.66,3.66,0,0,1-.54,1.69,2.83,2.83,0,0,1-1.18,1.08,3.78,3.78,0,0,1-.54,1.69,2.9,2.9,0,0,1-1.2,1.09,3.69,3.69,0,0,1-.53,1.69l-.1.14,4.47,4.07A3.44,3.44,0,0,1,290,294.8a3.79,3.79,0,0,1-.52,2.44,2.61,2.61,0,0,1-2.17,1.31,2.37,2.37,0,0,1-1.63-.67l-4.47-4.06-.09.16a2.86,2.86,0,0,1-1.19,1.08,3.66,3.66,0,0,1-.54,1.69,2.79,2.79,0,0,1-1.19,1.08,3.6,3.6,0,0,1-.55,1.71,2.81,2.81,0,0,1-1.18,1.07,3.66,3.66,0,0,1-.54,1.69l-.1.15,1,.93a3.44,3.44,0,0,1,1.05,2.17,3.76,3.76,0,0,1-.52,2.43,2.59,2.59,0,0,1-2.16,1.3,2.38,2.38,0,0,1-1.64-.66l-1-.93-.09.15a2.81,2.81,0,0,1-1.19,1.09,3.78,3.78,0,0,1-.54,1.69,2.84,2.84,0,0,1-1.2,1.09,3.57,3.57,0,0,1-.53,1.68,2.86,2.86,0,0,1-1.2,1.1,3.61,3.61,0,0,1-.53,1.68,1.4,1.4,0,0,1-.1.16l4.47,4.06a3.77,3.77,0,0,1,.54,4.59,2.61,2.61,0,0,1-2.18,1.31,2.37,2.37,0,0,1-1.62-.65l-4.48-4.07-.09.15a2.76,2.76,0,0,1-1.19,1.09,3.55,3.55,0,0,1-.54,1.69,2.82,2.82,0,0,1-1.19,1.09,3.66,3.66,0,0,1-.54,1.69,2.8,2.8,0,0,1-1.19,1.08,3.65,3.65,0,0,1-.53,1.69l-.1.15,1,.93a3.46,3.46,0,0,1,1.06,2.17,3.82,3.82,0,0,1-.52,2.43A2.62,2.62,0,0,1,258,337a2.42,2.42,0,0,1-1.65-.67l-1-.92-.09.16a2.92,2.92,0,0,1-1.19,1.08,3.7,3.7,0,0,1-.54,1.7,2.84,2.84,0,0,1-1.19,1.08,3.74,3.74,0,0,1-.54,1.69,2.79,2.79,0,0,1-1.19,1.08,3.7,3.7,0,0,1-.54,1.7l-.1.15,4.47,4.06a3.76,3.76,0,0,1,.53,4.6,2.59,2.59,0,0,1-2.16,1.3,2.43,2.43,0,0,1-1.64-.66l-4.46-4.06-.09.15a2.84,2.84,0,0,1-1.2,1.09,3.69,3.69,0,0,1-.53,1.68,2.86,2.86,0,0,1-1.2,1.1,3.73,3.73,0,0,1-.53,1.68,2.87,2.87,0,0,1-1.19,1.09,3.7,3.7,0,0,1-.54,1.68c0,.06-.07.11-.1.16l1,.93a3.4,3.4,0,0,1,1.06,2.16,3.85,3.85,0,0,1-.52,2.44,2.61,2.61,0,0,1-2.17,1.3,2.36,2.36,0,0,1-1.63-.66l-1-.93-.09.16a2.88,2.88,0,0,1-1.19,1.09,3.74,3.74,0,0,1-.54,1.68,2.82,2.82,0,0,1-1.19,1.09,3.66,3.66,0,0,1-.54,1.69,2.82,2.82,0,0,1-1.19,1.09,3.6,3.6,0,0,1-.55,1.7,1,1,0,0,1-.09.13l4.47,4.07a3.46,3.46,0,0,1,1.06,2.17,3.83,3.83,0,0,1-.52,2.43,2.62,2.62,0,0,1-2.17,1.31,2.39,2.39,0,0,1-1.64-.67l-4.46-4.06-.09.16a2.88,2.88,0,0,1-1.2,1.08,3.77,3.77,0,0,1-.53,1.69,2.92,2.92,0,0,1-1.19,1.08,3.83,3.83,0,0,1-.54,1.7,2.92,2.92,0,0,1-1.19,1.08,3.78,3.78,0,0,1-.54,1.69l-.1.15,1,.95a3.76,3.76,0,0,1,.52,4.57,2.58,2.58,0,0,1-2.17,1.31,2.41,2.41,0,0,1-1.63-.65l-1-.94-.09.16a2.87,2.87,0,0,1-1.19,1.09,3.85,3.85,0,0,1-.53,1.68,2.84,2.84,0,0,1-1.2,1.09,3.69,3.69,0,0,1-.53,1.68,2.86,2.86,0,0,1-1.2,1.1,3.62,3.62,0,0,1-.54,1.68,2.57,2.57,0,0,1-2.16,1.31h0a2.43,2.43,0,0,1-1.64-.66l-.41-.38-1.71-3.83h0l-1.95-4.38-.88-2,1.8-2.88L362,140.31a4.13,4.13,0,0,1,3.46-2.09,3.79,3.79,0,0,1,2.59,1.05l17,15.46a5.5,5.5,0,0,1,1.68,3.45,6,6,0,0,1-.83,3.88L243.94,389.85l-18.45,29.6-1.78,2.86Z" transform="translate(-152.05 -66.11)"/><path class="cls-1" d="M209,389.73l.3.66.54,1.2.18-.28,2.53,2.3,2,1.84a.71.71,0,0,0,1.11-.19,1.11,1.11,0,0,0-.15-1.36l-3.87-3.51-.68-.63.76-1.23,2,1.86,2.51,2.28a.71.71,0,0,0,1.12-.19,1.1,1.1,0,0,0-.15-1.35l-.82-.74-2.12-1.93L212.66,387l.77-1.24,3,2.71L218,389.9a.72.72,0,0,0,1.12-.19,1.1,1.1,0,0,0,.16-.58V389a.19.19,0,0,1,0-.08v-.06l0-.08a.19.19,0,0,0,0-.1.41.41,0,0,0,0-.09.54.54,0,0,0-.09-.15l0,0-.08-.07-4.54-4.15.76-1.23,6,5.48,1.72,1.56a.71.71,0,0,0,1.12-.19,1.11,1.11,0,0,0-.16-1.35l0,0-7.71-7,.77-1.24,4.55,4.15a.72.72,0,0,0,1.12-.19,1.11,1.11,0,0,0-.16-1.35l-4.55-4.15.77-1.23,4.55,4.14a.71.71,0,0,0,1.12-.19,1.11,1.11,0,0,0-.16-1.35l-4.55-4.14.77-1.24,4.55,4.15a.72.72,0,0,0,1.12-.19,1.11,1.11,0,0,0-.16-1.35l-4.55-4.15.77-1.23,4.55,4.14a.71.71,0,0,0,1.12-.19,1.11,1.11,0,0,0-.16-1.35L223,370.34l.77-1.23L235,379.29a.71.71,0,0,0,1.12-.2,1.11,1.11,0,0,0-.16-1.35l-11.18-10.18.77-1.23,4.54,4.14a.72.72,0,0,0,1.12-.19,1.1,1.1,0,0,0-.15-1.35l-4.55-4.14.76-1.23,4.55,4.14a.72.72,0,0,0,1.12-.19,1.11,1.11,0,0,0-.15-1.36L228.22,362l.77-1.23,4.54,4.14a.71.71,0,0,0,1.12-.19,1.11,1.11,0,0,0-.16-1.35l-4.55-4.14.77-1.23,4.55,4.14a.71.71,0,0,0,1.12-.2,1.09,1.09,0,0,0-.16-1.35l-4.55-4.14.77-1.23,7.74,7a.71.71,0,0,0,1.12-.19,1.11,1.11,0,0,0-.16-1.35l-7.74-7,.77-1.23,4.55,4.14a.72.72,0,0,0,1.12-.19,1.13,1.13,0,0,0-.16-1.36l-4.55-4.13.77-1.24,4.55,4.14a.71.71,0,0,0,1.12-.19,1.11,1.11,0,0,0-.16-1.35l-4.55-4.14.77-1.24,4.55,4.15a.71.71,0,0,0,1.11-.19,1.1,1.1,0,0,0-.15-1.35l-4.55-4.15.77-1.23,4.55,4.14a.7.7,0,0,0,1.11-.19,1.1,1.1,0,0,0-.15-1.35l-4.55-4.14.77-1.24,11.18,10.18a.7.7,0,0,0,1.11-.19,1.1,1.1,0,0,0-.15-1.35l-11.18-10.18.76-1.23,4.55,4.14a.71.71,0,0,0,1.12-.19,1.09,1.09,0,0,0-.16-1.35L243.78,337l.76-1.24,4.55,4.15a.72.72,0,0,0,1.12-.19,1.11,1.11,0,0,0-.16-1.35l-4.55-4.15.77-1.23,4.55,4.14a.71.71,0,0,0,1.12-.19,1.09,1.09,0,0,0-.16-1.35l-4.55-4.14.77-1.23,4.55,4.14a.72.72,0,0,0,1.12-.19,1.11,1.11,0,0,0-.16-1.35L249,328.71l.77-1.23,7.74,7a.71.71,0,0,0,1.12-.19,1.11,1.11,0,0,0-.16-1.35l-7.74-7,.77-1.23,4.55,4.14a.72.72,0,0,0,1.12-.19,1.13,1.13,0,0,0-.16-1.36l-4.55-4.14.77-1.23,4.55,4.14a.7.7,0,0,0,1.11-.19,1.1,1.1,0,0,0-.15-1.35l-4.55-4.14.77-1.23,4.55,4.14a.7.7,0,0,0,1.11-.2,1.09,1.09,0,0,0-.16-1.35l-4.54-4.14.76-1.23,4.55,4.14a.71.71,0,0,0,1.12-.19,1.1,1.1,0,0,0-.15-1.35l-4.55-4.14.76-1.23,11.18,10.17a.71.71,0,0,0,1.12-.18,1.1,1.1,0,0,0-.16-1.36l-11.17-10.17.76-1.24,4.55,4.14a.71.71,0,0,0,1.12-.19,1.11,1.11,0,0,0-.16-1.35l-4.55-4.14.77-1.23,4.55,4.14a.72.72,0,0,0,1.12-.19,1.11,1.11,0,0,0-.16-1.35l-4.55-4.14.77-1.24,4.55,4.14a.71.71,0,0,0,1.12-.19,1.11,1.11,0,0,0-.16-1.35l-4.55-4.14.77-1.24,4.55,4.15a.72.72,0,0,0,1.12-.19,1.11,1.11,0,0,0-.16-1.35L266.25,301l.77-1.23,7.74,7a.7.7,0,0,0,1.11-.19,1.1,1.1,0,0,0-.15-1.35l-7.74-7,.77-1.24,4.55,4.15a.71.71,0,0,0,1.11-.19,1.1,1.1,0,0,0-.15-1.35l-4.55-4.15.77-1.23,4.54,4.14a.71.71,0,0,0,1.12-.19,1.09,1.09,0,0,0-.16-1.35l-4.54-4.14.76-1.23,4.55,4.14a.72.72,0,0,0,1.12-.19,1.1,1.1,0,0,0-.15-1.35l-4.55-4.15.76-1.23,4.55,4.14a.71.71,0,0,0,1.12-.19,1.11,1.11,0,0,0-.16-1.35l-4.55-4.14.77-1.23L286.84,296a.71.71,0,0,0,1.12-.2,1.09,1.09,0,0,0-.16-1.35l-11.18-10.18.77-1.23,4.55,4.14a.71.71,0,0,0,1.12-.19,1.11,1.11,0,0,0-.16-1.35l-4.55-4.14.77-1.23,4.55,4.14a.72.72,0,0,0,1.12-.19,1.13,1.13,0,0,0-.16-1.36l-4.55-4.14.77-1.23,4.55,4.14a.71.71,0,0,0,1.12-.19,1.11,1.11,0,0,0-.16-1.35L281.81,276l.77-1.23,4.55,4.14a.7.7,0,0,0,1.11-.2,1.1,1.1,0,0,0-.15-1.35l-4.55-4.13.77-1.24,7.73,7a.71.71,0,0,0,1.12-.2,1.09,1.09,0,0,0-.16-1.35l-7.73-7,.77-1.23,4.54,4.14a.72.72,0,0,0,1.12-.19,1.1,1.1,0,0,0-.16-1.36L287,267.67l.77-1.24,4.55,4.14a.71.71,0,0,0,1.12-.19,1.08,1.08,0,0,0-.16-1.35l-4.54-4.14.76-1.23L294,267.8a.72.72,0,0,0,1.12-.19,1.11,1.11,0,0,0-.16-1.35l-4.55-4.14.77-1.24,4.55,4.14a.71.71,0,0,0,1.12-.19,1.11,1.11,0,0,0-.16-1.35l-4.55-4.14.77-1.24,11.18,10.18a.71.71,0,0,0,1.12-.19,1.11,1.11,0,0,0-.16-1.35l-11.18-10.18.77-1.23,4.55,4.14a.7.7,0,0,0,1.11-.19,1.1,1.1,0,0,0-.15-1.35l-4.55-4.14.77-1.23L301,256.7a.72.72,0,0,0,1.12-.19,1.11,1.11,0,0,0-.16-1.35L297.37,251l.77-1.23,4.55,4.14a.7.7,0,0,0,1.11-.19,1.1,1.1,0,0,0-.15-1.35l-4.55-4.14.77-1.23,4.55,4.14a.71.71,0,0,0,1.11-.19,1.08,1.08,0,0,0-.16-1.35l-4.54-4.15.76-1.23,7.74,7a.71.71,0,0,0,1.12-.19,1.09,1.09,0,0,0-.16-1.35l-7.74-7,.77-1.23,4.55,4.14a.72.72,0,0,0,1.12-.19,1.11,1.11,0,0,0-.16-1.36l-4.54-4.14.76-1.23,4.55,4.14a.71.71,0,0,0,1.12-.19,1.11,1.11,0,0,0-.16-1.35L306,237.14l.77-1.23,4.55,4.14a.72.72,0,0,0,1.12-.19,1.13,1.13,0,0,0-.16-1.36l-4.55-4.13.77-1.24,4.55,4.14a.71.71,0,0,0,1.12-.19,1.11,1.11,0,0,0-.16-1.35l-4.55-4.14.77-1.23,11.18,10.17a.72.72,0,0,0,1.12-.18,1.13,1.13,0,0,0-.16-1.36L311.2,228.82l.77-1.24,4.54,4.14a.72.72,0,0,0,1.13-.19,1.11,1.11,0,0,0-.16-1.35L312.93,226l.77-1.23,4.55,4.14a.71.71,0,0,0,1.11-.19,1.1,1.1,0,0,0-.15-1.35l-4.55-4.14.77-1.24,4.54,4.14a.71.71,0,0,0,1.12-.19,1.08,1.08,0,0,0-.16-1.35l-4.54-4.14.76-1.23,4.55,4.14a.72.72,0,0,0,1.12-.19,1.08,1.08,0,0,0-.16-1.35l-4.55-4.14.77-1.24,7.74,7a.72.72,0,0,0,1.12-.18,1.13,1.13,0,0,0-.16-1.36l-7.74-7,.77-1.24,4.55,4.15a.72.72,0,0,0,1.12-.19,1.11,1.11,0,0,0-.16-1.35l-4.55-4.15.77-1.23,4.55,4.14a.71.71,0,0,0,1.12-.19,1.11,1.11,0,0,0-.16-1.35l-4.55-4.14.77-1.23,4.55,4.14a.72.72,0,0,0,1.12-.19,1.11,1.11,0,0,0-.16-1.35L325,206.61l.77-1.23,4.55,4.14a.7.7,0,0,0,1.11-.19,1.1,1.1,0,0,0-.15-1.35l-4.55-4.14.77-1.23,11.18,10.18a.7.7,0,0,0,1.11-.2,1.1,1.1,0,0,0-.15-1.35l-11.18-10.18.77-1.23,4.55,4.14a.7.7,0,0,0,1.11-.19,1.1,1.1,0,0,0-.15-1.35l-4.55-4.14.77-1.23,4.54,4.14a.72.72,0,0,0,1.12-.19,1.1,1.1,0,0,0-.16-1.36l-4.55-4.14.77-1.23,4.55,4.14a.71.71,0,0,0,1.12-.19,1.09,1.09,0,0,0-.16-1.35l-4.55-4.14.77-1.23,4.55,4.14a.72.72,0,0,0,1.12-.19,1.13,1.13,0,0,0-.16-1.36L335.4,190l.77-1.24,7.74,7.05a.72.72,0,0,0,1.12-.19,1.13,1.13,0,0,0-.16-1.36l-7.74-7,.77-1.23,4.55,4.14a.72.72,0,0,0,1.12-.19,1.11,1.11,0,0,0-.16-1.35l-4.55-4.14.77-1.24,4.55,4.14a.7.7,0,0,0,1.11-.19,1.1,1.1,0,0,0-.15-1.35l-4.55-4.14.77-1.23,4.55,4.14a.71.71,0,0,0,1.11-.19,1.1,1.1,0,0,0-.15-1.35l-4.55-4.14.77-1.24,4.54,4.14a.71.71,0,0,0,1.12-.19,1.1,1.1,0,0,0-.15-1.35l-4.55-4.14.77-1.23L356,185a.72.72,0,0,0,1.13-.19,1.11,1.11,0,0,0-.16-1.35l-11.18-10.18.76-1.23,4.55,4.14a.71.71,0,0,0,1.12-.19,1.09,1.09,0,0,0-.16-1.35l-4.55-4.14.77-1.23,4.55,4.14a.72.72,0,0,0,1.12-.19,1.1,1.1,0,0,0-.16-1.35l-4.55-4.15.77-1.23,4.55,4.14a.71.71,0,0,0,1.12-.19,1.11,1.11,0,0,0-.16-1.35L351,165l.77-1.23,4.55,4.14a.71.71,0,0,0,1.12-.19,1.11,1.11,0,0,0-.16-1.35l-4.55-4.15.77-1.23L361.2,168a.7.7,0,0,0,1.11-.2,1.1,1.1,0,0,0-.15-1.35l-7.74-7,.77-1.23,4.55,4.14a.71.71,0,0,0,1.11-.19,1.1,1.1,0,0,0-.15-1.35l-4.55-4.15.77-1.23,4.54,4.14a.71.71,0,0,0,1.12-.19,1.1,1.1,0,0,0-.15-1.35l-4.55-4.14.76-1.23,4.55,4.14a.72.72,0,0,0,1.12-.19,1.11,1.11,0,0,0-.15-1.36l-4.55-4.13.77-1.24,4.54,4.14a.71.71,0,0,0,1.12-.19,1.1,1.1,0,0,0-.16-1.35l-4.54-4.14.76-1.23,11.19,10.17a.7.7,0,0,0,1.11-.18,1.1,1.1,0,0,0-.16-1.36l-11.18-10.17,1.69-2.71a.74.74,0,0,1,1.15-.2l17,15.47a1.13,1.13,0,0,1,.16,1.38l-142.64,229-1.2,1.93L222.81,416.7l-.85,1.36-.21.34.71,1.59h.3l.88-1.42.32-.51,17.24-27.67,1.21-1.93,141.9-227.79a3.34,3.34,0,0,0-.47-4.09l-17-15.46a2.14,2.14,0,0,0-3.37.58L210,388l-.27.43Zm2,4.36,1.82,4.07.07.06a.7.7,0,0,0,1.11-.19,1.1,1.1,0,0,0-.15-1.35Z" transform="translate(-152.05 -66.11)"/><polygon class="cls-1" points="56.9 323.62 57.2 324.28 57.74 325.49 58.85 327.98 60.67 332.05 60.67 332.05 62.12 335.3 63.94 339.37 69.55 351.95 69.7 352.29 70.41 353.88 72.23 353.88 71.59 352.46 71.37 351.95 70.76 350.59 66.49 341.01 65.18 338.08 60.45 327.5 59.01 324.28 58.15 322.35 57.96 321.92 57.7 322.35 56.9 323.62"/><path class="cls-1" d="M354.2,405.48l-5.61,12.58-.15.34-.21-.34-.85-1.36L331,390.39l-1.2-1.93L187.15,159.51a1.13,1.13,0,0,1,.16-1.38l17-15.47a.74.74,0,0,1,1.15.2l1.69,2.71L196,155.74a1.1,1.1,0,0,0-.16,1.36.71.71,0,0,0,1.12.18l11.18-10.17.76,1.23-4.54,4.14a1.1,1.1,0,0,0-.16,1.35.71.71,0,0,0,1.12.19l4.55-4.14.76,1.24L206,155.25a1.11,1.11,0,0,0-.15,1.36.72.72,0,0,0,1.12.19l4.55-4.14.76,1.23L207.77,158a1.09,1.09,0,0,0-.16,1.35.71.71,0,0,0,1.12.19l4.54-4.14.77,1.23-4.55,4.15a1.1,1.1,0,0,0-.15,1.35.71.71,0,0,0,1.11.19l4.55-4.14.77,1.23-7.74,7a1.1,1.1,0,0,0-.15,1.35.7.7,0,0,0,1.11.2l7.74-7.05.77,1.23L213,166.36a1.11,1.11,0,0,0-.16,1.35.71.71,0,0,0,1.12.19l4.55-4.14.77,1.23-4.55,4.14a1.11,1.11,0,0,0-.16,1.35.71.71,0,0,0,1.12.19l4.55-4.14.77,1.23-4.55,4.15a1.1,1.1,0,0,0-.16,1.35.72.72,0,0,0,1.12.19l4.55-4.14.77,1.23-4.55,4.14A1.1,1.1,0,0,0,218,176a.71.71,0,0,0,1.12.19l4.55-4.14.76,1.23-11.18,10.18a1.1,1.1,0,0,0-.15,1.35.71.71,0,0,0,1.12.19l11.18-10.17.76,1.23-4.55,4.14a1.1,1.1,0,0,0-.15,1.35.71.71,0,0,0,1.12.19l4.54-4.14.77,1.24L223.33,183a1.08,1.08,0,0,0-.16,1.35.71.71,0,0,0,1.11.19l4.55-4.14.77,1.23-4.55,4.14a1.1,1.1,0,0,0-.15,1.35.7.7,0,0,0,1.11.19l4.55-4.14.77,1.24-4.55,4.14a1.11,1.11,0,0,0-.16,1.35.72.72,0,0,0,1.12.19l4.55-4.14.77,1.23-7.74,7a1.13,1.13,0,0,0-.16,1.36.72.72,0,0,0,1.12.19l7.74-7.05.77,1.24-4.55,4.13a1.13,1.13,0,0,0-.16,1.36.72.72,0,0,0,1.12.19l4.55-4.14.77,1.23L232,196.88a1.09,1.09,0,0,0-.16,1.35.71.71,0,0,0,1.12.19l4.55-4.14.77,1.23-4.55,4.14a1.11,1.11,0,0,0-.16,1.36.72.72,0,0,0,1.12.19l4.54-4.14.77,1.23-4.55,4.14a1.1,1.1,0,0,0-.15,1.35.71.71,0,0,0,1.12.19l4.55-4.14.76,1.23-11.18,10.18a1.1,1.1,0,0,0-.15,1.35.7.7,0,0,0,1.11.2l11.18-10.18.77,1.23L238.88,208a1.1,1.1,0,0,0-.15,1.35.7.7,0,0,0,1.11.19l4.55-4.14.77,1.23-4.55,4.15a1.11,1.11,0,0,0-.16,1.35.72.72,0,0,0,1.12.19l4.55-4.14.77,1.23-4.55,4.14a1.11,1.11,0,0,0-.16,1.35.71.71,0,0,0,1.12.19l4.55-4.14.77,1.23-4.55,4.15a1.11,1.11,0,0,0-.16,1.35.72.72,0,0,0,1.12.19l4.55-4.15.77,1.24-7.74,7a1.13,1.13,0,0,0-.16,1.36.72.72,0,0,0,1.12.18l7.74-7,.77,1.24-4.55,4.14a1.08,1.08,0,0,0-.16,1.35.72.72,0,0,0,1.12.19l4.55-4.14.76,1.23-4.54,4.14a1.1,1.1,0,0,0-.16,1.35.71.71,0,0,0,1.12.19l4.54-4.14.77,1.24L251,227.41a1.1,1.1,0,0,0-.15,1.35A.72.72,0,0,0,252,229l4.55-4.14.76,1.23-4.55,4.14a1.11,1.11,0,0,0-.16,1.35.72.72,0,0,0,1.13.19l4.54-4.14.77,1.24L247.81,239a1.13,1.13,0,0,0-.16,1.36.72.72,0,0,0,1.12.18L260,230.36l.77,1.23-4.55,4.14a1.11,1.11,0,0,0-.16,1.35.71.71,0,0,0,1.12.19l4.55-4.14.77,1.24-4.55,4.13a1.13,1.13,0,0,0-.16,1.36.72.72,0,0,0,1.12.19l4.55-4.14.77,1.23-4.55,4.14a1.11,1.11,0,0,0-.16,1.35.71.71,0,0,0,1.12.19l4.55-4.14.77,1.23-4.55,4.14a1.11,1.11,0,0,0-.16,1.36.72.72,0,0,0,1.12.19l4.55-4.14.77,1.23-7.74,7a1.09,1.09,0,0,0-.16,1.35.71.71,0,0,0,1.12.19l7.74-7,.76,1.23-4.54,4.15a1.08,1.08,0,0,0-.16,1.35.71.71,0,0,0,1.11.19l4.55-4.14.77,1.23-4.55,4.14a1.1,1.1,0,0,0-.15,1.35.71.71,0,0,0,1.12.19l4.54-4.14.77,1.23-4.55,4.15a1.11,1.11,0,0,0-.16,1.35.72.72,0,0,0,1.12.19l4.55-4.14.77,1.23L270,257.93a1.1,1.1,0,0,0-.15,1.35.7.7,0,0,0,1.11.19l4.55-4.14.77,1.23L265.1,266.74a1.11,1.11,0,0,0-.16,1.35.71.71,0,0,0,1.12.19l11.18-10.18.77,1.24-4.55,4.14a1.11,1.11,0,0,0-.16,1.35.71.71,0,0,0,1.12.19l4.55-4.14.77,1.24-4.55,4.14a1.11,1.11,0,0,0-.16,1.35.72.72,0,0,0,1.12.19l4.55-4.14.77,1.23L276.92,269a1.08,1.08,0,0,0-.16,1.35.71.71,0,0,0,1.12.19l4.55-4.14.77,1.24-4.55,4.13a1.1,1.1,0,0,0-.16,1.36.72.72,0,0,0,1.12.19l4.54-4.14.77,1.23-7.73,7a1.11,1.11,0,0,0-.16,1.35.71.71,0,0,0,1.12.2l7.73-7,.77,1.24-4.55,4.13a1.1,1.1,0,0,0-.15,1.35.71.71,0,0,0,1.12.2l4.54-4.14.77,1.23-4.55,4.14a1.11,1.11,0,0,0-.16,1.35.71.71,0,0,0,1.12.19l4.55-4.14.77,1.23-4.55,4.14a1.13,1.13,0,0,0-.16,1.36.72.72,0,0,0,1.12.19l4.55-4.14.77,1.23-4.55,4.14a1.11,1.11,0,0,0-.16,1.35.71.71,0,0,0,1.12.19l4.55-4.14.77,1.23-11.18,10.18a1.09,1.09,0,0,0-.16,1.35.71.71,0,0,0,1.12.2l11.18-10.18.77,1.23-4.55,4.14a1.11,1.11,0,0,0-.16,1.35.71.71,0,0,0,1.12.19l4.55-4.14.77,1.23L292.48,294a1.08,1.08,0,0,0-.16,1.35.72.72,0,0,0,1.12.19l4.55-4.14.76,1.23-4.54,4.14a1.09,1.09,0,0,0-.16,1.35.71.71,0,0,0,1.12.19l4.54-4.14.77,1.23-4.55,4.15a1.1,1.1,0,0,0-.15,1.35.71.71,0,0,0,1.11.19l4.55-4.15.77,1.24-7.74,7a1.1,1.1,0,0,0-.15,1.35.71.71,0,0,0,1.12.19l7.73-7,.77,1.23-4.55,4.15a1.11,1.11,0,0,0-.16,1.35.72.72,0,0,0,1.12.19l4.55-4.15.77,1.24-4.55,4.14a1.11,1.11,0,0,0-.16,1.35.71.71,0,0,0,1.12.19l4.55-4.14.77,1.24-4.55,4.14a1.11,1.11,0,0,0-.16,1.35.72.72,0,0,0,1.12.19l4.55-4.14.77,1.23-4.55,4.14a1.11,1.11,0,0,0-.16,1.35.71.71,0,0,0,1.12.19l4.55-4.14.76,1.24-11.17,10.17a1.1,1.1,0,0,0-.16,1.36.71.71,0,0,0,1.12.18l11.18-10.17.77,1.23L308,319a1.09,1.09,0,0,0-.16,1.35.71.71,0,0,0,1.12.19l4.55-4.14.76,1.23-4.54,4.14a1.09,1.09,0,0,0-.16,1.35.7.7,0,0,0,1.11.2l4.55-4.14.77,1.23-4.55,4.14a1.1,1.1,0,0,0-.15,1.35.7.7,0,0,0,1.11.19l4.55-4.14.77,1.23-4.55,4.14a1.13,1.13,0,0,0-.16,1.36.72.72,0,0,0,1.12.19l4.55-4.14.77,1.23-7.74,7a1.1,1.1,0,0,0-.15,1.35.7.7,0,0,0,1.11.19l7.74-7,.77,1.23-4.55,4.15a1.11,1.11,0,0,0-.16,1.35.72.72,0,0,0,1.12.19l4.55-4.14.77,1.23-4.55,4.14a1.1,1.1,0,0,0-.16,1.35.71.71,0,0,0,1.12.19l4.55-4.14.77,1.23-4.55,4.15a1.11,1.11,0,0,0-.16,1.35.72.72,0,0,0,1.12.19l4.55-4.15.76,1.24-4.54,4.14a1.09,1.09,0,0,0-.16,1.35.71.71,0,0,0,1.12.19l4.55-4.14.77,1.23L317,350a1.1,1.1,0,0,0-.15,1.35.7.7,0,0,0,1.11.19l11.18-10.18.77,1.24-4.55,4.14a1.1,1.1,0,0,0-.15,1.35.7.7,0,0,0,1.11.19l4.55-4.14.77,1.23-4.55,4.15a1.1,1.1,0,0,0-.15,1.35.71.71,0,0,0,1.11.19l4.55-4.15.77,1.24-4.55,4.14a1.11,1.11,0,0,0-.16,1.35.71.71,0,0,0,1.12.19l4.55-4.14.77,1.24-4.55,4.13a1.13,1.13,0,0,0-.16,1.36.72.72,0,0,0,1.12.19l4.55-4.14.77,1.23-7.74,7a1.11,1.11,0,0,0-.16,1.35.71.71,0,0,0,1.12.19l7.74-7,.77,1.23L334,360.6a1.1,1.1,0,0,0-.16,1.35.71.71,0,0,0,1.12.2l4.55-4.14.77,1.23-4.55,4.14a1.11,1.11,0,0,0-.16,1.35.71.71,0,0,0,1.12.19l4.55-4.14L342,362l-4.55,4.14a1.11,1.11,0,0,0-.15,1.36.72.72,0,0,0,1.12.19l4.55-4.14.76,1.23-4.54,4.14a1.09,1.09,0,0,0-.16,1.35.72.72,0,0,0,1.12.19l4.54-4.14.77,1.23-11.18,10.18a1.11,1.11,0,0,0-.16,1.35.71.71,0,0,0,1.12.2l11.18-10.18.77,1.23-4.55,4.14a1.11,1.11,0,0,0-.16,1.35.71.71,0,0,0,1.12.19l4.55-4.14.77,1.23-4.55,4.15a1.11,1.11,0,0,0-.16,1.35.72.72,0,0,0,1.12.19l4.55-4.15.77,1.24L346.07,380a1.11,1.11,0,0,0-.16,1.35.71.71,0,0,0,1.12.19l4.55-4.14.77,1.23-4.55,4.15a1.11,1.11,0,0,0-.16,1.35.72.72,0,0,0,1.12.19l4.55-4.15.77,1.24-7.71,7,0,0a1.11,1.11,0,0,0-.16,1.35.71.71,0,0,0,1.12.19l1.72-1.56,6-5.48.76,1.23-4.54,4.15-.08.07,0,0a.54.54,0,0,0-.09.15.41.41,0,0,0-.05.09.38.38,0,0,0,0,.1l0,.08v.06a.19.19,0,0,1,0,.08v.11a1.1,1.1,0,0,0,.16.58.72.72,0,0,0,1.12.19l1.58-1.44,3-2.71.76,1.24-1.61,1.47-2.12,1.93-.82.74a1.1,1.1,0,0,0-.15,1.35.71.71,0,0,0,1.12.19l2.51-2.28,2-1.86.76,1.23-.68.63-3.86,3.51a1.1,1.1,0,0,0-.16,1.36.71.71,0,0,0,1.11.19l2-1.84-1.25,3.07a1.1,1.1,0,0,0-.15,1.35C356.55,398.46,354.2,405.48,354.2,405.48Z" transform="translate(-152.05 -66.11)"/><path class="cls-1" d="M346.48,422.31l-1.78-2.86-17.24-27.67-1.21-1.93L184.35,162.06a6,6,0,0,1-.83-3.88,5.5,5.5,0,0,1,1.68-3.45l17-15.46a3.84,3.84,0,0,1,2.6-1.05,4.14,4.14,0,0,1,3.46,2.08L363.51,389.52l-.89,2-1.94,4.37h0L359,399.69l-.4.37a2.43,2.43,0,0,1-1.64.67h0a2.6,2.6,0,0,1-2.18-1.31,3.73,3.73,0,0,1-.53-1.68,2.76,2.76,0,0,1-1.19-1.09,3.78,3.78,0,0,1-.54-1.69,2.86,2.86,0,0,1-1.19-1.08,3.65,3.65,0,0,1-.53-1.69,2.84,2.84,0,0,1-1.2-1.09l-.09-.16-1,.93a2.38,2.38,0,0,1-1.63.66,2.59,2.59,0,0,1-2.17-1.3,3.79,3.79,0,0,1,.54-4.6l1-.93-.1-.15a3.65,3.65,0,0,1-.53-1.69,2.88,2.88,0,0,1-1.2-1.08,3.83,3.83,0,0,1-.54-1.7,2.92,2.92,0,0,1-1.19-1.08,3.77,3.77,0,0,1-.53-1.69,2.88,2.88,0,0,1-1.2-1.08l-.09-.16-4.47,4.07a2.39,2.39,0,0,1-1.63.66,2.61,2.61,0,0,1-2.17-1.32,3.79,3.79,0,0,1-.52-2.42,3.46,3.46,0,0,1,1.06-2.17l4.47-4.07a.71.71,0,0,1-.1-.14,3.66,3.66,0,0,1-.54-1.69,2.86,2.86,0,0,1-1.2-1.1,3.69,3.69,0,0,1-.53-1.68,2.82,2.82,0,0,1-1.19-1.09,3.78,3.78,0,0,1-.54-1.68,2.78,2.78,0,0,1-1.19-1.1l-.09-.15-1,.94a2.38,2.38,0,0,1-1.63.65,2.6,2.6,0,0,1-2.17-1.31,3.81,3.81,0,0,1-.52-2.43,3.45,3.45,0,0,1,1.06-2.16l1-.93-.09-.14a3.62,3.62,0,0,1-.54-1.7,2.88,2.88,0,0,1-1.2-1.08,3.77,3.77,0,0,1-.53-1.69,2.82,2.82,0,0,1-1.19-1.09,3.74,3.74,0,0,1-.54-1.69,2.79,2.79,0,0,1-1.19-1.08l-.1-.16-4.46,4.06a2.43,2.43,0,0,1-1.64.66,2.59,2.59,0,0,1-2.16-1.3,3.76,3.76,0,0,1-.52-2.43,3.44,3.44,0,0,1,1.05-2.17l4.47-4.06-.1-.15a3.7,3.7,0,0,1-.54-1.7,2.79,2.79,0,0,1-1.19-1.08,3.78,3.78,0,0,1-.54-1.69,2.94,2.94,0,0,1-1.18-1.07,3.79,3.79,0,0,1-.55-1.71A2.92,2.92,0,0,1,315,335.6l-.09-.16-1,.93a2.37,2.37,0,0,1-1.63.66,2.59,2.59,0,0,1-2.16-1.3,3.76,3.76,0,0,1-.53-2.43,3.51,3.51,0,0,1,1.06-2.17l1-.93c0-.05-.07-.1-.1-.16a3.58,3.58,0,0,1-.53-1.68,2.9,2.9,0,0,1-1.2-1.09,3.65,3.65,0,0,1-.53-1.68,2.86,2.86,0,0,1-1.2-1.1,3.58,3.58,0,0,1-.53-1.68,2.9,2.9,0,0,1-1.2-1.09,1.09,1.09,0,0,1-.08-.15l-4.47,4.06a2.38,2.38,0,0,1-1.63.66A2.59,2.59,0,0,1,298,325a3.76,3.76,0,0,1,.53-4.59l4.47-4.07-.1-.15a3.77,3.77,0,0,1-.53-1.69,2.84,2.84,0,0,1-1.2-1.09,3.73,3.73,0,0,1-.53-1.69,2.81,2.81,0,0,1-1.2-1.08,3.73,3.73,0,0,1-.53-1.7,2.73,2.73,0,0,1-1.19-1.08.86.86,0,0,1-.1-.16l-1,.93a2.38,2.38,0,0,1-1.63.66,2.59,2.59,0,0,1-2.17-1.3,3.76,3.76,0,0,1,.53-4.59l1-.94-.1-.15a3.66,3.66,0,0,1-.54-1.69,2.86,2.86,0,0,1-1.19-1.08,3.67,3.67,0,0,1-.54-1.7,2.79,2.79,0,0,1-1.19-1.08,3.78,3.78,0,0,1-.54-1.69,2.92,2.92,0,0,1-1.19-1.08l-.09-.16-4.47,4.07a2.41,2.41,0,0,1-1.63.66,2.63,2.63,0,0,1-2.18-1.32,3.8,3.8,0,0,1-.51-2.43,3.4,3.4,0,0,1,1.06-2.16l4.46-4.07-.1-.15a3.61,3.61,0,0,1-.53-1.68,2.9,2.9,0,0,1-1.2-1.09,3.65,3.65,0,0,1-.53-1.69,2.9,2.9,0,0,1-1.2-1.09,3.61,3.61,0,0,1-.53-1.68,2.86,2.86,0,0,1-1.2-1.1,1.09,1.09,0,0,1-.08-.15l-1,.94a2.42,2.42,0,0,1-1.63.66,2.61,2.61,0,0,1-2.17-1.32,3.73,3.73,0,0,1-.52-2.42,3.44,3.44,0,0,1,1-2.17l1-.93-.1-.15a3.61,3.61,0,0,1-.53-1.69,2.81,2.81,0,0,1-1.2-1.08,3.74,3.74,0,0,1-.54-1.69A2.88,2.88,0,0,1,273.5,269a3.77,3.77,0,0,1-.53-1.69,2.88,2.88,0,0,1-1.2-1.08l-.09-.16-4.47,4.06a2.41,2.41,0,0,1-1.63.66,2.59,2.59,0,0,1-2.17-1.3,3.77,3.77,0,0,1,.53-4.6l4.47-4.07-.09-.14a3.59,3.59,0,0,1-.54-1.69,2.82,2.82,0,0,1-1.19-1.09,3.55,3.55,0,0,1-.54-1.69,2.86,2.86,0,0,1-1.19-1.08,3.7,3.7,0,0,1-.54-1.69,2.88,2.88,0,0,1-1.19-1.09s-.07-.1-.1-.16l-1,.93a2.41,2.41,0,0,1-1.63.66,2.6,2.6,0,0,1-2.16-1.29,3.77,3.77,0,0,1-.53-2.45,3.4,3.4,0,0,1,1.06-2.16l1-.93s-.07-.1-.1-.16a3.67,3.67,0,0,1-.54-1.68,2.82,2.82,0,0,1-1.19-1.09,3.74,3.74,0,0,1-.54-1.68,2.84,2.84,0,0,1-1.19-1.1,3.57,3.57,0,0,1-.53-1.68,2.84,2.84,0,0,1-1.2-1.09l-.09-.15-4.47,4.06a2.34,2.34,0,0,1-1.63.66,2.59,2.59,0,0,1-2.17-1.3,3.77,3.77,0,0,1,.54-4.59l4.46-4.07-.09-.15a3.62,3.62,0,0,1-.54-1.69,2.82,2.82,0,0,1-1.19-1.09,3.74,3.74,0,0,1-.54-1.69,2.92,2.92,0,0,1-1.19-1.08,3.65,3.65,0,0,1-.53-1.69,2.84,2.84,0,0,1-1.2-1.09l-.09-.16-1,.93a2.36,2.36,0,0,1-1.63.66,2.59,2.59,0,0,1-2.17-1.3,3.79,3.79,0,0,1-.52-2.44,3.48,3.48,0,0,1,1.06-2.16l1-.93-.1-.15a3.78,3.78,0,0,1-.54-1.69,2.92,2.92,0,0,1-1.19-1.08,3.69,3.69,0,0,1-.53-1.7,2.76,2.76,0,0,1-1.19-1.07,3.62,3.62,0,0,1-.54-1.7,2.8,2.8,0,0,1-1.19-1.08l-.1-.16-4.46,4.07a2.45,2.45,0,0,1-1.64.66,2.61,2.61,0,0,1-2.17-1.32,3.77,3.77,0,0,1-.51-2.42,3.44,3.44,0,0,1,1.05-2.17l4.47-4.06-.11-.16a3.77,3.77,0,0,1-.53-1.68,2.78,2.78,0,0,1-1.19-1.1,3.58,3.58,0,0,1-.54-1.68,2.84,2.84,0,0,1-1.2-1.09,3.77,3.77,0,0,1-.53-1.68,2.87,2.87,0,0,1-1.19-1.09l-.09-.16-1,.94a2.39,2.39,0,0,1-1.63.66,2.6,2.6,0,0,1-2.16-1.31,3.77,3.77,0,0,1,.52-4.59l1-.94-.1-.15a3.73,3.73,0,0,1-.53-1.69,2.8,2.8,0,0,1-1.19-1.08,3.78,3.78,0,0,1-.54-1.69,2.76,2.76,0,0,1-1.19-1.09,3.55,3.55,0,0,1-.54-1.69,2.86,2.86,0,0,1-1.19-1.08l-.1-.16-4.46,4.06a2.38,2.38,0,0,1-1.64.66,2.6,2.6,0,0,1-2.16-1.29,3.77,3.77,0,0,1-.52-2.45,3.43,3.43,0,0,1,1.06-2.16l4.46-4.06-.1-.15a3.78,3.78,0,0,1-.54-1.69,2.94,2.94,0,0,1-1.19-1.09,3.74,3.74,0,0,1-.54-1.69,2.92,2.92,0,0,1-1.19-1.08,3.78,3.78,0,0,1-.54-1.69,2.84,2.84,0,0,1-1.19-1.1l-.09-.15-1,.94a2.42,2.42,0,0,1-1.63.66,2.62,2.62,0,0,1-2.18-1.32,3.76,3.76,0,0,1,.54-4.59l1-.93-.11-.16a3.58,3.58,0,0,1-.53-1.68,2.84,2.84,0,0,1-1.2-1.09,3.65,3.65,0,0,1-.53-1.68,2.82,2.82,0,0,1-1.19-1.09,3.74,3.74,0,0,1-.54-1.69,2.85,2.85,0,0,1-1.19-1.08l-.09-.16-4.47,4.06a2.37,2.37,0,0,1-1.63.67,2.6,2.6,0,0,1-2.17-1.31,3.8,3.8,0,0,1-.52-2.44,3.9,3.9,0,0,1,.34-1.19l-4.74,4.32,142,227.88,1.2,1.93,17.24,27.68.95,1.52-1.84,4.12Z" transform="translate(-152.05 -66.11)"/><path class="cls-1" d="M360.45,388.46l-.27-.43L206.71,141.7a2.14,2.14,0,0,0-3.37-.58l-17,15.46a3.34,3.34,0,0,0-.47,4.09l141.9,227.79,1.21,1.93,17.24,27.67.32.51.88,1.42h.3l.71-1.59-.21-.34-.85-1.36L331,390.39l-1.2-1.93L187.15,159.51a1.13,1.13,0,0,1,.16-1.38l17-15.47a.74.74,0,0,1,1.15.2l1.69,2.71L196,155.74a1.1,1.1,0,0,0-.16,1.36.71.71,0,0,0,1.12.18l11.18-10.17.76,1.23-4.54,4.14a1.1,1.1,0,0,0-.16,1.35.71.71,0,0,0,1.12.19l4.55-4.14.76,1.24L206,155.25a1.11,1.11,0,0,0-.15,1.36.72.72,0,0,0,1.12.19l4.55-4.14.76,1.23L207.77,158a1.09,1.09,0,0,0-.16,1.35.71.71,0,0,0,1.12.19l4.54-4.14.77,1.23-4.55,4.15a1.1,1.1,0,0,0-.15,1.35.71.71,0,0,0,1.11.19l4.55-4.14.77,1.23-7.74,7a1.1,1.1,0,0,0-.15,1.35.7.7,0,0,0,1.11.2l7.74-7.05.77,1.23L213,166.36a1.11,1.11,0,0,0-.16,1.35.71.71,0,0,0,1.12.19l4.55-4.14.77,1.23-4.55,4.14a1.11,1.11,0,0,0-.16,1.35.71.71,0,0,0,1.12.19l4.55-4.14.77,1.23-4.55,4.15a1.1,1.1,0,0,0-.16,1.35.72.72,0,0,0,1.12.19l4.55-4.14.77,1.23-4.55,4.14A1.1,1.1,0,0,0,218,176a.71.71,0,0,0,1.12.19l4.55-4.14.76,1.23-11.18,10.18a1.1,1.1,0,0,0-.15,1.35.71.71,0,0,0,1.12.19l11.18-10.17.76,1.23-4.55,4.14a1.1,1.1,0,0,0-.15,1.35.71.71,0,0,0,1.12.19l4.54-4.14.77,1.24L223.33,183a1.08,1.08,0,0,0-.16,1.35.71.71,0,0,0,1.11.19l4.55-4.14.77,1.23-4.55,4.14a1.1,1.1,0,0,0-.15,1.35.7.7,0,0,0,1.11.19l4.55-4.14.77,1.24-4.55,4.14a1.11,1.11,0,0,0-.16,1.35.72.72,0,0,0,1.12.19l4.55-4.14.77,1.23-7.74,7a1.13,1.13,0,0,0-.16,1.36.72.72,0,0,0,1.12.19l7.74-7.05.77,1.24-4.55,4.13a1.13,1.13,0,0,0-.16,1.36.72.72,0,0,0,1.12.19l4.55-4.14.77,1.23L232,196.88a1.09,1.09,0,0,0-.16,1.35.71.71,0,0,0,1.12.19l4.55-4.14.77,1.23-4.55,4.14a1.11,1.11,0,0,0-.16,1.36.72.72,0,0,0,1.12.19l4.54-4.14.77,1.23-4.55,4.14a1.1,1.1,0,0,0-.15,1.35.71.71,0,0,0,1.12.19l4.55-4.14.76,1.23-11.18,10.18a1.1,1.1,0,0,0-.15,1.35.7.7,0,0,0,1.11.2l11.18-10.18.77,1.23L238.88,208a1.1,1.1,0,0,0-.15,1.35.7.7,0,0,0,1.11.19l4.55-4.14.77,1.23-4.55,4.15a1.11,1.11,0,0,0-.16,1.35.72.72,0,0,0,1.12.19l4.55-4.14.77,1.23-4.55,4.14a1.11,1.11,0,0,0-.16,1.35.71.71,0,0,0,1.12.19l4.55-4.14.77,1.23-4.55,4.15a1.11,1.11,0,0,0-.16,1.35.72.72,0,0,0,1.12.19l4.55-4.15.77,1.24-7.74,7a1.13,1.13,0,0,0-.16,1.36.72.72,0,0,0,1.12.18l7.74-7,.77,1.24-4.55,4.14a1.08,1.08,0,0,0-.16,1.35.72.72,0,0,0,1.12.19l4.55-4.14.76,1.23-4.54,4.14a1.1,1.1,0,0,0-.16,1.35.71.71,0,0,0,1.12.19l4.54-4.14.77,1.24L251,227.41a1.1,1.1,0,0,0-.15,1.35A.72.72,0,0,0,252,229l4.55-4.14.76,1.23-4.55,4.14a1.11,1.11,0,0,0-.16,1.35.72.72,0,0,0,1.13.19l4.54-4.14.77,1.24L247.81,239a1.13,1.13,0,0,0-.16,1.36.72.72,0,0,0,1.12.18L260,230.36l.77,1.23-4.55,4.14a1.11,1.11,0,0,0-.16,1.35.71.71,0,0,0,1.12.19l4.55-4.14.77,1.24-4.55,4.13a1.13,1.13,0,0,0-.16,1.36.72.72,0,0,0,1.12.19l4.55-4.14.77,1.23-4.55,4.14a1.11,1.11,0,0,0-.16,1.35.71.71,0,0,0,1.12.19l4.55-4.14.77,1.23-4.55,4.14a1.11,1.11,0,0,0-.16,1.36.72.72,0,0,0,1.12.19l4.55-4.14.77,1.23-7.74,7a1.09,1.09,0,0,0-.16,1.35.71.71,0,0,0,1.12.19l7.74-7,.76,1.23-4.54,4.15a1.08,1.08,0,0,0-.16,1.35.71.71,0,0,0,1.11.19l4.55-4.14.77,1.23-4.55,4.14a1.1,1.1,0,0,0-.15,1.35.71.71,0,0,0,1.12.19l4.54-4.14.77,1.23-4.55,4.15a1.11,1.11,0,0,0-.16,1.35.72.72,0,0,0,1.12.19l4.55-4.14.77,1.23L270,257.93a1.1,1.1,0,0,0-.15,1.35.7.7,0,0,0,1.11.19l4.55-4.14.77,1.23L265.1,266.74a1.11,1.11,0,0,0-.16,1.35.71.71,0,0,0,1.12.19l11.18-10.18.77,1.24-4.55,4.14a1.11,1.11,0,0,0-.16,1.35.71.71,0,0,0,1.12.19l4.55-4.14.77,1.24-4.55,4.14a1.11,1.11,0,0,0-.16,1.35.72.72,0,0,0,1.12.19l4.55-4.14.77,1.23L276.92,269a1.08,1.08,0,0,0-.16,1.35.71.71,0,0,0,1.12.19l4.55-4.14.77,1.24-4.55,4.13a1.1,1.1,0,0,0-.16,1.36.72.72,0,0,0,1.12.19l4.54-4.14.77,1.23-7.73,7a1.11,1.11,0,0,0-.16,1.35.71.71,0,0,0,1.12.2l7.73-7,.77,1.24-4.55,4.13a1.1,1.1,0,0,0-.15,1.35.71.71,0,0,0,1.12.2l4.54-4.14.77,1.23-4.55,4.14a1.11,1.11,0,0,0-.16,1.35.71.71,0,0,0,1.12.19l4.55-4.14.77,1.23-4.55,4.14a1.13,1.13,0,0,0-.16,1.36.72.72,0,0,0,1.12.19l4.55-4.14.77,1.23-4.55,4.14a1.11,1.11,0,0,0-.16,1.35.71.71,0,0,0,1.12.19l4.55-4.14.77,1.23-11.18,10.18a1.09,1.09,0,0,0-.16,1.35.71.71,0,0,0,1.12.2l11.18-10.18.77,1.23-4.55,4.14a1.11,1.11,0,0,0-.16,1.35.71.71,0,0,0,1.12.19l4.55-4.14.77,1.23L292.48,294a1.08,1.08,0,0,0-.16,1.35.72.72,0,0,0,1.12.19l4.55-4.14.76,1.23-4.54,4.14a1.09,1.09,0,0,0-.16,1.35.71.71,0,0,0,1.12.19l4.54-4.14.77,1.23-4.55,4.15a1.1,1.1,0,0,0-.15,1.35.71.71,0,0,0,1.11.19l4.55-4.15.77,1.24-7.74,7a1.1,1.1,0,0,0-.15,1.35.71.71,0,0,0,1.12.19l7.73-7,.77,1.23-4.55,4.15a1.11,1.11,0,0,0-.16,1.35.72.72,0,0,0,1.12.19l4.55-4.15.77,1.24-4.55,4.14a1.11,1.11,0,0,0-.16,1.35.71.71,0,0,0,1.12.19l4.55-4.14.77,1.24-4.55,4.14a1.11,1.11,0,0,0-.16,1.35.72.72,0,0,0,1.12.19l4.55-4.14.77,1.23-4.55,4.14a1.11,1.11,0,0,0-.16,1.35.71.71,0,0,0,1.12.19l4.55-4.14.76,1.24-11.17,10.17a1.1,1.1,0,0,0-.16,1.36.71.71,0,0,0,1.12.18l11.18-10.17.77,1.23L308,319a1.09,1.09,0,0,0-.16,1.35.71.71,0,0,0,1.12.19l4.55-4.14.76,1.23-4.54,4.14a1.09,1.09,0,0,0-.16,1.35.7.7,0,0,0,1.11.2l4.55-4.14.77,1.23-4.55,4.14a1.1,1.1,0,0,0-.15,1.35.7.7,0,0,0,1.11.19l4.55-4.14.77,1.23-4.55,4.14a1.13,1.13,0,0,0-.16,1.36.72.72,0,0,0,1.12.19l4.55-4.14.77,1.23-7.74,7a1.1,1.1,0,0,0-.15,1.35.7.7,0,0,0,1.11.19l7.74-7,.77,1.23-4.55,4.15a1.11,1.11,0,0,0-.16,1.35.72.72,0,0,0,1.12.19l4.55-4.14.77,1.23-4.55,4.14a1.1,1.1,0,0,0-.16,1.35.71.71,0,0,0,1.12.19l4.55-4.14.77,1.23-4.55,4.15a1.11,1.11,0,0,0-.16,1.35.72.72,0,0,0,1.12.19l4.55-4.15.76,1.24-4.54,4.14a1.09,1.09,0,0,0-.16,1.35.71.71,0,0,0,1.12.19l4.55-4.14.77,1.23L317,350a1.1,1.1,0,0,0-.15,1.35.7.7,0,0,0,1.11.19l11.18-10.18.77,1.24-4.55,4.14a1.1,1.1,0,0,0-.15,1.35.7.7,0,0,0,1.11.19l4.55-4.14.77,1.23-4.55,4.15a1.1,1.1,0,0,0-.15,1.35.71.71,0,0,0,1.11.19l4.55-4.15.77,1.24-4.55,4.14a1.11,1.11,0,0,0-.16,1.35.71.71,0,0,0,1.12.19l4.55-4.14.77,1.24-4.55,4.13a1.13,1.13,0,0,0-.16,1.36.72.72,0,0,0,1.12.19l4.55-4.14.77,1.23-7.74,7a1.11,1.11,0,0,0-.16,1.35.71.71,0,0,0,1.12.19l7.74-7,.77,1.23L334,360.6a1.1,1.1,0,0,0-.16,1.35.71.71,0,0,0,1.12.2l4.55-4.14.77,1.23-4.55,4.14a1.11,1.11,0,0,0-.16,1.35.71.71,0,0,0,1.12.19l4.55-4.14L342,362l-4.55,4.14a1.11,1.11,0,0,0-.15,1.36.72.72,0,0,0,1.12.19l4.55-4.14.76,1.23-4.54,4.14a1.09,1.09,0,0,0-.16,1.35.72.72,0,0,0,1.12.19l4.54-4.14.77,1.23-11.18,10.18a1.11,1.11,0,0,0-.16,1.35.71.71,0,0,0,1.12.2l11.18-10.18.77,1.23-4.55,4.14a1.11,1.11,0,0,0-.16,1.35.71.71,0,0,0,1.12.19l4.55-4.14.77,1.23-4.55,4.15a1.11,1.11,0,0,0-.16,1.35.72.72,0,0,0,1.12.19l4.55-4.15.77,1.24L346.07,380a1.11,1.11,0,0,0-.16,1.35.71.71,0,0,0,1.12.19l4.55-4.14.77,1.23-4.55,4.15a1.11,1.11,0,0,0-.16,1.35.72.72,0,0,0,1.12.19l4.55-4.15.77,1.24-7.71,7,0,0a1.11,1.11,0,0,0-.16,1.35.71.71,0,0,0,1.12.19l1.72-1.56,6-5.48.76,1.23-4.54,4.15-.08.07,0,0a.54.54,0,0,0-.09.15.41.41,0,0,0-.05.09.38.38,0,0,0,0,.1l0,.08v.06a.19.19,0,0,1,0,.08v.11a1.1,1.1,0,0,0,.16.58.72.72,0,0,0,1.12.19l1.58-1.44,3-2.71.76,1.24-1.61,1.47-2.12,1.93-.82.74a1.1,1.1,0,0,0-.15,1.35.71.71,0,0,0,1.12.19l2.51-2.28,2-1.86.76,1.23-.68.63-3.86,3.51a1.1,1.1,0,0,0-.16,1.36.71.71,0,0,0,1.11.19l2-1.84,2.53-2.3.19.28.53-1.2.3-.66Zm-4,8.22a1.1,1.1,0,0,0-.15,1.35.7.7,0,0,0,1.11.19l.07-.06,1.82-4.07Z" transform="translate(-152.05 -66.11)"/><path class="cls-1" d="M178.4,223a3.41,3.41,0,0,0-.78-1,2.82,2.82,0,0,0-1.05-.56,2.58,2.58,0,0,0-1.14,0,2.76,2.76,0,0,0-1.06.52,3.18,3.18,0,0,0-.8,1,4,4,0,0,0-.42,2.6,3.49,3.49,0,0,0,1.2,2.15,2.44,2.44,0,0,0,2.07.52,2.91,2.91,0,0,0,1.82-1.33,3.45,3.45,0,0,0,.49-1.2,3.83,3.83,0,0,0,.06-1.35A4,4,0,0,0,178.4,223Zm-2.46,4.71a2.86,2.86,0,1,1,2.32-2.81A2.6,2.6,0,0,1,175.94,227.66Z" transform="translate(-152.05 -66.11)"/><path class="cls-1" d="M166.47,223a3.41,3.41,0,0,0-.78-1,2.82,2.82,0,0,0-1.05-.56,2.58,2.58,0,0,0-1.14,0,2.76,2.76,0,0,0-1.06.52,3.18,3.18,0,0,0-.8,1,4,4,0,0,0-.42,2.6,3.54,3.54,0,0,0,1.2,2.15,2.44,2.44,0,0,0,2.07.52,2.91,2.91,0,0,0,1.82-1.33,3.45,3.45,0,0,0,.49-1.2,3.83,3.83,0,0,0,.06-1.35A4,4,0,0,0,166.47,223ZM164,227.66a2.86,2.86,0,1,1,2.33-2.81A2.6,2.6,0,0,1,164,227.66Z" transform="translate(-152.05 -66.11)"/><path class="cls-1" d="M168.49,220.48a2.44,2.44,0,0,0,2.09.4,3,3,0,0,0,1.77-1.43,3.78,3.78,0,0,0,.44-1.22,3.94,3.94,0,0,0-.43-2.62,3.52,3.52,0,0,0-.82-1,2.62,2.62,0,0,0-1.07-.5,2.44,2.44,0,0,0-1.14,0,2.83,2.83,0,0,0-1,.58,3.2,3.2,0,0,0-.76,1,4.14,4.14,0,0,0-.32,2.62A3.45,3.45,0,0,0,168.49,220.48Zm1.49-5.65a2.86,2.86,0,1,1-2.33,2.81A2.6,2.6,0,0,1,170,214.83Z" transform="translate(-152.05 -66.11)"/><path class="cls-1" d="M170,204.29c-9.4,0-17,9.21-17,20.56s7.61,20.56,17,20.56,17-9.21,17-20.56S179.37,204.29,170,204.29Zm11.35,26.25a15.65,15.65,0,0,1-2.62,4.87,12.67,12.67,0,0,1-4,3.28,10.6,10.6,0,0,1-4.74,1.14,10.43,10.43,0,0,1-4.74-1.16,12.42,12.42,0,0,1-4-3.27,15.51,15.51,0,0,1-2.63-4.86,17.87,17.87,0,0,1-.89-5.69,17.45,17.45,0,0,1,1-5.64,15.39,15.39,0,0,1,2.68-4.74,12.17,12.17,0,0,1,4-3.14,10.27,10.27,0,0,1,4.64-1.09,11.3,11.3,0,0,1,8.58,4.24,15.23,15.23,0,0,1,2.68,4.73,17.45,17.45,0,0,1,1,5.64A17.87,17.87,0,0,1,181.33,230.54Z" transform="translate(-152.05 -66.11)"/><path class="cls-1" d="M180.93,219.36a14.89,14.89,0,0,0-2.53-4.7,12,12,0,0,0-3.85-3.16,10.13,10.13,0,0,0-4.57-1.11,10.32,10.32,0,0,0-4.58,1.12,12.16,12.16,0,0,0-3.85,3.16,14.93,14.93,0,0,0-2.53,4.69,17.13,17.13,0,0,0,.09,10.93,14.55,14.55,0,0,0,2.59,4.57,11.83,11.83,0,0,0,3.81,3,9.93,9.93,0,0,0,8.93,0,11.76,11.76,0,0,0,3.81-3,14.39,14.39,0,0,0,2.59-4.56,16.54,16.54,0,0,0,.94-5.44A16.9,16.9,0,0,0,180.93,219.36Zm-13.49-3.66a3.06,3.06,0,0,1,1.88-1.55,2.6,2.6,0,0,1,2.24.46,3.68,3.68,0,0,1,1.34,2.23,4.47,4.47,0,0,1-.32,2.79,3.43,3.43,0,0,1-.8,1.1,2.85,2.85,0,0,1-1.11.62,2.69,2.69,0,0,1-1.23,0,2.81,2.81,0,0,1-1.13-.54,3.92,3.92,0,0,1-1.32-2.38A4.3,4.3,0,0,1,167.44,215.7ZM165.7,228a2.81,2.81,0,0,1-1.14.55,2.65,2.65,0,0,1-1.22,0,2.83,2.83,0,0,1-1.11-.61A3.88,3.88,0,0,1,161,225.5a4.33,4.33,0,0,1,.55-2.72,3,3,0,0,1,1.94-1.45,2.58,2.58,0,0,1,2.21.58,3.75,3.75,0,0,1,1.26,2.3,4.41,4.41,0,0,1-.42,2.77A3.26,3.26,0,0,1,165.7,228Zm6.81,6.15a3.43,3.43,0,0,1-.85,1.06,2.83,2.83,0,0,1-1.13.55,2.69,2.69,0,0,1-1.23,0,2.83,2.83,0,0,1-1.11-.61,3.93,3.93,0,0,1-1.23-2.44,4.27,4.27,0,0,1,.56-2.72,3,3,0,0,1,1.94-1.45,2.59,2.59,0,0,1,2.21.58,3.8,3.8,0,0,1,1.26,2.3A4.55,4.55,0,0,1,172.51,234.19Zm6-7.21a3.4,3.4,0,0,1-.84,1.06,2.81,2.81,0,0,1-1.14.55,2.65,2.65,0,0,1-1.22,0,2.83,2.83,0,0,1-1.11-.61,3.88,3.88,0,0,1-1.23-2.44,4.21,4.21,0,0,1,.55-2.72,3,3,0,0,1,1.94-1.45,2.58,2.58,0,0,1,2.21.58,3.75,3.75,0,0,1,1.26,2.3A4.41,4.41,0,0,1,178.47,227Z" transform="translate(-152.05 -66.11)"/><path class="cls-1" d="M172.43,230.16a3.41,3.41,0,0,0-.78-1,2.78,2.78,0,0,0-1-.56,2.63,2.63,0,0,0-1.15,0,2.76,2.76,0,0,0-1.06.52,3.18,3.18,0,0,0-.8,1,4,4,0,0,0-.41,2.6,3.45,3.45,0,0,0,1.2,2.15,2.43,2.43,0,0,0,2.07.52,2.91,2.91,0,0,0,1.82-1.33,3.88,3.88,0,0,0,.49-1.2,4.08,4.08,0,0,0,0-1.35A4,4,0,0,0,172.43,230.16ZM170,234.87a2.86,2.86,0,1,1,2.32-2.81A2.6,2.6,0,0,1,170,234.87Z" transform="translate(-152.05 -66.11)"/><path class="cls-1" d="M391.4,224.24a4.08,4.08,0,0,0,.06,1.35,3.45,3.45,0,0,0,.49,1.2,2.91,2.91,0,0,0,1.82,1.33,2.44,2.44,0,0,0,2.07-.52,3.49,3.49,0,0,0,1.2-2.15,4,4,0,0,0-.42-2.6,3.18,3.18,0,0,0-.8-1,2.76,2.76,0,0,0-1.06-.52,2.58,2.58,0,0,0-1.14,0,2.82,2.82,0,0,0-1.05.56,3.59,3.59,0,0,0-.78,1A4.21,4.21,0,0,0,391.4,224.24Zm.53.61a2.36,2.36,0,1,1,2.32,2.81A2.6,2.6,0,0,1,391.93,224.85Z" transform="translate(-152.05 -66.11)"/><path class="cls-1" d="M403.33,224.24a3.83,3.83,0,0,0,.06,1.35,3.45,3.45,0,0,0,.49,1.2,2.91,2.91,0,0,0,1.82,1.33,2.44,2.44,0,0,0,2.07-.52,3.54,3.54,0,0,0,1.2-2.15,4,4,0,0,0-.42-2.6,3.18,3.18,0,0,0-.8-1,2.76,2.76,0,0,0-1.06-.52,2.58,2.58,0,0,0-1.14,0,2.82,2.82,0,0,0-1.05.56,3.41,3.41,0,0,0-.78,1A4,4,0,0,0,403.33,224.24Zm.53.61a2.36,2.36,0,1,1,2.32,2.81A2.6,2.6,0,0,1,403.86,224.85Z" transform="translate(-152.05 -66.11)"/><path class="cls-1" d="M403,218.39a4.14,4.14,0,0,0-.32-2.62,3.2,3.2,0,0,0-.76-1,2.83,2.83,0,0,0-1-.58,2.44,2.44,0,0,0-1.14,0,2.62,2.62,0,0,0-1.07.5,3.52,3.52,0,0,0-.82,1,3.94,3.94,0,0,0-.43,2.62,3.78,3.78,0,0,0,.44,1.22,3,3,0,0,0,1.77,1.43,2.43,2.43,0,0,0,2.09-.4A3.45,3.45,0,0,0,403,218.39Zm-.44-.75a2.37,2.37,0,1,1-2.33-2.81A2.6,2.6,0,0,1,402.54,217.64Z" transform="translate(-152.05 -66.11)"/><path class="cls-1" d="M383.21,224.85c0,11.35,7.61,20.56,17,20.56s17-9.21,17-20.56-7.61-20.56-17-20.56S383.21,213.5,383.21,224.85Zm4.76,0a17.45,17.45,0,0,1,1-5.64,15.05,15.05,0,0,1,2.69-4.73,11.26,11.26,0,0,1,8.57-4.24,10.27,10.27,0,0,1,4.64,1.09,12.17,12.17,0,0,1,3.95,3.14,15.39,15.39,0,0,1,2.68,4.74,17.63,17.63,0,0,1,.09,11.33,15.31,15.31,0,0,1-2.63,4.86,12.42,12.42,0,0,1-4,3.27,10.43,10.43,0,0,1-4.74,1.16,10.6,10.6,0,0,1-4.74-1.14,12.67,12.67,0,0,1-4-3.28,15.65,15.65,0,0,1-2.62-4.87A17.87,17.87,0,0,1,388,224.85Z" transform="translate(-152.05 -66.11)"/><path class="cls-1" d="M388.41,224.85a16.54,16.54,0,0,0,.94,5.44,14.39,14.39,0,0,0,2.59,4.56,11.76,11.76,0,0,0,3.81,3,9.93,9.93,0,0,0,8.93,0,11.83,11.83,0,0,0,3.81-3,14.55,14.55,0,0,0,2.59-4.57,16.54,16.54,0,0,0,.94-5.44,16.9,16.9,0,0,0-.85-5.49,14.93,14.93,0,0,0-2.53-4.69,12.16,12.16,0,0,0-3.85-3.16,10.32,10.32,0,0,0-4.58-1.12,10.13,10.13,0,0,0-4.57,1.11,12,12,0,0,0-3.85,3.16,14.89,14.89,0,0,0-2.53,4.7A16.9,16.9,0,0,0,388.41,224.85Zm14.79-6.4a3.88,3.88,0,0,1-1.32,2.38,2.81,2.81,0,0,1-1.13.54,2.69,2.69,0,0,1-1.23,0,2.85,2.85,0,0,1-1.11-.62,3.43,3.43,0,0,1-.8-1.1,4.47,4.47,0,0,1-.32-2.79,3.68,3.68,0,0,1,1.34-2.23,2.6,2.6,0,0,1,2.24-.46,3.06,3.06,0,0,1,1.88,1.55A4.3,4.3,0,0,1,403.2,218.45Zm.45,8.53a4.41,4.41,0,0,1-.42-2.77,3.75,3.75,0,0,1,1.26-2.3,2.58,2.58,0,0,1,2.21-.58,3,3,0,0,1,1.94,1.45,4.27,4.27,0,0,1,.55,2.72,3.88,3.88,0,0,1-1.23,2.44,2.83,2.83,0,0,1-1.11.61,2.65,2.65,0,0,1-1.22,0,2.81,2.81,0,0,1-1.14-.55A3.26,3.26,0,0,1,403.65,227Zm-6.39,4.44a3.8,3.8,0,0,1,1.26-2.3,2.59,2.59,0,0,1,2.21-.58,3,3,0,0,1,1.94,1.45,4.27,4.27,0,0,1,.56,2.72,3.93,3.93,0,0,1-1.23,2.44,2.83,2.83,0,0,1-1.11.61,2.69,2.69,0,0,1-1.23,0,2.83,2.83,0,0,1-1.13-.55,3.43,3.43,0,0,1-.85-1.06A4.55,4.55,0,0,1,397.26,231.42Zm-6-7.21a3.75,3.75,0,0,1,1.26-2.3,2.58,2.58,0,0,1,2.21-.58,3,3,0,0,1,1.94,1.45,4.21,4.21,0,0,1,.55,2.72,3.88,3.88,0,0,1-1.23,2.44,2.83,2.83,0,0,1-1.11.61,2.65,2.65,0,0,1-1.22,0,2.81,2.81,0,0,1-1.14-.55,3.4,3.4,0,0,1-.84-1.06A4.41,4.41,0,0,1,391.3,224.21Z" transform="translate(-152.05 -66.11)"/><path class="cls-1" d="M397.37,231.45a4.08,4.08,0,0,0,.05,1.35,3.88,3.88,0,0,0,.49,1.2,2.91,2.91,0,0,0,1.82,1.33,2.43,2.43,0,0,0,2.07-.52,3.45,3.45,0,0,0,1.2-2.15,4,4,0,0,0-.41-2.6,3.18,3.18,0,0,0-.8-1,2.76,2.76,0,0,0-1.06-.52,2.63,2.63,0,0,0-1.15,0,2.78,2.78,0,0,0-1,.56,3.41,3.41,0,0,0-.78,1A4,4,0,0,0,397.37,231.45Zm.52.61a2.37,2.37,0,1,1,2.32,2.81A2.6,2.6,0,0,1,397.89,232.06Z" transform="translate(-152.05 -66.11)"/><path class="cls-2" d="M383.23,311a156.86,156.86,0,0,0,16.42-22.2l.86,24,16.69,2.52a179.46,179.46,0,0,1-27.46,32.17L385.32,344Z" transform="translate(-152.05 -66.11)"/><path class="cls-1" d="M389.74,348.66a.82.82,0,0,1-.52-.19L384.8,345l1-1.91,3.87,3.07a178.16,178.16,0,0,0,25.69-29.9l-15-2.25a1.09,1.09,0,0,1-.83-1.09L398.82,292a157.67,157.67,0,0,1-14.95,19.82l-1.28-1.66a157.86,157.86,0,0,0,16.3-22,.84.84,0,0,1,1-.41,1.12,1.12,0,0,1,.67,1l.83,23.06,15.9,2.4a1,1,0,0,1,.75.7,1.32,1.32,0,0,1-.14,1.15,181.1,181.1,0,0,1-27.62,32.36A.85.85,0,0,1,389.74,348.66Z" transform="translate(-152.05 -66.11)"/><polygon class="cls-2" points="228.38 239.06 231.18 244.9 242.5 268.43 237.69 281.41 233.27 277.9 228.38 239.06"/><path class="cls-1" d="M389.74,348.66a.82.82,0,0,1-.52-.19L384.8,345l1-1.91,3.5,2.78,4.16-11.22-13.88-28.87,1.63-1.14L395.36,334a1.32,1.32,0,0,1,.05,1l-4.81,13a1.05,1.05,0,0,1-.59.63A.84.84,0,0,1,389.74,348.66Z" transform="translate(-152.05 -66.11)"/><path class="cls-2" d="M372.08,355.32A163.54,163.54,0,0,0,385.32,344q4.76-4.51,9.23-9.47L383.23,311l-2.81-5.84a145.19,145.19,0,0,1-13.24,14Z" transform="translate(-152.05 -66.11)"/><path class="cls-1" d="M372.59,356.28l-1-1.92a163,163,0,0,0,13.15-11.25c2.94-2.78,5.83-5.74,8.62-8.79L380.22,307a147.27,147.27,0,0,1-12.46,13.07l-1.15-1.8a145.13,145.13,0,0,0,13.15-13.93.86.86,0,0,1,.79-.32,1,1,0,0,1,.69.56L395.36,334a1.29,1.29,0,0,1-.18,1.41c-3,3.31-6.11,6.52-9.28,9.52A162.83,162.83,0,0,1,372.59,356.28Z" transform="translate(-152.05 -66.11)"/><polygon class="cls-2" points="213.2 282.65 220.03 289.21 225.31 272.79 215.14 253.08 211.03 245.12 213.2 282.65"/><path class="cls-1" d="M372.08,356.46a.83.83,0,0,1-.59-.25l-6.82-6.56,1.17-1.79,5.83,5.61L376.31,339l-14-27.19,1.6-1.2,14.28,27.67a1.31,1.31,0,0,1,.08,1L373,355.73a1,1,0,0,1-.63.69A.73.73,0,0,1,372.08,356.46Z" transform="translate(-152.05 -66.11)"/><path class="cls-2" d="M187,311a156.86,156.86,0,0,1-16.42-22.2l-.86,24L153,315.35a179.46,179.46,0,0,0,27.46,32.17l4.42-3.51Z" transform="translate(-152.05 -66.11)"/><path class="cls-1" d="M180.45,348.66a.83.83,0,0,1-.57-.23,181.22,181.22,0,0,1-27.62-32.36,1.32,1.32,0,0,1-.14-1.15,1,1,0,0,1,.76-.7l15.89-2.4.83-23.06a1.11,1.11,0,0,1,.67-1,.84.84,0,0,1,1,.41,157.07,157.07,0,0,0,16.3,22l-1.28,1.66A157.67,157.67,0,0,1,171.37,292l-.75,20.86a1.09,1.09,0,0,1-.83,1.09l-15,2.25a178.56,178.56,0,0,0,25.68,29.9l3.86-3.07,1,1.91L181,348.47A.77.77,0,0,1,180.45,348.66Z" transform="translate(-152.05 -66.11)"/><polygon class="cls-2" points="37.72 239.06 34.91 244.9 23.59 268.43 28.4 281.41 32.82 277.9 37.72 239.06"/><path class="cls-1" d="M180.45,348.66a.84.84,0,0,1-.27,0,1.05,1.05,0,0,1-.59-.63l-4.81-13a1.32,1.32,0,0,1,.05-1L189,304.6l1.63,1.14L176.7,334.61l4.15,11.22,3.5-2.78,1,1.91L181,348.47A.77.77,0,0,1,180.45,348.66Z" transform="translate(-152.05 -66.11)"/><path class="cls-2" d="M198.11,355.32A163.54,163.54,0,0,1,184.87,344q-4.76-4.51-9.23-9.47L187,311l2.81-5.84a147.53,147.53,0,0,0,13.23,14h0Z" transform="translate(-152.05 -66.11)"/><path class="cls-1" d="M197.61,356.28a163,163,0,0,1-13.32-11.38c-3.17-3-6.29-6.21-9.29-9.52a1.31,1.31,0,0,1-.17-1.41L189,304.6a1,1,0,0,1,.7-.56.82.82,0,0,1,.78.32,147.67,147.67,0,0,0,13.15,13.93l-.57.9v1.14a.82.82,0,0,1-.58-.24A147.34,147.34,0,0,1,190,307l-13.13,27.3c2.79,3.05,5.68,6,8.61,8.79a164.55,164.55,0,0,0,13.16,11.25Z" transform="translate(-152.05 -66.11)"/><polygon class="cls-2" points="52.89 282.65 46.06 289.21 40.78 272.79 50.95 253.08 55.06 245.13 52.89 282.65"/><path class="cls-1" d="M198.11,356.46a.77.77,0,0,1-.25,0,1,1,0,0,1-.63-.69L192,339.31a1.41,1.41,0,0,1,.08-1l14.28-27.67,1.6,1.21-14,27.18,4.65,14.45,5.82-5.61,1.18,1.79-6.83,6.56A.83.83,0,0,1,198.11,356.46Z" transform="translate(-152.05 -66.11)"/><polygon class="cls-2" points="55.06 245.12 55.06 245.13 55.07 245.13 55.06 245.12"/><path class="cls-1" d="M207.12,312.38l-.68-.34a1.29,1.29,0,0,1-.27-.81h.94v0l.66-.79-.66.8h0Z" transform="translate(-152.05 -66.11)"/><path class="cls-1" d="M285.09,339.93c-28.38,0-52.39-9.39-73.29-28.66v46.21q6.42,4.11,13.12,7.54a129.11,129.11,0,0,0,120.35,0q5.79-3,11.38-6.45V312.84C336.17,331.05,312.7,339.93,285.09,339.93Z" transform="translate(-152.05 -66.11)"/><path class="cls-2" d="M207.11,311.23c21.73,21.29,47.19,32.17,78,32.17s56.26-10.88,78-32.17l14.28,27.67a156.2,156.2,0,0,1-33.21,22.92,126.66,126.66,0,0,1-118.11,0,156.2,156.2,0,0,1-33.21-22.92Z" transform="translate(-152.05 -66.11)"/><path class="cls-1" d="M285.09,377.57a129.86,129.86,0,0,1-59.42-14.7,157.75,157.75,0,0,1-33.4-23.05,1.31,1.31,0,0,1-.24-1.52l14.28-27.67a.94.94,0,0,1,.64-.52.8.8,0,0,1,.75.24c21.92,21.47,47.24,31.91,77.39,31.91s55.48-10.44,77.39-31.92a.83.83,0,0,1,.75-.23.93.93,0,0,1,.65.52l14.28,27.67a1.31,1.31,0,0,1-.24,1.52,157.25,157.25,0,0,1-33.4,23.05A129.87,129.87,0,0,1,285.09,377.57Zm-91-39a155.12,155.12,0,0,0,32.3,22.16,125.87,125.87,0,0,0,117.38,0,155.36,155.36,0,0,0,32.32-22.16l-13.26-25.69c-22.07,21.28-47.52,31.62-77.75,31.62s-55.67-10.34-77.74-31.61Z" transform="translate(-152.05 -66.11)"/><path class="cls-2" d="M383.23,132.67a158.12,158.12,0,0,1,16.42,22.19l.86-24,16.69-2.51a179.88,179.88,0,0,0-27.46-32.18l-4.42,3.52Z" transform="translate(-152.05 -66.11)"/><path class="cls-1" d="M399.65,156a.88.88,0,0,1-.76-.46,157.27,157.27,0,0,0-16.3-22l1.28-1.67a158.4,158.4,0,0,1,14.95,19.82l.75-20.86a1.08,1.08,0,0,1,.83-1.08l15-2.26a179,179,0,0,0-25.69-29.9l-3.87,3.07-1-1.9,4.42-3.52a.81.81,0,0,1,1.09,0,180.4,180.4,0,0,1,27.62,32.36,1.31,1.31,0,0,1,.14,1.14,1,1,0,0,1-.75.71l-15.9,2.39-.83,23.06a1.14,1.14,0,0,1-.67,1A.86.86,0,0,1,399.65,156Z" transform="translate(-152.05 -66.11)"/><polygon class="cls-2" points="228.37 72.4 231.18 66.56 242.5 43.03 237.69 30.05 233.27 33.56 228.37 72.4"/><path class="cls-1" d="M381.24,139.08l-1.63-1.15,13.88-28.86-4.16-11.23-3.5,2.78-1-1.9,4.42-3.52a.84.84,0,0,1,.79-.14,1,1,0,0,1,.59.63l4.81,13a1.39,1.39,0,0,1-.05,1Z" transform="translate(-152.05 -66.11)"/><path class="cls-2" d="M372.08,88.35a163.68,163.68,0,0,1,13.24,11.32q4.76,4.52,9.23,9.47l-11.32,23.53-2.81,5.83a146.26,146.26,0,0,0-13.24-14Z" transform="translate(-152.05 -66.11)"/><path class="cls-1" d="M380.42,139.64a.82.82,0,0,1-.66-.33,147.48,147.48,0,0,0-13.15-13.92l1.15-1.81a148.86,148.86,0,0,1,12.46,13.08l13.13-27.3c-2.79-3.06-5.68-6-8.62-8.79a161,161,0,0,0-13.15-11.25l1-1.93A166.87,166.87,0,0,1,385.9,98.77c3.16,3,6.29,6.21,9.28,9.53a1.29,1.29,0,0,1,.18,1.41l-14.12,29.37a1,1,0,0,1-.7.56Z" transform="translate(-152.05 -66.11)"/><polygon class="cls-2" points="213.2 28.81 220.03 22.25 225.31 38.67 215.14 58.38 211.03 66.34 213.2 28.81"/><path class="cls-1" d="M363.88,133.05l-1.6-1.21,14-27.18-4.64-14.45-5.83,5.6L364.66,94l6.83-6.57a.86.86,0,0,1,.84-.21,1,1,0,0,1,.63.69l5.28,16.42a1.38,1.38,0,0,1-.08,1Z" transform="translate(-152.05 -66.11)"/><path class="cls-2" d="M187,132.67a157.34,157.34,0,0,0-16.42,22.19l-.87-24L153,128.33a179.88,179.88,0,0,1,27.46-32.18l4.42,3.52Z" transform="translate(-152.05 -66.11)"/><path class="cls-1" d="M170.54,156a.86.86,0,0,1-.27-.05,1.12,1.12,0,0,1-.67-1l-.83-23.06-15.9-2.39a1,1,0,0,1-.75-.71,1.31,1.31,0,0,1,.14-1.14,181.17,181.17,0,0,1,27.61-32.36.81.81,0,0,1,1.09,0l4.43,3.52-1,1.9-3.86-3.07a179.08,179.08,0,0,0-25.69,29.9l15,2.26a1.08,1.08,0,0,1,.83,1.08l.75,20.86a157.44,157.44,0,0,1,14.95-19.82l1.28,1.67a156.49,156.49,0,0,0-16.3,22A.88.88,0,0,1,170.54,156Z" transform="translate(-152.05 -66.11)"/><polygon class="cls-2" points="37.72 72.4 34.91 66.56 23.59 43.03 28.4 30.05 32.82 33.56 37.72 72.4"/><path class="cls-1" d="M189,139.08l-14.13-29.37a1.39,1.39,0,0,1,0-1l4.81-13a1,1,0,0,1,.59-.63.82.82,0,0,1,.78.14l4.43,3.52-1,1.9-3.5-2.78-4.15,11.23,13.88,28.86Z" transform="translate(-152.05 -66.11)"/><path class="cls-2" d="M198.11,88.35a163.68,163.68,0,0,0-13.24,11.32q-4.76,4.52-9.23,9.47L187,132.67l2.81,5.83a147.42,147.42,0,0,1,13.23-14h0Z" transform="translate(-152.05 -66.11)"/><path class="cls-1" d="M189.77,139.64h-.12a1,1,0,0,1-.7-.56l-14.13-29.37a1.33,1.33,0,0,1,.18-1.41c3-3.32,6.12-6.52,9.29-9.53A168.65,168.65,0,0,1,197.6,87.39l1,1.93a164.41,164.41,0,0,0-13.16,11.24c-2.93,2.79-5.82,5.74-8.61,8.8L190,136.66a147.47,147.47,0,0,1,12.46-13.08.85.85,0,0,1,.57-.23v1.14l.58.9a147.55,147.55,0,0,0-13.15,13.92A.82.82,0,0,1,189.77,139.64Z" transform="translate(-152.05 -66.11)"/><polygon class="cls-2" points="52.89 28.81 46.06 22.25 40.78 38.67 50.95 58.38 55.06 66.33 52.89 28.81"/><path class="cls-1" d="M206.31,133,192,105.38a1.38,1.38,0,0,1-.08-1l5.28-16.42a1,1,0,0,1,.63-.69.86.86,0,0,1,.84.21L205.53,94l-1.18,1.78-5.83-5.6-4.64,14.45,14,27.18Z" transform="translate(-152.05 -66.11)"/><polygon class="cls-2" points="55.06 66.34 55.06 66.33 55.07 66.33 55.06 66.34"/><path class="cls-1" d="M207.78,133.25l-.66-.81h-1a1.29,1.29,0,0,1,.27-.8.9.9,0,0,1,.68-.35v1.15h0Z" transform="translate(-152.05 -66.11)"/><path class="cls-2" d="M207.11,132.44c21.73-21.29,47.19-32.17,78-32.17s56.26,10.88,78,32.18l14.28-27.68a155.79,155.79,0,0,0-33.21-22.91,126.66,126.66,0,0,0-118.11,0,156.16,156.16,0,0,0-33.21,22.91Z" transform="translate(-152.05 -66.11)"/><path class="cls-1" d="M363.08,133.59a.84.84,0,0,1-.6-.26c-21.91-21.48-47.22-31.92-77.39-31.92s-55.47,10.44-77.39,31.92a.85.85,0,0,1-.75.24,1,1,0,0,1-.64-.52L192,105.38a1.31,1.31,0,0,1,.24-1.52,157.13,157.13,0,0,1,33.4-23,127.46,127.46,0,0,1,118.85,0,157.25,157.25,0,0,1,33.4,23,1.31,1.31,0,0,1,.24,1.52l-14.28,27.67a1,1,0,0,1-.65.52Zm-78-34.46c30.23,0,55.68,10.35,77.75,31.62l13.26-25.68a155,155,0,0,0-32.32-22.16,125.87,125.87,0,0,0-117.38,0,155.06,155.06,0,0,0-32.31,22.16l13.26,25.68C229.42,109.48,254.87,99.13,285.09,99.13Z" transform="translate(-152.05 -66.11)"/><path class="cls-1" d="M333.74,145.51a24.58,24.58,0,0,0,2-19.18l0-.06c1.57,3.78,3.46,11.43-1.31,20.55-3.36,6.42-24.09,41.71-36.84,63.35l-1-.92C309.78,187,330.37,152,333.74,145.51Z" transform="translate(-152.05 -66.11)"/><path class="cls-1" d="M236.45,145.51a24.58,24.58,0,0,1-2-19.18l0-.06c-1.57,3.78-3.46,11.43,1.31,20.55,3.36,6.42,24.09,41.71,36.84,63.35l1-.92C260.41,187,239.82,152,236.45,145.51Z" transform="translate(-152.05 -66.11)"/><polygon class="cls-1" points="209.19 323.62 208.89 324.28 208.36 325.49 207.24 327.98 205.43 332.05 205.43 332.05 203.97 335.3 202.16 339.37 196.54 351.95 196.39 352.29 195.68 353.88 193.86 353.88 194.5 352.46 194.72 351.95 195.33 350.59 199.61 341.01 200.92 338.08 205.64 327.5 207.08 324.28 207.94 322.35 208.13 321.92 208.4 322.35 209.19 323.62"/><text class="cls-3" transform="translate(69.34 48.51) rotate(-33.3)">S</text><text class="cls-3" transform="matrix(0.91, -0.42, 0.42, 0.91, 82.25, 39.99)">A</text><text class="cls-3" transform="translate(98.42 32.62) rotate(-15.4)">S</text><text class="cls-3" transform="translate(113.4 28.44) rotate(-6.87)">T</text><text class="cls-3" transform="matrix(1, 0.03, -0.03, 1, 128.98, 26.49)">R</text><text class="cls-3" transform="translate(145.73 27.11) rotate(10.56)">E</text><text class="cls-3" transform="translate(160.3 29.71) rotate(19.08)">R</text><text class="cls-3" transform="translate(176.17 35.47) rotate(25.48)"></text><text class="cls-3" transform="translate(182.47 38.1) rotate(32.15)">A</text><text class="cls-3" transform="translate(81.15 291.81) rotate(21)">S</text><text class="cls-3" transform="translate(97.3 298.03) rotate(13.33)">A</text><text class="cls-3" transform="matrix(1, 0.07, -0.07, 1, 116.6, 302.51)">N</text><text class="cls-3" transform="translate(136.49 303.67) rotate(-5.85)">T</text><text class="cls-3" transform="translate(154.3 301.8) rotate(-16)">O</text><text class="cls-3" transform="matrix(0.9, -0.43, 0.43, 0.9, 173.51, 296.02)">S</text></svg>